<svg width="78" height="37" viewBox="0 0 78 37" fill="none" xmlns="http://www.w3.org/2000/svg">
<path d="M0.642046 36V1.09091H15.0625C17.6761 1.09091 19.9318 1.60227 21.8295 2.625C23.7386 3.63636 25.2102 5.05113 26.2443 6.86932C27.2784 8.67614 27.7955 10.7784 27.7955 13.1761C27.7955 15.5852 27.267 17.6932 26.2102 19.5C25.1648 21.2955 23.6705 22.6875 21.7273 23.6761C19.7841 24.6648 17.4773 25.1591 14.8068 25.1591H5.90909V18.5114H13.2386C14.5114 18.5114 15.5739 18.2898 16.4261 17.8466C17.2898 17.4034 17.9432 16.7841 18.3864 15.9886C18.8295 15.1818 19.0511 14.2443 19.0511 13.1761C19.0511 12.0966 18.8295 11.1648 18.3864 10.3807C17.9432 9.58523 17.2898 8.97159 16.4261 8.53977C15.5625 8.10795 14.5 7.89205 13.2386 7.89205H9.07955V36H0.642046ZM40.392 1.09091V36H31.9545V1.09091H40.392ZM77.3764 13.7386H68.8537C68.7401 12.8636 68.5071 12.0739 68.1548 11.3693C67.8026 10.6648 67.3366 10.0625 66.7571 9.5625C66.1776 9.0625 65.4901 8.68182 64.6946 8.42045C63.9105 8.14773 63.0412 8.01136 62.0866 8.01136C60.3935 8.01136 58.9332 8.42614 57.706 9.25568C56.4901 10.0852 55.5526 11.2841 54.8935 12.8523C54.2457 14.4205 53.9219 16.3182 53.9219 18.5455C53.9219 20.8636 54.2514 22.8068 54.9105 24.375C55.581 25.9318 56.5185 27.108 57.723 27.9034C58.9389 28.6875 60.3764 29.0795 62.0355 29.0795C62.9673 29.0795 63.8139 28.9602 64.5753 28.7216C65.348 28.483 66.0241 28.1364 66.6037 27.6818C67.1946 27.2159 67.6776 26.6534 68.0526 25.9943C68.4389 25.3239 68.706 24.5682 68.8537 23.7273L77.3764 23.7784C77.2287 25.3239 76.7798 26.8466 76.0298 28.3466C75.2912 29.8466 74.2741 31.2159 72.9787 32.4545C71.6832 33.6818 70.1037 34.6591 68.2401 35.3864C66.3878 36.1136 64.2628 36.4773 61.8651 36.4773C58.706 36.4773 55.8764 35.7841 53.3764 34.3977C50.8878 33 48.9219 30.9659 47.4787 28.2955C46.0355 25.625 45.3139 22.375 45.3139 18.5455C45.3139 14.7045 46.0469 11.4489 47.5128 8.77841C48.9787 6.10795 50.9616 4.07955 53.4616 2.69318C55.9616 1.30682 58.7628 0.613635 61.8651 0.613635C63.9787 0.613635 65.9332 0.90909 67.7287 1.5C69.5241 2.07954 71.1037 2.93182 72.4673 4.05682C73.831 5.17045 74.9389 6.53977 75.7912 8.16477C76.6435 9.78977 77.1719 11.6477 77.3764 13.7386Z" fill="#3A3D4B"/>
</svg>
