<svg class="img-responsive mx-auto banner d-block d-sm-block d-xs-none d-md-none d-lg-none" width="290" height="251"
     viewBox="0 0 290 251" fill="none" xmlns="http://www.w3.org/2000/svg">
    <rect width="290" height="251" rx="8" fill="#091E42"></rect>
    <path d="M38.3545 27.6416H31.9531V45H26.8115V27.6416H20.5273V23.6719H38.3545V27.6416ZM53.7646 35.9619H45.6787V41.0449H55.2295V45H40.5371V23.6719H55.2588V27.6416H45.6787V32.1387H53.7646V35.9619ZM74.5801 37.7783C74.5117 39.2627 74.1113 40.5762 73.3789 41.7188C72.6465 42.8516 71.6162 43.7305 70.2881 44.3555C68.9697 44.9805 67.4609 45.293 65.7617 45.293C62.959 45.293 60.752 44.3799 59.1406 42.5537C57.5293 40.7275 56.7236 38.1494 56.7236 34.8193V33.7646C56.7236 31.6748 57.085 29.8486 57.8076 28.2861C58.54 26.7139 59.5898 25.5029 60.957 24.6533C62.3242 23.7939 63.9062 23.3643 65.7031 23.3643C68.291 23.3643 70.3711 24.0479 71.9434 25.415C73.5156 26.7725 74.4092 28.6475 74.624 31.04H69.4971C69.458 29.7412 69.1309 28.8086 68.5156 28.2422C67.9004 27.6758 66.9629 27.3926 65.7031 27.3926C64.4238 27.3926 63.4863 27.8711 62.8906 28.8281C62.2949 29.7852 61.9824 31.3135 61.9531 33.4131V34.9219C61.9531 37.1973 62.2363 38.8232 62.8027 39.7998C63.3789 40.7764 64.3652 41.2646 65.7617 41.2646C66.9434 41.2646 67.8467 40.9863 68.4717 40.4297C69.0967 39.873 69.4287 38.9893 69.4678 37.7783H74.5801ZM94.8389 45H89.7266V36.0938H82.1533V45H77.0117V23.6719H82.1533V32.1387H89.7266V23.6719H94.8389V45ZM103.584 45H98.457V23.6719H103.584V45ZM124.971 45H119.858L112.3 31.7285V45H107.158V23.6719H112.3L119.844 36.9434V23.6719H124.971V45ZM144.526 27.6416H138.125V45H132.983V27.6416H126.699V23.6719H144.526V27.6416ZM164.36 34.7754C164.36 36.8555 163.975 38.6963 163.203 40.2979C162.432 41.8994 161.333 43.1348 159.907 44.0039C158.491 44.8633 156.875 45.293 155.059 45.293C153.242 45.293 151.631 44.8779 150.225 44.0479C148.818 43.208 147.72 42.0117 146.929 40.459C146.147 38.9062 145.737 37.124 145.698 35.1123V33.9111C145.698 31.8213 146.079 29.9805 146.841 28.3887C147.612 26.7871 148.711 25.5518 150.137 24.6826C151.572 23.8135 153.203 23.3789 155.029 23.3789C156.836 23.3789 158.447 23.8086 159.863 24.668C161.279 25.5273 162.378 26.7529 163.159 28.3447C163.95 29.9268 164.351 31.7432 164.36 33.7939V34.7754ZM159.131 33.8818C159.131 31.7627 158.774 30.1562 158.062 29.0625C157.358 27.959 156.348 27.4072 155.029 27.4072C152.451 27.4072 151.089 29.3408 150.942 33.208L150.928 34.7754C150.928 36.8652 151.274 38.4717 151.968 39.5947C152.661 40.7178 153.691 41.2793 155.059 41.2793C156.357 41.2793 157.358 40.7275 158.062 39.624C158.765 38.5205 159.121 36.9336 159.131 34.8633V33.8818ZM174.937 37.4707H172.153V45H167.012V23.6719H175.405C177.935 23.6719 179.912 24.2334 181.338 25.3564C182.764 26.4795 183.477 28.0664 183.477 30.1172C183.477 31.6016 183.174 32.832 182.568 33.8086C181.973 34.7852 181.035 35.5762 179.756 36.1816L184.209 44.7803V45H178.701L174.937 37.4707ZM172.153 33.501H175.405C176.382 33.501 177.114 33.2471 177.603 32.7393C178.101 32.2217 178.35 31.5039 178.35 30.5859C178.35 29.668 178.101 28.9502 177.603 28.4326C177.104 27.9053 176.372 27.6416 175.405 27.6416H172.153V33.501ZM204.043 42.3633C203.252 43.2422 202.095 43.9502 200.571 44.4873C199.048 45.0244 197.378 45.293 195.562 45.293C192.769 45.293 190.537 44.4385 188.867 42.7295C187.197 41.0205 186.304 38.6426 186.187 35.5957L186.172 33.75C186.172 31.6504 186.543 29.8193 187.285 28.2568C188.027 26.6846 189.087 25.4785 190.464 24.6387C191.851 23.7891 193.452 23.3643 195.269 23.3643C197.925 23.3643 199.985 23.9746 201.45 25.1953C202.925 26.4062 203.784 28.2178 204.028 30.6299H199.077C198.901 29.4385 198.521 28.5889 197.935 28.0811C197.349 27.5732 196.519 27.3193 195.444 27.3193C194.155 27.3193 193.159 27.8662 192.456 28.96C191.753 30.0537 191.396 31.6162 191.387 33.6475V34.9365C191.387 37.0654 191.748 38.667 192.471 39.7412C193.203 40.8057 194.351 41.3379 195.913 41.3379C197.251 41.3379 198.247 41.04 198.901 40.4443V37.1338H195.327V33.6035H204.043V42.3633Z"
          fill="white"></path>
    <path d="M27.4307 65.0469H28.7432V75H27.4307V67.3301L22.5293 75H21.21V65.0469H22.5293V72.7168L27.4307 65.0469ZM35.1963 73.3252L37.7119 67.6035H39.291V75H38.0264V69.6201L35.6338 75H34.7588L32.3184 69.5039V75H31.0537V67.6035H32.6943L35.1963 73.3252ZM47.3779 75H46.1133V68.6494H42.709V75H41.4375V67.6035H47.3779V75ZM49.0732 71.2334C49.0732 70.5088 49.2145 69.8571 49.4971 69.2783C49.7842 68.6995 50.1807 68.2529 50.6865 67.9385C51.1969 67.624 51.778 67.4668 52.4297 67.4668C53.4368 67.4668 54.2503 67.8154 54.8701 68.5127C55.4945 69.21 55.8066 70.1374 55.8066 71.2949V71.3838C55.8066 72.1038 55.6676 72.751 55.3896 73.3252C55.1162 73.8949 54.722 74.3392 54.207 74.6582C53.6966 74.9772 53.1087 75.1367 52.4434 75.1367C51.4408 75.1367 50.6273 74.7881 50.0029 74.0908C49.3831 73.3936 49.0732 72.4707 49.0732 71.3223V71.2334ZM50.3447 71.3838C50.3447 72.2041 50.5339 72.8626 50.9121 73.3594C51.2949 73.8561 51.8053 74.1045 52.4434 74.1045C53.0859 74.1045 53.5964 73.8538 53.9746 73.3525C54.3529 72.8467 54.542 72.1403 54.542 71.2334C54.542 70.4222 54.3483 69.766 53.9609 69.2646C53.5781 68.7588 53.0677 68.5059 52.4297 68.5059C51.8053 68.5059 51.3018 68.7542 50.9189 69.251C50.5361 69.7477 50.3447 70.4587 50.3447 71.3838ZM63.6406 71.3838C63.6406 72.5094 63.3831 73.4163 62.8682 74.1045C62.3532 74.7926 61.6559 75.1367 60.7764 75.1367C59.8786 75.1367 59.1722 74.8519 58.6572 74.2822V77.8438H57.3926V67.6035H58.5479L58.6094 68.4238C59.1243 67.7858 59.8398 67.4668 60.7559 67.4668C61.6445 67.4668 62.3464 67.8018 62.8613 68.4717C63.3809 69.1416 63.6406 70.0736 63.6406 71.2676V71.3838ZM62.376 71.2402C62.376 70.4062 62.1982 69.7477 61.8428 69.2646C61.4873 68.7816 60.9997 68.54 60.3799 68.54C59.6143 68.54 59.04 68.8796 58.6572 69.5586V73.0928C59.0355 73.7673 59.6143 74.1045 60.3936 74.1045C60.9997 74.1045 61.4805 73.8652 61.8359 73.3867C62.196 72.9036 62.376 72.1882 62.376 71.2402ZM70.2031 68.6289H67.7217V75H66.457V68.6289H64.0234V67.6035H70.2031V68.6289ZM77.4766 75H76.2119V71.8418H72.8145V75H71.543V67.6035H72.8145V70.8096H76.2119V67.6035H77.4766V75ZM80.8945 70.1533H82.8154C83.654 70.1624 84.3171 70.3812 84.8047 70.8096C85.2923 71.238 85.5361 71.819 85.5361 72.5527C85.5361 73.291 85.2855 73.8835 84.7842 74.3301C84.2829 74.7767 83.6084 75 82.7607 75H79.6299V67.6035H80.8945V70.1533ZM88.1748 75H86.9033V67.6035H88.1748V75ZM80.8945 71.1855V73.9678H82.7744C83.2484 73.9678 83.6152 73.847 83.875 73.6055C84.1348 73.3594 84.2646 73.0244 84.2646 72.6006C84.2646 72.1904 84.137 71.8555 83.8818 71.5957C83.6312 71.3314 83.278 71.1947 82.8223 71.1855H80.8945ZM93.4521 75.1367C92.4495 75.1367 91.6338 74.8086 91.0049 74.1523C90.376 73.4915 90.0615 72.6097 90.0615 71.5068V71.2744C90.0615 70.5407 90.2005 69.8867 90.4785 69.3125C90.7611 68.7337 91.153 68.2826 91.6543 67.959C92.1602 67.6309 92.707 67.4668 93.2949 67.4668C94.2565 67.4668 95.0039 67.7835 95.5371 68.417C96.0703 69.0505 96.3369 69.9574 96.3369 71.1377V71.6641H91.3262C91.3444 72.3932 91.5563 72.9834 91.9619 73.4346C92.3721 73.8812 92.8916 74.1045 93.5205 74.1045C93.9671 74.1045 94.3454 74.0133 94.6553 73.8311C94.9652 73.6488 95.2363 73.4072 95.4688 73.1064L96.2412 73.708C95.6214 74.6605 94.6917 75.1367 93.4521 75.1367ZM93.2949 68.5059C92.7845 68.5059 92.3561 68.6927 92.0098 69.0664C91.6634 69.4355 91.4492 69.9551 91.3672 70.625H95.0723V70.5293C95.0358 69.8867 94.8626 69.39 94.5527 69.0391C94.2428 68.6836 93.8236 68.5059 93.2949 68.5059ZM107.329 75H106.064V68.6494H102.66V75H101.389V67.6035H107.329V75ZM109.024 71.2334C109.024 70.5088 109.166 69.8571 109.448 69.2783C109.735 68.6995 110.132 68.2529 110.638 67.9385C111.148 67.624 111.729 67.4668 112.381 67.4668C113.388 67.4668 114.201 67.8154 114.821 68.5127C115.446 69.21 115.758 70.1374 115.758 71.2949V71.3838C115.758 72.1038 115.619 72.751 115.341 73.3252C115.067 73.8949 114.673 74.3392 114.158 74.6582C113.648 74.9772 113.06 75.1367 112.395 75.1367C111.392 75.1367 110.578 74.7881 109.954 74.0908C109.334 73.3936 109.024 72.4707 109.024 71.3223V71.2334ZM110.296 71.3838C110.296 72.2041 110.485 72.8626 110.863 73.3594C111.246 73.8561 111.757 74.1045 112.395 74.1045C113.037 74.1045 113.548 73.8538 113.926 73.3525C114.304 72.8467 114.493 72.1403 114.493 71.2334C114.493 70.4222 114.299 69.766 113.912 69.2646C113.529 68.7588 113.019 68.5059 112.381 68.5059C111.757 68.5059 111.253 68.7542 110.87 69.251C110.487 69.7477 110.296 70.4587 110.296 71.3838ZM116.79 73.9678L117.228 73.4277C117.72 72.7897 118 71.8327 118.068 70.5566L118.185 67.6035H122.949V73.9678H123.899V77.1738H122.635V75H117.474V77.1738H116.209L116.216 73.9678H116.79ZM118.287 73.9678H121.685V68.7725H119.408L119.333 70.5361C119.256 72.0081 118.907 73.152 118.287 73.9678ZM126.682 67.6035V73.9678H129.389V67.6035H130.653V73.9678H133.354V67.6035H134.625V75H125.41V67.6035H126.682ZM141.406 67.6035H142.671V75H141.406V69.6064L137.995 75H136.73V67.6035H137.995V73.0039L141.406 67.6035ZM150.751 75H149.486V68.6494H146.082V75H144.811V67.6035H150.751V75ZM158.824 75H157.56V71.8418H154.162V75H152.891V67.6035H154.162V70.8096H157.56V67.6035H158.824V75ZM165.646 67.6035H166.911V75H165.646V69.6064L162.235 75H160.971V67.6035H162.235V73.0039L165.646 67.6035ZM171.245 71.8486H170.322V75H169.051V67.6035H170.322V70.7344H171.149L173.638 67.6035H175.169L172.243 71.1582L175.415 75H173.809L171.245 71.8486ZM181.287 67.6035H182.552V75H181.287V69.6064L177.876 75H176.611V67.6035H177.876V73.0039L181.287 67.6035ZM187.72 71.2334C187.72 70.5088 187.861 69.8571 188.144 69.2783C188.431 68.6995 188.827 68.2529 189.333 67.9385C189.843 67.624 190.424 67.4668 191.076 67.4668C192.083 67.4668 192.897 67.8154 193.517 68.5127C194.141 69.21 194.453 70.1374 194.453 71.2949V71.3838C194.453 72.1038 194.314 72.751 194.036 73.3252C193.763 73.8949 193.368 74.3392 192.854 74.6582C192.343 74.9772 191.755 75.1367 191.09 75.1367C190.087 75.1367 189.274 74.7881 188.649 74.0908C188.03 73.3936 187.72 72.4707 187.72 71.3223V71.2334ZM188.991 71.3838C188.991 72.2041 189.18 72.8626 189.559 73.3594C189.941 73.8561 190.452 74.1045 191.09 74.1045C191.732 74.1045 192.243 73.8538 192.621 73.3525C192.999 72.8467 193.188 72.1403 193.188 71.2334C193.188 70.4222 192.995 69.766 192.607 69.2646C192.225 68.7588 191.714 68.5059 191.076 68.5059C190.452 68.5059 189.948 68.7542 189.565 69.251C189.183 69.7477 188.991 70.4587 188.991 71.3838ZM202.089 75H200.824V68.6494H197.42V75H196.148V67.6035H202.089V75ZM209.615 68.6289H207.134V75H205.869V68.6289H203.436V67.6035H209.615V68.6289ZM210.224 71.2334C210.224 70.5088 210.365 69.8571 210.647 69.2783C210.935 68.6995 211.331 68.2529 211.837 67.9385C212.347 67.624 212.928 67.4668 213.58 67.4668C214.587 67.4668 215.401 67.8154 216.021 68.5127C216.645 69.21 216.957 70.1374 216.957 71.2949V71.3838C216.957 72.1038 216.818 72.751 216.54 73.3252C216.267 73.8949 215.872 74.3392 215.357 74.6582C214.847 74.9772 214.259 75.1367 213.594 75.1367C212.591 75.1367 211.778 74.7881 211.153 74.0908C210.534 73.3936 210.224 72.4707 210.224 71.3223V71.2334ZM211.495 71.3838C211.495 72.2041 211.684 72.8626 212.062 73.3594C212.445 73.8561 212.956 74.1045 213.594 74.1045C214.236 74.1045 214.747 73.8538 215.125 73.3525C215.503 72.8467 215.692 72.1403 215.692 71.2334C215.692 70.4222 215.499 69.766 215.111 69.2646C214.729 68.7588 214.218 68.5059 213.58 68.5059C212.956 68.5059 212.452 68.7542 212.069 69.251C211.687 69.7477 211.495 70.4587 211.495 71.3838ZM222.802 73.3252L225.317 67.6035H226.896V75H225.632V69.6201L223.239 75H222.364L219.924 69.5039V75H218.659V67.6035H220.3L222.802 73.3252Z"
          fill="white"></path>
    <path opacity="0.7"
          d="M40.2715 109.187H42.2539V110.041H40.2715V112.287H39.3633V110.041H37.3809V109.187H39.3633V107.111H40.2715V109.187ZM47.8545 106.398L44.9102 113H43.9629L46.8975 106.633H43.0498V105.891H47.8545V106.398ZM51.4189 110.114C51.4189 109.379 51.5166 108.672 51.7119 107.995C51.9105 107.318 52.2051 106.703 52.5957 106.149C52.9863 105.596 53.3916 105.205 53.8115 104.978L53.9971 105.573C53.5218 105.938 53.1312 106.494 52.8252 107.243C52.5225 107.992 52.3564 108.83 52.3271 109.758L52.3223 110.173C52.3223 111.429 52.5518 112.52 53.0107 113.444C53.2874 113.998 53.6162 114.431 53.9971 114.743L53.8115 115.295C53.3786 115.054 52.9652 114.65 52.5713 114.084C51.8031 112.977 51.4189 111.654 51.4189 110.114ZM58.2402 109.875C58.0514 110.1 57.8252 110.28 57.5615 110.417C57.3011 110.554 57.0146 110.622 56.7021 110.622C56.292 110.622 55.9339 110.521 55.6279 110.319C55.3252 110.118 55.0908 109.834 54.9248 109.47C54.7588 109.102 54.6758 108.697 54.6758 108.254C54.6758 107.779 54.7653 107.351 54.9443 106.97C55.1266 106.589 55.3838 106.298 55.7158 106.096C56.0479 105.894 56.4352 105.793 56.8779 105.793C57.5811 105.793 58.1344 106.057 58.5381 106.584C58.945 107.108 59.1484 107.824 59.1484 108.732V108.996C59.1484 110.38 58.875 111.39 58.3281 112.028C57.7812 112.663 56.9561 112.989 55.8525 113.005H55.6768V112.243H55.8672C56.6126 112.23 57.1855 112.036 57.5859 111.662C57.9863 111.285 58.2044 110.689 58.2402 109.875ZM56.8486 109.875C57.1514 109.875 57.4297 109.782 57.6836 109.597C57.9408 109.411 58.1279 109.182 58.2451 108.908V108.547C58.2451 107.954 58.1165 107.473 57.8594 107.102C57.6022 106.73 57.2767 106.545 56.8828 106.545C56.4857 106.545 56.1667 106.698 55.9258 107.004C55.6849 107.307 55.5645 107.707 55.5645 108.205C55.5645 108.69 55.68 109.09 55.9111 109.406C56.1455 109.719 56.458 109.875 56.8486 109.875ZM65.0518 113H60.3936V112.351L62.8545 109.616C63.2191 109.203 63.4697 108.868 63.6064 108.61C63.7464 108.35 63.8164 108.081 63.8164 107.805C63.8164 107.434 63.7041 107.129 63.4795 106.892C63.2549 106.654 62.9554 106.535 62.5811 106.535C62.1318 106.535 61.7819 106.664 61.5312 106.921C61.2839 107.175 61.1602 107.53 61.1602 107.985H60.2568C60.2568 107.331 60.4668 106.802 60.8867 106.398C61.3099 105.995 61.8747 105.793 62.5811 105.793C63.2419 105.793 63.7643 105.967 64.1484 106.315C64.5326 106.66 64.7246 107.121 64.7246 107.697C64.7246 108.397 64.2786 109.23 63.3867 110.197L61.4824 112.263H65.0518V113ZM66.4238 109.436L66.7852 105.891H70.4277V106.726H67.5518L67.3369 108.664C67.6852 108.459 68.0807 108.356 68.5234 108.356C69.1712 108.356 69.6855 108.571 70.0664 109.001C70.4473 109.427 70.6377 110.005 70.6377 110.734C70.6377 111.467 70.4391 112.045 70.042 112.468C69.6481 112.888 69.0964 113.098 68.3867 113.098C67.7585 113.098 67.2458 112.924 66.8486 112.575C66.4515 112.227 66.2253 111.745 66.1699 111.13H67.0244C67.0798 111.537 67.2246 111.844 67.459 112.053C67.6934 112.258 68.0026 112.36 68.3867 112.36C68.8066 112.36 69.1354 112.217 69.373 111.931C69.6139 111.644 69.7344 111.249 69.7344 110.744C69.7344 110.269 69.6042 109.888 69.3438 109.602C69.0866 109.312 68.7432 109.167 68.3135 109.167C67.9196 109.167 67.6104 109.253 67.3857 109.426L67.1465 109.621L66.4238 109.436ZM73.8018 110.163C73.8018 110.889 73.7057 111.586 73.5137 112.253C73.3249 112.917 73.0335 113.531 72.6396 114.094C72.249 114.657 71.8389 115.057 71.4092 115.295L71.2188 114.743C71.7201 114.359 72.1221 113.763 72.4248 112.956C72.7308 112.146 72.887 111.247 72.8936 110.261V110.104C72.8936 109.421 72.8219 108.786 72.6787 108.2C72.5355 107.611 72.3353 107.084 72.0781 106.618C71.8242 106.153 71.5378 105.79 71.2188 105.529L71.4092 104.978C71.8389 105.215 72.2474 105.612 72.6348 106.169C73.0254 106.726 73.3167 107.339 73.5088 108.01C73.7041 108.68 73.8018 109.398 73.8018 110.163ZM82.1709 106.398L79.2266 113H78.2793L81.2139 106.633H77.3662V105.891H82.1709V106.398ZM87.6543 109.968C87.6543 111.026 87.4736 111.812 87.1123 112.326C86.751 112.84 86.1862 113.098 85.418 113.098C84.6595 113.098 84.098 112.847 83.7334 112.346C83.3688 111.841 83.18 111.089 83.167 110.09V108.884C83.167 107.839 83.3477 107.062 83.709 106.555C84.0703 106.047 84.6367 105.793 85.4082 105.793C86.1732 105.793 86.7363 106.039 87.0977 106.53C87.459 107.019 87.6445 107.774 87.6543 108.796V109.968ZM86.751 108.732C86.751 107.967 86.6436 107.411 86.4287 107.062C86.2139 106.711 85.8737 106.535 85.4082 106.535C84.946 106.535 84.609 106.709 84.3975 107.058C84.1859 107.406 84.0768 107.941 84.0703 108.664V110.109C84.0703 110.878 84.181 111.446 84.4023 111.813C84.627 112.178 84.9655 112.36 85.418 112.36C85.8639 112.36 86.1943 112.188 86.4092 111.843C86.6273 111.498 86.7412 110.954 86.751 110.212V108.732ZM93.2695 109.968C93.2695 111.026 93.0889 111.812 92.7275 112.326C92.3662 112.84 91.8014 113.098 91.0332 113.098C90.2747 113.098 89.7132 112.847 89.3486 112.346C88.984 111.841 88.7952 111.089 88.7822 110.09V108.884C88.7822 107.839 88.9629 107.062 89.3242 106.555C89.6855 106.047 90.252 105.793 91.0234 105.793C91.7884 105.793 92.3516 106.039 92.7129 106.53C93.0742 107.019 93.2598 107.774 93.2695 108.796V109.968ZM92.3662 108.732C92.3662 107.967 92.2588 107.411 92.0439 107.062C91.8291 106.711 91.4889 106.535 91.0234 106.535C90.5612 106.535 90.2243 106.709 90.0127 107.058C89.8011 107.406 89.6921 107.941 89.6855 108.664V110.109C89.6855 110.878 89.7962 111.446 90.0176 111.813C90.2422 112.178 90.5807 112.36 91.0332 112.36C91.4792 112.36 91.8096 112.188 92.0244 111.843C92.2425 111.498 92.3564 110.954 92.3662 110.212V108.732ZM96.3994 110.349H94.0166V109.611H96.3994V110.349ZM100.159 113H99.251V106.979L97.4297 107.648V106.828L100.018 105.856H100.159V113ZM107.396 106.398L104.451 113H103.504L106.438 106.633H102.591V105.891H107.396V106.398ZM110.394 110.349H108.011V109.611H110.394V110.349ZM114.729 105.886V106.652H114.563C113.86 106.665 113.3 106.874 112.884 107.277C112.467 107.681 112.226 108.249 112.161 108.981C112.535 108.552 113.047 108.337 113.694 108.337C114.313 108.337 114.806 108.555 115.174 108.991C115.545 109.427 115.73 109.991 115.73 110.681C115.73 111.413 115.53 111.999 115.13 112.438C114.733 112.878 114.199 113.098 113.528 113.098C112.848 113.098 112.296 112.837 111.873 112.316C111.45 111.792 111.238 111.118 111.238 110.295V109.948C111.238 108.64 111.517 107.64 112.073 106.95C112.633 106.257 113.465 105.902 114.568 105.886H114.729ZM113.543 109.089C113.234 109.089 112.949 109.182 112.688 109.367C112.428 109.553 112.247 109.785 112.146 110.065V110.397C112.146 110.983 112.278 111.455 112.542 111.813C112.806 112.172 113.134 112.351 113.528 112.351C113.935 112.351 114.254 112.201 114.485 111.901C114.72 111.602 114.837 111.21 114.837 110.725C114.837 110.236 114.718 109.842 114.48 109.543C114.246 109.24 113.934 109.089 113.543 109.089ZM121.458 113H116.8V112.351L119.261 109.616C119.625 109.203 119.876 108.868 120.013 108.61C120.153 108.35 120.223 108.081 120.223 107.805C120.223 107.434 120.11 107.129 119.886 106.892C119.661 106.654 119.362 106.535 118.987 106.535C118.538 106.535 118.188 106.664 117.938 106.921C117.69 107.175 117.566 107.53 117.566 107.985H116.663C116.663 107.331 116.873 106.802 117.293 106.398C117.716 105.995 118.281 105.793 118.987 105.793C119.648 105.793 120.171 105.967 120.555 106.315C120.939 106.66 121.131 107.121 121.131 107.697C121.131 108.397 120.685 109.23 119.793 110.197L117.889 112.263H121.458V113Z"
          fill="white" fill-opacity="0.8"></path>
    <path d="M160.665 113H159.762V107.717H160.665V113ZM159.688 106.315C159.688 106.169 159.732 106.045 159.82 105.944C159.911 105.843 160.045 105.793 160.221 105.793C160.396 105.793 160.53 105.843 160.621 105.944C160.712 106.045 160.758 106.169 160.758 106.315C160.758 106.462 160.712 106.584 160.621 106.682C160.53 106.779 160.396 106.828 160.221 106.828C160.045 106.828 159.911 106.779 159.82 106.682C159.732 106.584 159.688 106.462 159.688 106.315ZM162.97 107.717L162.999 108.381C163.403 107.873 163.93 107.619 164.581 107.619C165.698 107.619 166.261 108.249 166.271 109.509V113H165.367V109.504C165.364 109.123 165.276 108.841 165.104 108.659C164.934 108.477 164.669 108.386 164.308 108.386C164.015 108.386 163.757 108.464 163.536 108.62C163.315 108.776 163.142 108.981 163.019 109.235V113H162.115V107.717H162.97ZM168.077 113V108.415H167.242V107.717H168.077V107.175C168.077 106.608 168.229 106.171 168.531 105.861C168.834 105.552 169.262 105.397 169.815 105.397C170.024 105.397 170.23 105.425 170.436 105.48L170.387 106.213C170.234 106.184 170.071 106.169 169.898 106.169C169.605 106.169 169.379 106.255 169.22 106.428C169.06 106.597 168.98 106.841 168.98 107.16V107.717H170.108V108.415H168.98V113H168.077ZM170.87 110.31C170.87 109.792 170.971 109.326 171.173 108.913C171.378 108.5 171.661 108.181 172.022 107.956C172.387 107.731 172.802 107.619 173.268 107.619C173.987 107.619 174.568 107.868 175.011 108.366C175.457 108.864 175.68 109.527 175.68 110.354V110.417C175.68 110.931 175.58 111.394 175.382 111.804C175.187 112.211 174.905 112.528 174.537 112.756C174.173 112.984 173.753 113.098 173.277 113.098C172.561 113.098 171.98 112.849 171.534 112.351C171.091 111.853 170.87 111.193 170.87 110.373V110.31ZM171.778 110.417C171.778 111.003 171.913 111.473 172.184 111.828C172.457 112.183 172.822 112.36 173.277 112.36C173.736 112.36 174.101 112.181 174.371 111.823C174.641 111.462 174.776 110.957 174.776 110.31C174.776 109.73 174.638 109.261 174.361 108.903C174.088 108.542 173.723 108.361 173.268 108.361C172.822 108.361 172.462 108.539 172.188 108.894C171.915 109.248 171.778 109.756 171.778 110.417ZM184.615 110.549C184.576 111.337 184.381 111.958 184.029 112.414C183.678 112.87 183.207 113.098 182.618 113.098C182.009 113.098 181.619 112.824 181.446 112.277C181.271 112.554 181.069 112.761 180.841 112.897C180.616 113.031 180.383 113.098 180.143 113.098C179.68 113.098 179.33 112.909 179.093 112.531C178.855 112.154 178.767 111.631 178.829 110.964C178.878 110.427 179 109.948 179.195 109.528C179.394 109.105 179.648 108.773 179.957 108.532C180.27 108.291 180.597 108.171 180.938 108.171C181.202 108.171 181.438 108.207 181.646 108.278C181.855 108.347 182.089 108.483 182.35 108.688L182.096 111.394C182.034 112.146 182.242 112.521 182.721 112.521C183.089 112.521 183.386 112.339 183.614 111.975C183.842 111.61 183.966 111.135 183.985 110.549C184.047 109.283 183.811 108.317 183.277 107.653C182.747 106.989 181.938 106.657 180.851 106.657C180.196 106.657 179.615 106.82 179.107 107.146C178.6 107.468 178.199 107.935 177.906 108.547C177.613 109.159 177.449 109.865 177.413 110.666C177.374 111.473 177.472 112.175 177.706 112.771C177.94 113.363 178.297 113.815 178.775 114.128C179.257 114.444 179.838 114.602 180.519 114.602C180.812 114.602 181.104 114.566 181.397 114.494C181.694 114.423 181.939 114.33 182.135 114.216L182.315 114.777C182.114 114.904 181.845 115.008 181.51 115.09C181.178 115.171 180.841 115.212 180.499 115.212C179.685 115.212 178.985 115.028 178.399 114.66C177.813 114.296 177.374 113.768 177.081 113.078C176.791 112.391 176.666 111.587 176.705 110.666C176.744 109.771 176.944 108.967 177.306 108.254C177.667 107.538 178.157 106.986 178.775 106.599C179.394 106.208 180.092 106.013 180.87 106.013C181.681 106.013 182.376 106.195 182.955 106.56C183.535 106.924 183.966 107.45 184.249 108.137C184.532 108.824 184.654 109.628 184.615 110.549ZM179.605 110.964C179.56 111.426 179.602 111.781 179.732 112.028C179.866 112.276 180.076 112.399 180.362 112.399C180.558 112.399 180.745 112.316 180.924 112.15C181.106 111.984 181.256 111.747 181.373 111.438L181.378 111.394L181.603 108.938C181.42 108.843 181.225 108.796 181.017 108.796C180.636 108.796 180.32 108.99 180.069 109.377C179.822 109.764 179.667 110.293 179.605 110.964ZM190.26 110.417C190.26 111.221 190.076 111.869 189.708 112.36C189.34 112.852 188.842 113.098 188.214 113.098C187.573 113.098 187.068 112.894 186.7 112.487V115.031H185.797V107.717H186.622L186.666 108.303C187.034 107.847 187.545 107.619 188.199 107.619C188.834 107.619 189.335 107.858 189.703 108.337C190.074 108.815 190.26 109.481 190.26 110.334V110.417ZM189.356 110.314C189.356 109.719 189.229 109.248 188.976 108.903C188.722 108.558 188.373 108.386 187.931 108.386C187.384 108.386 186.974 108.628 186.7 109.113V111.638C186.97 112.119 187.384 112.36 187.94 112.36C188.373 112.36 188.717 112.189 188.971 111.848C189.228 111.503 189.356 110.992 189.356 110.314ZM191.173 110.31C191.173 109.792 191.274 109.326 191.476 108.913C191.681 108.5 191.964 108.181 192.325 107.956C192.69 107.731 193.105 107.619 193.57 107.619C194.29 107.619 194.871 107.868 195.313 108.366C195.759 108.864 195.982 109.527 195.982 110.354V110.417C195.982 110.931 195.883 111.394 195.685 111.804C195.489 112.211 195.208 112.528 194.84 112.756C194.475 112.984 194.055 113.098 193.58 113.098C192.864 113.098 192.283 112.849 191.837 112.351C191.394 111.853 191.173 111.193 191.173 110.373V110.31ZM192.081 110.417C192.081 111.003 192.216 111.473 192.486 111.828C192.76 112.183 193.124 112.36 193.58 112.36C194.039 112.36 194.404 112.181 194.674 111.823C194.944 111.462 195.079 110.957 195.079 110.31C195.079 109.73 194.941 109.261 194.664 108.903C194.391 108.542 194.026 108.361 193.57 108.361C193.124 108.361 192.765 108.539 192.491 108.894C192.218 109.248 192.081 109.756 192.081 110.417ZM196.896 110.314C196.896 109.504 197.088 108.853 197.472 108.361C197.856 107.867 198.359 107.619 198.98 107.619C199.599 107.619 200.089 107.831 200.45 108.254V105.5H201.354V113H200.523L200.479 112.434C200.118 112.876 199.615 113.098 198.971 113.098C198.359 113.098 197.859 112.847 197.472 112.346C197.088 111.844 196.896 111.19 196.896 110.383V110.314ZM197.799 110.417C197.799 111.016 197.923 111.485 198.17 111.823C198.417 112.162 198.759 112.331 199.195 112.331C199.768 112.331 200.187 112.074 200.45 111.56V109.133C200.18 108.635 199.765 108.386 199.205 108.386C198.762 108.386 198.417 108.557 198.17 108.898C197.923 109.24 197.799 109.746 197.799 110.417ZM205.836 111.599C205.836 111.354 205.743 111.166 205.558 111.032C205.375 110.896 205.055 110.778 204.596 110.681C204.14 110.583 203.777 110.466 203.507 110.329C203.24 110.192 203.041 110.03 202.911 109.841C202.784 109.652 202.721 109.427 202.721 109.167C202.721 108.734 202.903 108.368 203.268 108.068C203.635 107.769 204.104 107.619 204.674 107.619C205.273 107.619 205.758 107.774 206.129 108.083C206.503 108.392 206.69 108.788 206.69 109.27H205.782C205.782 109.022 205.676 108.809 205.465 108.63C205.257 108.451 204.993 108.361 204.674 108.361C204.345 108.361 204.088 108.433 203.902 108.576C203.717 108.719 203.624 108.907 203.624 109.138C203.624 109.356 203.71 109.52 203.883 109.631C204.055 109.742 204.366 109.847 204.815 109.948C205.268 110.049 205.634 110.17 205.914 110.31C206.194 110.45 206.401 110.619 206.534 110.817C206.671 111.013 206.739 111.252 206.739 111.535C206.739 112.007 206.55 112.386 206.173 112.673C205.795 112.956 205.305 113.098 204.703 113.098C204.28 113.098 203.906 113.023 203.58 112.873C203.255 112.723 202.999 112.515 202.813 112.248C202.631 111.978 202.54 111.687 202.54 111.374H203.443C203.46 111.677 203.58 111.918 203.805 112.097C204.033 112.272 204.332 112.36 204.703 112.36C205.045 112.36 205.318 112.292 205.523 112.155C205.732 112.015 205.836 111.83 205.836 111.599ZM208.819 108.356C209.22 107.865 209.741 107.619 210.382 107.619C211.498 107.619 212.062 108.249 212.071 109.509V113H211.168V109.504C211.165 109.123 211.077 108.841 210.904 108.659C210.735 108.477 210.47 108.386 210.108 108.386C209.815 108.386 209.558 108.464 209.337 108.62C209.116 108.776 208.943 108.981 208.819 109.235V113H207.916V105.5H208.819V108.356ZM214.405 113H213.502V107.717H214.405V113ZM213.429 106.315C213.429 106.169 213.473 106.045 213.561 105.944C213.652 105.843 213.785 105.793 213.961 105.793C214.137 105.793 214.27 105.843 214.361 105.944C214.452 106.045 214.498 106.169 214.498 106.315C214.498 106.462 214.452 106.584 214.361 106.682C214.27 106.779 214.137 106.828 213.961 106.828C213.785 106.828 213.652 106.779 213.561 106.682C213.473 106.584 213.429 106.462 213.429 106.315ZM220.318 110.417C220.318 111.221 220.134 111.869 219.767 112.36C219.399 112.852 218.901 113.098 218.272 113.098C217.631 113.098 217.127 112.894 216.759 112.487V115.031H215.855V107.717H216.681L216.725 108.303C217.092 107.847 217.604 107.619 218.258 107.619C218.893 107.619 219.394 107.858 219.762 108.337C220.133 108.815 220.318 109.481 220.318 110.334V110.417ZM219.415 110.314C219.415 109.719 219.288 109.248 219.034 108.903C218.78 108.558 218.432 108.386 217.989 108.386C217.442 108.386 217.032 108.628 216.759 109.113V111.638C217.029 112.119 217.442 112.36 217.999 112.36C218.432 112.36 218.775 112.189 219.029 111.848C219.286 111.503 219.415 110.992 219.415 110.314ZM222.325 107.717L222.354 108.381C222.758 107.873 223.285 107.619 223.937 107.619C225.053 107.619 225.616 108.249 225.626 109.509V113H224.723V109.504C224.719 109.123 224.632 108.841 224.459 108.659C224.29 108.477 224.024 108.386 223.663 108.386C223.37 108.386 223.113 108.464 222.892 108.62C222.67 108.776 222.498 108.981 222.374 109.235V113H221.471V107.717H222.325ZM227.97 113H227.066V107.717H227.97V113ZM226.993 106.315C226.993 106.169 227.037 106.045 227.125 105.944C227.216 105.843 227.35 105.793 227.525 105.793C227.701 105.793 227.835 105.843 227.926 105.944C228.017 106.045 228.062 106.169 228.062 106.315C228.062 106.462 228.017 106.584 227.926 106.682C227.835 106.779 227.701 106.828 227.525 106.828C227.35 106.828 227.216 106.779 227.125 106.682C227.037 106.584 226.993 106.462 226.993 106.315ZM230.895 110.554L230.328 111.145V113H229.425V105.5H230.328V110.036L230.812 109.455L232.457 107.717H233.556L231.5 109.924L233.795 113H232.735L230.895 110.554ZM234.249 110.31C234.249 109.792 234.35 109.326 234.552 108.913C234.757 108.5 235.04 108.181 235.401 107.956C235.766 107.731 236.181 107.619 236.646 107.619C237.366 107.619 237.947 107.868 238.39 108.366C238.836 108.864 239.059 109.527 239.059 110.354V110.417C239.059 110.931 238.959 111.394 238.761 111.804C238.565 112.211 238.284 112.528 237.916 112.756C237.551 112.984 237.132 113.098 236.656 113.098C235.94 113.098 235.359 112.849 234.913 112.351C234.47 111.853 234.249 111.193 234.249 110.373V110.31ZM235.157 110.417C235.157 111.003 235.292 111.473 235.562 111.828C235.836 112.183 236.201 112.36 236.656 112.36C237.115 112.36 237.48 112.181 237.75 111.823C238.02 111.462 238.155 110.957 238.155 110.31C238.155 109.73 238.017 109.261 237.74 108.903C237.467 108.542 237.102 108.361 236.646 108.361C236.201 108.361 235.841 108.539 235.567 108.894C235.294 109.248 235.157 109.756 235.157 110.417ZM244.654 110.417C244.654 111.221 244.47 111.869 244.103 112.36C243.735 112.852 243.237 113.098 242.608 113.098C241.967 113.098 241.463 112.894 241.095 112.487V115.031H240.191V107.717H241.017L241.061 108.303C241.428 107.847 241.939 107.619 242.594 107.619C243.229 107.619 243.73 107.858 244.098 108.337C244.469 108.815 244.654 109.481 244.654 110.334V110.417ZM243.751 110.314C243.751 109.719 243.624 109.248 243.37 108.903C243.116 108.558 242.768 108.386 242.325 108.386C241.778 108.386 241.368 108.628 241.095 109.113V111.638C241.365 112.119 241.778 112.36 242.335 112.36C242.768 112.36 243.111 112.189 243.365 111.848C243.622 111.503 243.751 110.992 243.751 110.314ZM247.032 106.438V107.717H248.019V108.415H247.032V111.691C247.032 111.903 247.076 112.062 247.164 112.17C247.252 112.274 247.402 112.326 247.613 112.326C247.717 112.326 247.861 112.307 248.043 112.268V113C247.805 113.065 247.574 113.098 247.35 113.098C246.946 113.098 246.642 112.976 246.437 112.731C246.231 112.487 246.129 112.141 246.129 111.691V108.415H245.167V107.717H246.129V106.438H247.032ZM249.098 112.526C249.098 112.37 249.143 112.24 249.234 112.136C249.329 112.032 249.469 111.979 249.654 111.979C249.84 111.979 249.98 112.032 250.074 112.136C250.172 112.24 250.221 112.37 250.221 112.526C250.221 112.676 250.172 112.801 250.074 112.902C249.98 113.003 249.84 113.054 249.654 113.054C249.469 113.054 249.329 113.003 249.234 112.902C249.143 112.801 249.098 112.676 249.098 112.526ZM254.269 108.527C254.132 108.505 253.984 108.493 253.824 108.493C253.232 108.493 252.83 108.745 252.618 109.25V113H251.715V107.717H252.594L252.608 108.327C252.905 107.855 253.325 107.619 253.868 107.619C254.044 107.619 254.177 107.642 254.269 107.688V108.527ZM258.365 112.478C258.014 112.891 257.498 113.098 256.817 113.098C256.254 113.098 255.825 112.935 255.528 112.609C255.235 112.281 255.087 111.796 255.084 111.154V107.717H255.987V111.13C255.987 111.931 256.313 112.331 256.964 112.331C257.654 112.331 258.113 112.074 258.341 111.56V107.717H259.244V113H258.385L258.365 112.478Z"
          fill="white" fill-opacity="0.7"></path>
    <path d="M152.944 107H143L147.972 110.748L153 107.011C152.982 107.006 152.963 107.002 152.944 107Z" fill="white"
          fill-opacity="0.7"></path>
    <path d="M148.225 111.472C148.094 111.577 147.904 111.577 147.773 111.472L143 107.618V113.65C143 113.843 143.16 114 143.357 114H152.643C152.84 114 153 113.843 153 113.65V107.67L148.225 111.472Z"
          fill="white" fill-opacity="0.7"></path>
    <path d="M29.7378 112.339L28.3393 110.943C27.8399 110.445 26.9908 110.644 26.791 111.292C26.6412 111.741 26.1417 111.99 25.6922 111.89C24.6933 111.641 23.3448 110.345 23.0951 109.299C22.9452 108.85 23.2449 108.352 23.6944 108.202C24.3437 108.003 24.5435 107.156 24.044 106.657L22.6456 105.262C22.246 104.913 21.6466 104.913 21.297 105.262L20.3481 106.209C19.3991 107.205 20.448 109.847 22.7954 112.189C25.1428 114.532 27.7899 115.628 28.7888 114.632L29.7378 113.685C30.0874 113.286 30.0874 112.688 29.7378 112.339Z"
          fill="white" fill-opacity="0.7"></path>
    <rect x="20.5" y="137.5" width="249" height="39" rx="7.5" stroke="white"></rect>
    <path d="M105.553 157.01C105.553 157.846 105.412 158.576 105.131 159.201C104.85 159.822 104.451 160.297 103.936 160.625C103.42 160.953 102.818 161.117 102.131 161.117C101.459 161.117 100.863 160.953 100.344 160.625C99.8242 160.293 99.4199 159.822 99.1309 159.213C98.8457 158.6 98.6992 157.891 98.6914 157.086V156.471C98.6914 155.65 98.834 154.926 99.1191 154.297C99.4043 153.668 99.8066 153.188 100.326 152.855C100.85 152.52 101.447 152.352 102.119 152.352C102.803 152.352 103.404 152.518 103.924 152.85C104.447 153.178 104.85 153.656 105.131 154.285C105.412 154.91 105.553 155.639 105.553 156.471V157.01ZM104.434 156.459C104.434 155.447 104.23 154.672 103.824 154.133C103.418 153.59 102.85 153.318 102.119 153.318C101.408 153.318 100.848 153.59 100.438 154.133C100.031 154.672 99.8223 155.422 99.8105 156.383V157.01C99.8105 157.99 100.016 158.762 100.426 159.324C100.84 159.883 101.408 160.162 102.131 160.162C102.857 160.162 103.42 159.898 103.818 159.371C104.217 158.84 104.422 158.08 104.434 157.092V156.459ZM109.613 160.232C110 160.232 110.338 160.115 110.627 159.881C110.916 159.646 111.076 159.354 111.107 159.002H112.133C112.113 159.365 111.988 159.711 111.758 160.039C111.527 160.367 111.219 160.629 110.832 160.824C110.449 161.02 110.043 161.117 109.613 161.117C108.75 161.117 108.062 160.83 107.551 160.256C107.043 159.678 106.789 158.889 106.789 157.889V157.707C106.789 157.09 106.902 156.541 107.129 156.061C107.355 155.58 107.68 155.207 108.102 154.941C108.527 154.676 109.029 154.543 109.607 154.543C110.318 154.543 110.908 154.756 111.377 155.182C111.85 155.607 112.102 156.16 112.133 156.84H111.107C111.076 156.43 110.92 156.094 110.639 155.832C110.361 155.566 110.018 155.434 109.607 155.434C109.057 155.434 108.629 155.633 108.324 156.031C108.023 156.426 107.873 156.998 107.873 157.748V157.953C107.873 158.684 108.023 159.246 108.324 159.641C108.625 160.035 109.055 160.232 109.613 160.232ZM118.062 155.539H115.936V161H114.852V155.539H112.766V154.66H118.062V155.539ZM122.938 161C122.875 160.875 122.824 160.652 122.785 160.332C122.281 160.855 121.68 161.117 120.98 161.117C120.355 161.117 119.842 160.941 119.439 160.59C119.041 160.234 118.842 159.785 118.842 159.242C118.842 158.582 119.092 158.07 119.592 157.707C120.096 157.34 120.803 157.156 121.713 157.156H122.768V156.658C122.768 156.279 122.654 155.979 122.428 155.756C122.201 155.529 121.867 155.416 121.426 155.416C121.039 155.416 120.715 155.514 120.453 155.709C120.191 155.904 120.061 156.141 120.061 156.418H118.971C118.971 156.102 119.082 155.797 119.305 155.504C119.531 155.207 119.836 154.973 120.219 154.801C120.605 154.629 121.029 154.543 121.49 154.543C122.221 154.543 122.793 154.727 123.207 155.094C123.621 155.457 123.836 155.959 123.852 156.6V159.518C123.852 160.1 123.926 160.562 124.074 160.906V161H122.938ZM121.139 160.174C121.479 160.174 121.801 160.086 122.105 159.91C122.41 159.734 122.631 159.506 122.768 159.225V157.924H121.918C120.59 157.924 119.926 158.312 119.926 159.09C119.926 159.43 120.039 159.695 120.266 159.887C120.492 160.078 120.783 160.174 121.139 160.174ZM125.65 161V154.66H128.123C128.967 154.66 129.613 154.809 130.062 155.105C130.516 155.398 130.742 155.83 130.742 156.4C130.742 156.693 130.654 156.959 130.479 157.197C130.303 157.432 130.043 157.611 129.699 157.736C130.082 157.826 130.389 158.002 130.619 158.264C130.854 158.525 130.971 158.838 130.971 159.201C130.971 159.783 130.756 160.229 130.326 160.537C129.9 160.846 129.297 161 128.516 161H125.65ZM126.734 158.217V160.127H128.527C128.98 160.127 129.318 160.043 129.541 159.875C129.768 159.707 129.881 159.471 129.881 159.166C129.881 158.533 129.416 158.217 128.486 158.217H126.734ZM126.734 157.35H128.135C129.15 157.35 129.658 157.053 129.658 156.459C129.658 155.865 129.178 155.559 128.217 155.539H126.734V157.35ZM136.508 154.66H137.592V161H136.508V156.377L133.584 161H132.5V154.66H133.584V159.289L136.508 154.66ZM144.043 155.539H141.916V161H140.832V155.539H138.746V154.66H144.043V155.539ZM146.281 156.846H147.928C148.646 156.854 149.215 157.041 149.633 157.408C150.051 157.775 150.26 158.273 150.26 158.902C150.26 159.535 150.045 160.043 149.615 160.426C149.186 160.809 148.607 161 147.881 161H145.197V154.66H146.281V156.846ZM146.281 157.73V160.115H147.893C148.299 160.115 148.613 160.012 148.836 159.805C149.059 159.594 149.17 159.307 149.17 158.943C149.17 158.592 149.061 158.305 148.842 158.082C148.627 157.855 148.324 157.738 147.934 157.73H146.281ZM158.076 156.395C158.076 156.098 157.963 155.863 157.736 155.691C157.51 155.516 157.199 155.428 156.805 155.428C156.422 155.428 156.102 155.527 155.844 155.727C155.59 155.926 155.463 156.16 155.463 156.43H154.385C154.385 155.879 154.615 155.428 155.076 155.076C155.537 154.725 156.113 154.549 156.805 154.549C157.547 154.549 158.125 154.709 158.539 155.029C158.953 155.346 159.16 155.799 159.16 156.389C159.16 156.674 159.074 156.936 158.902 157.174C158.73 157.412 158.486 157.602 158.17 157.742C158.908 157.992 159.277 158.484 159.277 159.219C159.277 159.801 159.053 160.262 158.604 160.602C158.154 160.941 157.555 161.111 156.805 161.111C156.074 161.111 155.471 160.934 154.994 160.578C154.521 160.219 154.285 159.734 154.285 159.125H155.363C155.363 159.434 155.5 159.699 155.773 159.922C156.051 160.141 156.395 160.25 156.805 160.25C157.219 160.25 157.553 160.154 157.807 159.963C158.061 159.771 158.188 159.523 158.188 159.219C158.188 158.863 158.08 158.609 157.865 158.457C157.654 158.301 157.324 158.223 156.875 158.223H155.791V157.309H156.969C157.707 157.289 158.076 156.984 158.076 156.395ZM164.598 161C164.535 160.875 164.484 160.652 164.445 160.332C163.941 160.855 163.34 161.117 162.641 161.117C162.016 161.117 161.502 160.941 161.1 160.59C160.701 160.234 160.502 159.785 160.502 159.242C160.502 158.582 160.752 158.07 161.252 157.707C161.756 157.34 162.463 157.156 163.373 157.156H164.428V156.658C164.428 156.279 164.314 155.979 164.088 155.756C163.861 155.529 163.527 155.416 163.086 155.416C162.699 155.416 162.375 155.514 162.113 155.709C161.852 155.904 161.721 156.141 161.721 156.418H160.631C160.631 156.102 160.742 155.797 160.965 155.504C161.191 155.207 161.496 154.973 161.879 154.801C162.266 154.629 162.689 154.543 163.15 154.543C163.881 154.543 164.453 154.727 164.867 155.094C165.281 155.457 165.496 155.959 165.512 156.6V159.518C165.512 160.1 165.586 160.562 165.734 160.906V161H164.598ZM162.799 160.174C163.139 160.174 163.461 160.086 163.766 159.91C164.07 159.734 164.291 159.506 164.428 159.225V157.924H163.578C162.25 157.924 161.586 158.312 161.586 159.09C161.586 159.43 161.699 159.695 161.926 159.887C162.152 160.078 162.443 160.174 162.799 160.174ZM172.057 154.66V161H170.967V158.533H169.332L167.838 161H166.666L168.26 158.369C167.854 158.221 167.541 157.992 167.322 157.684C167.107 157.371 167 157.008 167 156.594C167 156.016 167.217 155.551 167.65 155.199C168.084 154.844 168.664 154.664 169.391 154.66H172.057ZM168.09 156.605C168.09 156.914 168.195 157.164 168.406 157.355C168.617 157.543 168.896 157.639 169.244 157.643H170.967V155.539H169.408C169.006 155.539 168.686 155.639 168.447 155.838C168.209 156.033 168.09 156.289 168.09 156.605ZM173.896 161V154.66H176.369C177.213 154.66 177.859 154.809 178.309 155.105C178.762 155.398 178.988 155.83 178.988 156.4C178.988 156.693 178.9 156.959 178.725 157.197C178.549 157.432 178.289 157.611 177.945 157.736C178.328 157.826 178.635 158.002 178.865 158.264C179.1 158.525 179.217 158.838 179.217 159.201C179.217 159.783 179.002 160.229 178.572 160.537C178.146 160.846 177.543 161 176.762 161H173.896ZM174.98 158.217V160.127H176.773C177.227 160.127 177.564 160.043 177.787 159.875C178.014 159.707 178.127 159.471 178.127 159.166C178.127 158.533 177.662 158.217 176.732 158.217H174.98ZM174.98 157.35H176.381C177.396 157.35 177.904 157.053 177.904 156.459C177.904 155.865 177.424 155.559 176.463 155.539H174.98V157.35ZM182.627 158.299H181.836V161H180.746V154.66H181.836V157.344H182.545L184.678 154.66H185.99L183.482 157.707L186.201 161H184.824L182.627 158.299ZM189.207 159.412L190.684 154.66H191.844L189.295 161.979C188.9 163.033 188.273 163.561 187.414 163.561L187.209 163.543L186.805 163.467V162.588L187.098 162.611C187.465 162.611 187.75 162.537 187.953 162.389C188.16 162.24 188.33 161.969 188.463 161.574L188.703 160.93L186.441 154.66H187.625L189.207 159.412Z"
          fill="white"></path>
    <path d="M0 203H290V243C290 247.418 286.418 251 282 251H8C3.58173 251 0 247.418 0 243V203Z" fill="#003795"></path>
    <path d="M25.0449 228.732C25.0449 228.432 24.9375 228.197 24.7227 228.029C24.5117 227.861 24.1387 227.688 23.6035 227.508C23.0684 227.328 22.6309 227.154 22.291 226.986C21.1855 226.443 20.6328 225.697 20.6328 224.748C20.6328 224.275 20.7695 223.859 21.043 223.5C21.3203 223.137 21.7109 222.855 22.2148 222.656C22.7188 222.453 23.2852 222.352 23.9141 222.352C24.5273 222.352 25.0762 222.461 25.5605 222.68C26.0488 222.898 26.4277 223.211 26.6973 223.617C26.9668 224.02 27.1016 224.48 27.1016 225H25.0508C25.0508 224.652 24.9434 224.383 24.7285 224.191C24.5176 224 24.2305 223.904 23.8672 223.904C23.5 223.904 23.209 223.986 22.9941 224.15C22.7832 224.311 22.6777 224.516 22.6777 224.766C22.6777 224.984 22.7949 225.184 23.0293 225.363C23.2637 225.539 23.6758 225.723 24.2656 225.914C24.8555 226.102 25.3398 226.305 25.7188 226.523C26.6406 227.055 27.1016 227.787 27.1016 228.721C27.1016 229.467 26.8203 230.053 26.2578 230.479C25.6953 230.904 24.9238 231.117 23.9434 231.117C23.252 231.117 22.625 230.994 22.0625 230.748C21.5039 230.498 21.082 230.158 20.7969 229.729C20.5156 229.295 20.375 228.797 20.375 228.234H22.4375C22.4375 228.691 22.5547 229.029 22.7891 229.248C23.0273 229.463 23.4121 229.57 23.9434 229.57C24.2832 229.57 24.5508 229.498 24.7461 229.354C24.9453 229.205 25.0449 228.998 25.0449 228.732ZM31.0566 227.824L30.2129 228.75V231H28.1562V222.469H30.2129V226.23L30.9277 225.146L32.7676 222.469H35.3105L32.4277 226.242L35.3105 231H32.873L31.0566 227.824ZM41.2051 227.602H37.8887V231H35.832V222.469H41.5391V224.057H37.8887V226.02H41.2051V227.602Z"
          fill="white"></path>
    <path d="M95.0176 227.602H91.7012V231H89.6445V222.469H95.3516V224.057H91.7012V226.02H95.0176V227.602ZM99.9277 229.406H97.1094L96.6172 231H94.4199L97.5488 222.469H99.4824L102.635 231H100.426L99.9277 229.406ZM97.6016 227.818H99.4355L98.5156 224.859L97.6016 227.818ZM110.117 229.945C109.801 230.297 109.338 230.58 108.729 230.795C108.119 231.01 107.451 231.117 106.725 231.117C105.607 231.117 104.715 230.775 104.047 230.092C103.379 229.408 103.021 228.457 102.975 227.238L102.969 226.5C102.969 225.66 103.117 224.928 103.414 224.303C103.711 223.674 104.135 223.191 104.686 222.855C105.24 222.516 105.881 222.346 106.607 222.346C107.67 222.346 108.494 222.59 109.08 223.078C109.67 223.562 110.014 224.287 110.111 225.252H108.131C108.061 224.775 107.908 224.436 107.674 224.232C107.439 224.029 107.107 223.928 106.678 223.928C106.162 223.928 105.764 224.146 105.482 224.584C105.201 225.021 105.059 225.646 105.055 226.459V226.975C105.055 227.826 105.199 228.467 105.488 228.896C105.781 229.322 106.24 229.535 106.865 229.535C107.4 229.535 107.799 229.416 108.061 229.178V227.854H106.631V226.441H110.117V229.945Z"
          fill="white"></path>
    <path d="M165.342 224.057H162.781V231H160.725V224.057H158.211V222.469H165.342V224.057ZM168.207 231H166.227V224.66H168.207V231ZM166.109 223.025C166.109 222.744 166.211 222.514 166.414 222.334C166.617 222.154 166.881 222.064 167.205 222.064C167.529 222.064 167.793 222.154 167.996 222.334C168.199 222.514 168.301 222.744 168.301 223.025C168.301 223.307 168.199 223.537 167.996 223.717C167.793 223.896 167.529 223.986 167.205 223.986C166.881 223.986 166.617 223.896 166.414 223.717C166.211 223.537 166.109 223.307 166.109 223.025ZM171.295 224.66L171.359 225.404C171.809 224.83 172.412 224.543 173.17 224.543C173.971 224.543 174.512 224.861 174.793 225.498C175.223 224.861 175.844 224.543 176.656 224.543C177.941 224.543 178.602 225.32 178.637 226.875V231H176.656V226.998C176.656 226.674 176.602 226.438 176.492 226.289C176.383 226.141 176.184 226.066 175.895 226.066C175.504 226.066 175.213 226.24 175.021 226.588L175.027 226.67V231H173.047V227.01C173.047 226.678 172.994 226.438 172.889 226.289C172.783 226.141 172.582 226.066 172.285 226.066C171.906 226.066 171.617 226.24 171.418 226.588V231H169.443V224.66H171.295ZM182.311 228.639L181.754 229.195V231H179.779V221.994H181.754V226.775L181.953 226.512L183.441 224.66H185.809L183.588 227.268L185.955 231H183.693L182.311 228.639ZM189.277 231.117C188.305 231.117 187.518 230.828 186.916 230.25C186.314 229.668 186.014 228.912 186.014 227.982V227.818C186.014 227.17 186.133 226.598 186.371 226.102C186.613 225.605 186.965 225.223 187.426 224.953C187.887 224.68 188.434 224.543 189.066 224.543C189.957 224.543 190.66 224.82 191.176 225.375C191.691 225.926 191.949 226.695 191.949 227.684V228.451H188.023C188.094 228.807 188.248 229.086 188.486 229.289C188.725 229.492 189.033 229.594 189.412 229.594C190.037 229.594 190.525 229.375 190.877 228.938L191.779 230.004C191.533 230.344 191.184 230.615 190.73 230.818C190.281 231.018 189.797 231.117 189.277 231.117ZM189.055 226.066C188.477 226.066 188.133 226.449 188.023 227.215H190.016V227.062C190.023 226.746 189.943 226.502 189.775 226.33C189.607 226.154 189.367 226.066 189.055 226.066ZM194.562 224.66L194.627 225.404C195.064 224.83 195.668 224.543 196.438 224.543C197.098 224.543 197.59 224.74 197.914 225.135C198.242 225.529 198.412 226.123 198.424 226.916V231H196.443V226.998C196.443 226.678 196.379 226.443 196.25 226.295C196.121 226.143 195.887 226.066 195.547 226.066C195.16 226.066 194.873 226.219 194.686 226.523V231H192.711V224.66H194.562Z"
          fill="white"></path>
    <path d="M253.77 231H251.725L248.701 225.691V231H246.645V222.469H248.701L251.719 227.777V222.469H253.77V231ZM259.471 228.732C259.471 228.432 259.363 228.197 259.148 228.029C258.938 227.861 258.564 227.688 258.029 227.508C257.494 227.328 257.057 227.154 256.717 226.986C255.611 226.443 255.059 225.697 255.059 224.748C255.059 224.275 255.195 223.859 255.469 223.5C255.746 223.137 256.137 222.855 256.641 222.656C257.145 222.453 257.711 222.352 258.34 222.352C258.953 222.352 259.502 222.461 259.986 222.68C260.475 222.898 260.854 223.211 261.123 223.617C261.393 224.02 261.527 224.48 261.527 225H259.477C259.477 224.652 259.369 224.383 259.154 224.191C258.943 224 258.656 223.904 258.293 223.904C257.926 223.904 257.635 223.986 257.42 224.15C257.209 224.311 257.104 224.516 257.104 224.766C257.104 224.984 257.221 225.184 257.455 225.363C257.689 225.539 258.102 225.723 258.691 225.914C259.281 226.102 259.766 226.305 260.145 226.523C261.066 227.055 261.527 227.787 261.527 228.721C261.527 229.467 261.246 230.053 260.684 230.479C260.121 230.904 259.35 231.117 258.369 231.117C257.678 231.117 257.051 230.994 256.488 230.748C255.93 230.498 255.508 230.158 255.223 229.729C254.941 229.295 254.801 228.797 254.801 228.234H256.863C256.863 228.691 256.98 229.029 257.215 229.248C257.453 229.463 257.838 229.57 258.369 229.57C258.709 229.57 258.977 229.498 259.172 229.354C259.371 229.205 259.471 228.998 259.471 228.732ZM265.482 227.824L264.639 228.75V231H262.582V222.469H264.639V226.23L265.354 225.146L267.193 222.469H269.736L266.854 226.242L269.736 231H267.299L265.482 227.824Z"
          fill="white"></path>
</svg>

