<svg class="img-responsive mx-auto banner d-none d-sm-none d-xs-block d-md-block d-lg-block" width="728" height="90" viewBox="0 0 728 90" fill="none" xmlns="http://www.w3.org/2000/svg">
    <rect width="728" height="90" rx="8" fill="#091E42"></rect>
    <path d="M0 70H728V82C728 86.4183 724.418 90 720 90H8C3.58172 90 0 86.4183 0 82V70Z" fill="#003795"></path>
    <path d="M238.045 81.7324C238.045 81.4316 237.938 81.1973 237.723 81.0293C237.512 80.8613 237.139 80.6875 236.604 80.5078C236.068 80.3281 235.631 80.1543 235.291 79.9863C234.186 79.4434 233.633 78.6973 233.633 77.748C233.633 77.2754 233.77 76.8594 234.043 76.5C234.32 76.1367 234.711 75.8555 235.215 75.6562C235.719 75.4531 236.285 75.3516 236.914 75.3516C237.527 75.3516 238.076 75.4609 238.561 75.6797C239.049 75.8984 239.428 76.2109 239.697 76.6172C239.967 77.0195 240.102 77.4805 240.102 78H238.051C238.051 77.6523 237.943 77.3828 237.729 77.1914C237.518 77 237.23 76.9043 236.867 76.9043C236.5 76.9043 236.209 76.9863 235.994 77.1504C235.783 77.3105 235.678 77.5156 235.678 77.7656C235.678 77.9844 235.795 78.1836 236.029 78.3633C236.264 78.5391 236.676 78.7227 237.266 78.9141C237.855 79.1016 238.34 79.3047 238.719 79.5234C239.641 80.0547 240.102 80.7871 240.102 81.7207C240.102 82.4668 239.82 83.0527 239.258 83.4785C238.695 83.9043 237.924 84.1172 236.943 84.1172C236.252 84.1172 235.625 83.9941 235.062 83.748C234.504 83.498 234.082 83.1582 233.797 82.7285C233.516 82.2949 233.375 81.7969 233.375 81.2344H235.438C235.438 81.6914 235.555 82.0293 235.789 82.248C236.027 82.4629 236.412 82.5703 236.943 82.5703C237.283 82.5703 237.551 82.498 237.746 82.3535C237.945 82.2051 238.045 81.998 238.045 81.7324ZM244.057 80.8242L243.213 81.75V84H241.156V75.4688H243.213V79.2305L243.928 78.1465L245.768 75.4688H248.311L245.428 79.2422L248.311 84H245.873L244.057 80.8242ZM254.205 80.6016H250.889V84H248.832V75.4688H254.539V77.0566H250.889V79.0195H254.205V80.6016Z" fill="white"></path>
    <path d="M305.018 80.6016H301.701V84H299.645V75.4688H305.352V77.0566H301.701V79.0195H305.018V80.6016ZM309.928 82.4062H307.109L306.617 84H304.42L307.549 75.4688H309.482L312.635 84H310.426L309.928 82.4062ZM307.602 80.8184H309.436L308.516 77.8594L307.602 80.8184ZM320.117 82.9453C319.801 83.2969 319.338 83.5801 318.729 83.7949C318.119 84.0098 317.451 84.1172 316.725 84.1172C315.607 84.1172 314.715 83.7754 314.047 83.0918C313.379 82.4082 313.021 81.457 312.975 80.2383L312.969 79.5C312.969 78.6602 313.117 77.9277 313.414 77.3027C313.711 76.6738 314.135 76.1914 314.686 75.8555C315.24 75.5156 315.881 75.3457 316.607 75.3457C317.67 75.3457 318.494 75.5898 319.08 76.0781C319.67 76.5625 320.014 77.2871 320.111 78.252H318.131C318.061 77.7754 317.908 77.4355 317.674 77.2324C317.439 77.0293 317.107 76.9277 316.678 76.9277C316.162 76.9277 315.764 77.1465 315.482 77.584C315.201 78.0215 315.059 78.6465 315.055 79.459V79.9746C315.055 80.8262 315.199 81.4668 315.488 81.8965C315.781 82.3223 316.24 82.5352 316.865 82.5352C317.4 82.5352 317.799 82.416 318.061 82.1777V80.8535H316.631V79.4414H320.117V82.9453Z" fill="white"></path>
    <path d="M456.77 84H454.725L451.701 78.6914V84H449.645V75.4688H451.701L454.719 80.7773V75.4688H456.77V84ZM462.471 81.7324C462.471 81.4316 462.363 81.1973 462.148 81.0293C461.938 80.8613 461.564 80.6875 461.029 80.5078C460.494 80.3281 460.057 80.1543 459.717 79.9863C458.611 79.4434 458.059 78.6973 458.059 77.748C458.059 77.2754 458.195 76.8594 458.469 76.5C458.746 76.1367 459.137 75.8555 459.641 75.6562C460.145 75.4531 460.711 75.3516 461.34 75.3516C461.953 75.3516 462.502 75.4609 462.986 75.6797C463.475 75.8984 463.854 76.2109 464.123 76.6172C464.393 77.0195 464.527 77.4805 464.527 78H462.477C462.477 77.6523 462.369 77.3828 462.154 77.1914C461.943 77 461.656 76.9043 461.293 76.9043C460.926 76.9043 460.635 76.9863 460.42 77.1504C460.209 77.3105 460.104 77.5156 460.104 77.7656C460.104 77.9844 460.221 78.1836 460.455 78.3633C460.689 78.5391 461.102 78.7227 461.691 78.9141C462.281 79.1016 462.766 79.3047 463.145 79.5234C464.066 80.0547 464.527 80.7871 464.527 81.7207C464.527 82.4668 464.246 83.0527 463.684 83.4785C463.121 83.9043 462.35 84.1172 461.369 84.1172C460.678 84.1172 460.051 83.9941 459.488 83.748C458.93 83.498 458.508 83.1582 458.223 82.7285C457.941 82.2949 457.801 81.7969 457.801 81.2344H459.863C459.863 81.6914 459.98 82.0293 460.215 82.248C460.453 82.4629 460.838 82.5703 461.369 82.5703C461.709 82.5703 461.977 82.498 462.172 82.3535C462.371 82.2051 462.471 81.998 462.471 81.7324ZM468.482 80.8242L467.639 81.75V84H465.582V75.4688H467.639V79.2305L468.354 78.1465L470.193 75.4688H472.736L469.854 79.2422L472.736 84H470.299L468.482 80.8242Z" fill="white"></path>
    <path d="M372.342 77.0566H369.781V84H367.725V77.0566H365.211V75.4688H372.342V77.0566ZM375.207 84H373.227V77.6602H375.207V84ZM373.109 76.0254C373.109 75.7441 373.211 75.5137 373.414 75.334C373.617 75.1543 373.881 75.0645 374.205 75.0645C374.529 75.0645 374.793 75.1543 374.996 75.334C375.199 75.5137 375.301 75.7441 375.301 76.0254C375.301 76.3066 375.199 76.5371 374.996 76.7168C374.793 76.8965 374.529 76.9863 374.205 76.9863C373.881 76.9863 373.617 76.8965 373.414 76.7168C373.211 76.5371 373.109 76.3066 373.109 76.0254ZM378.295 77.6602L378.359 78.4043C378.809 77.8301 379.412 77.543 380.17 77.543C380.971 77.543 381.512 77.8613 381.793 78.498C382.223 77.8613 382.844 77.543 383.656 77.543C384.941 77.543 385.602 78.3203 385.637 79.875V84H383.656V79.998C383.656 79.6738 383.602 79.4375 383.492 79.2891C383.383 79.1406 383.184 79.0664 382.895 79.0664C382.504 79.0664 382.213 79.2402 382.021 79.5879L382.027 79.6699V84H380.047V80.0098C380.047 79.6777 379.994 79.4375 379.889 79.2891C379.783 79.1406 379.582 79.0664 379.285 79.0664C378.906 79.0664 378.617 79.2402 378.418 79.5879V84H376.443V77.6602H378.295ZM389.311 81.6387L388.754 82.1953V84H386.779V74.9941H388.754V79.7754L388.953 79.5117L390.441 77.6602H392.809L390.588 80.2676L392.955 84H390.693L389.311 81.6387ZM396.277 84.1172C395.305 84.1172 394.518 83.8281 393.916 83.25C393.314 82.668 393.014 81.9121 393.014 80.9824V80.8184C393.014 80.1699 393.133 79.5977 393.371 79.1016C393.613 78.6055 393.965 78.2227 394.426 77.9531C394.887 77.6797 395.434 77.543 396.066 77.543C396.957 77.543 397.66 77.8203 398.176 78.375C398.691 78.9258 398.949 79.6953 398.949 80.6836V81.4512H395.023C395.094 81.8066 395.248 82.0859 395.486 82.2891C395.725 82.4922 396.033 82.5938 396.412 82.5938C397.037 82.5938 397.525 82.375 397.877 81.9375L398.779 83.0039C398.533 83.3438 398.184 83.6152 397.73 83.8184C397.281 84.0176 396.797 84.1172 396.277 84.1172ZM396.055 79.0664C395.477 79.0664 395.133 79.4492 395.023 80.2148H397.016V80.0625C397.023 79.7461 396.943 79.502 396.775 79.3301C396.607 79.1543 396.367 79.0664 396.055 79.0664ZM401.562 77.6602L401.627 78.4043C402.064 77.8301 402.668 77.543 403.438 77.543C404.098 77.543 404.59 77.7402 404.914 78.1348C405.242 78.5293 405.412 79.123 405.424 79.916V84H403.443V79.998C403.443 79.6777 403.379 79.4434 403.25 79.2949C403.121 79.1426 402.887 79.0664 402.547 79.0664C402.16 79.0664 401.873 79.2188 401.686 79.5234V84H399.711V77.6602H401.562Z" fill="white"></path>
    <path d="M38.3545 27.6416H31.9531V45H26.8115V27.6416H20.5273V23.6719H38.3545V27.6416ZM53.7646 35.9619H45.6787V41.0449H55.2295V45H40.5371V23.6719H55.2588V27.6416H45.6787V32.1387H53.7646V35.9619ZM74.5801 37.7783C74.5117 39.2627 74.1113 40.5762 73.3789 41.7188C72.6465 42.8516 71.6162 43.7305 70.2881 44.3555C68.9697 44.9805 67.4609 45.293 65.7617 45.293C62.959 45.293 60.752 44.3799 59.1406 42.5537C57.5293 40.7275 56.7236 38.1494 56.7236 34.8193V33.7646C56.7236 31.6748 57.085 29.8486 57.8076 28.2861C58.54 26.7139 59.5898 25.5029 60.957 24.6533C62.3242 23.7939 63.9062 23.3643 65.7031 23.3643C68.291 23.3643 70.3711 24.0479 71.9434 25.415C73.5156 26.7725 74.4092 28.6475 74.624 31.04H69.4971C69.458 29.7412 69.1309 28.8086 68.5156 28.2422C67.9004 27.6758 66.9629 27.3926 65.7031 27.3926C64.4238 27.3926 63.4863 27.8711 62.8906 28.8281C62.2949 29.7852 61.9824 31.3135 61.9531 33.4131V34.9219C61.9531 37.1973 62.2363 38.8232 62.8027 39.7998C63.3789 40.7764 64.3652 41.2646 65.7617 41.2646C66.9434 41.2646 67.8467 40.9863 68.4717 40.4297C69.0967 39.873 69.4287 38.9893 69.4678 37.7783H74.5801ZM94.8389 45H89.7266V36.0938H82.1533V45H77.0117V23.6719H82.1533V32.1387H89.7266V23.6719H94.8389V45ZM103.584 45H98.457V23.6719H103.584V45ZM124.971 45H119.858L112.3 31.7285V45H107.158V23.6719H112.3L119.844 36.9434V23.6719H124.971V45ZM144.526 27.6416H138.125V45H132.983V27.6416H126.699V23.6719H144.526V27.6416ZM164.36 34.7754C164.36 36.8555 163.975 38.6963 163.203 40.2979C162.432 41.8994 161.333 43.1348 159.907 44.0039C158.491 44.8633 156.875 45.293 155.059 45.293C153.242 45.293 151.631 44.8779 150.225 44.0479C148.818 43.208 147.72 42.0117 146.929 40.459C146.147 38.9062 145.737 37.124 145.698 35.1123V33.9111C145.698 31.8213 146.079 29.9805 146.841 28.3887C147.612 26.7871 148.711 25.5518 150.137 24.6826C151.572 23.8135 153.203 23.3789 155.029 23.3789C156.836 23.3789 158.447 23.8086 159.863 24.668C161.279 25.5273 162.378 26.7529 163.159 28.3447C163.95 29.9268 164.351 31.7432 164.36 33.7939V34.7754ZM159.131 33.8818C159.131 31.7627 158.774 30.1562 158.062 29.0625C157.358 27.959 156.348 27.4072 155.029 27.4072C152.451 27.4072 151.089 29.3408 150.942 33.208L150.928 34.7754C150.928 36.8652 151.274 38.4717 151.968 39.5947C152.661 40.7178 153.691 41.2793 155.059 41.2793C156.357 41.2793 157.358 40.7275 158.062 39.624C158.765 38.5205 159.121 36.9336 159.131 34.8633V33.8818ZM174.937 37.4707H172.153V45H167.012V23.6719H175.405C177.935 23.6719 179.912 24.2334 181.338 25.3564C182.764 26.4795 183.477 28.0664 183.477 30.1172C183.477 31.6016 183.174 32.832 182.568 33.8086C181.973 34.7852 181.035 35.5762 179.756 36.1816L184.209 44.7803V45H178.701L174.937 37.4707ZM172.153 33.501H175.405C176.382 33.501 177.114 33.2471 177.603 32.7393C178.101 32.2217 178.35 31.5039 178.35 30.5859C178.35 29.668 178.101 28.9502 177.603 28.4326C177.104 27.9053 176.372 27.6416 175.405 27.6416H172.153V33.501ZM204.043 42.3633C203.252 43.2422 202.095 43.9502 200.571 44.4873C199.048 45.0244 197.378 45.293 195.562 45.293C192.769 45.293 190.537 44.4385 188.867 42.7295C187.197 41.0205 186.304 38.6426 186.187 35.5957L186.172 33.75C186.172 31.6504 186.543 29.8193 187.285 28.2568C188.027 26.6846 189.087 25.4785 190.464 24.6387C191.851 23.7891 193.452 23.3643 195.269 23.3643C197.925 23.3643 199.985 23.9746 201.45 25.1953C202.925 26.4062 203.784 28.2178 204.028 30.6299H199.077C198.901 29.4385 198.521 28.5889 197.935 28.0811C197.349 27.5732 196.519 27.3193 195.444 27.3193C194.155 27.3193 193.159 27.8662 192.456 28.96C191.753 30.0537 191.396 31.6162 191.387 33.6475V34.9365C191.387 37.0654 191.748 38.667 192.471 39.7412C193.203 40.8057 194.351 41.3379 195.913 41.3379C197.251 41.3379 198.247 41.04 198.901 40.4443V37.1338H195.327V33.6035H204.043V42.3633Z" fill="white"></path>
    <path d="M241.492 23.625H242.992V35H241.492V26.2344L235.891 35H234.383V23.625H235.891V32.3906L241.492 23.625ZM250.367 33.0859L253.242 26.5469H255.047V35H253.602V28.8516L250.867 35H249.867L247.078 28.7188V35H245.633V26.5469H247.508L250.367 33.0859ZM264.289 35H262.844V27.7422H258.953V35H257.5V26.5469H264.289V35ZM266.227 30.6953C266.227 29.8672 266.388 29.1224 266.711 28.4609C267.039 27.7995 267.492 27.2891 268.07 26.9297C268.654 26.5703 269.318 26.3906 270.062 26.3906C271.214 26.3906 272.143 26.7891 272.852 27.5859C273.565 28.3828 273.922 29.4427 273.922 30.7656V30.8672C273.922 31.6901 273.763 32.4297 273.445 33.0859C273.133 33.737 272.682 34.2448 272.094 34.6094C271.51 34.974 270.839 35.1562 270.078 35.1562C268.932 35.1562 268.003 34.7578 267.289 33.9609C266.581 33.1641 266.227 32.1094 266.227 30.7969V30.6953ZM267.68 30.8672C267.68 31.8047 267.896 32.5573 268.328 33.125C268.766 33.6927 269.349 33.9766 270.078 33.9766C270.812 33.9766 271.396 33.6901 271.828 33.1172C272.26 32.5391 272.477 31.7318 272.477 30.6953C272.477 29.7682 272.255 29.0182 271.812 28.4453C271.375 27.8672 270.792 27.5781 270.062 27.5781C269.349 27.5781 268.773 27.862 268.336 28.4297C267.898 28.9974 267.68 29.8099 267.68 30.8672ZM282.875 30.8672C282.875 32.1536 282.581 33.1901 281.992 33.9766C281.404 34.763 280.607 35.1562 279.602 35.1562C278.576 35.1562 277.768 34.8307 277.18 34.1797V38.25H275.734V26.5469H277.055L277.125 27.4844C277.714 26.7552 278.531 26.3906 279.578 26.3906C280.594 26.3906 281.396 26.7734 281.984 27.5391C282.578 28.3047 282.875 29.3698 282.875 30.7344V30.8672ZM281.43 30.7031C281.43 29.75 281.227 28.9974 280.82 28.4453C280.414 27.8932 279.857 27.6172 279.148 27.6172C278.273 27.6172 277.617 28.0052 277.18 28.7812V32.8203C277.612 33.5911 278.273 33.9766 279.164 33.9766C279.857 33.9766 280.406 33.7031 280.812 33.1562C281.224 32.6042 281.43 31.7865 281.43 30.7031ZM290.375 27.7188H287.539V35H286.094V27.7188H283.312V26.5469H290.375V27.7188ZM298.688 35H297.242V31.3906H293.359V35H291.906V26.5469H293.359V30.2109H297.242V26.5469H298.688V35ZM302.594 29.4609H304.789C305.747 29.4714 306.505 29.7214 307.062 30.2109C307.62 30.7005 307.898 31.3646 307.898 32.2031C307.898 33.0469 307.612 33.724 307.039 34.2344C306.466 34.7448 305.695 35 304.727 35H301.148V26.5469H302.594V29.4609ZM310.914 35H309.461V26.5469H310.914V35ZM302.594 30.6406V33.8203H304.742C305.284 33.8203 305.703 33.6823 306 33.4062C306.297 33.125 306.445 32.7422 306.445 32.2578C306.445 31.7891 306.299 31.4062 306.008 31.1094C305.721 30.8073 305.318 30.651 304.797 30.6406H302.594ZM316.945 35.1562C315.799 35.1562 314.867 34.7812 314.148 34.0312C313.43 33.276 313.07 32.2682 313.07 31.0078V30.7422C313.07 29.9036 313.229 29.1562 313.547 28.5C313.87 27.8385 314.318 27.3229 314.891 26.9531C315.469 26.5781 316.094 26.3906 316.766 26.3906C317.865 26.3906 318.719 26.7526 319.328 27.4766C319.938 28.2005 320.242 29.237 320.242 30.5859V31.1875H314.516C314.536 32.0208 314.779 32.6953 315.242 33.2109C315.711 33.7214 316.305 33.9766 317.023 33.9766C317.534 33.9766 317.966 33.8724 318.32 33.6641C318.674 33.4557 318.984 33.1797 319.25 32.8359L320.133 33.5234C319.424 34.612 318.362 35.1562 316.945 35.1562ZM316.766 27.5781C316.182 27.5781 315.693 27.7917 315.297 28.2188C314.901 28.6406 314.656 29.2344 314.562 30H318.797V29.8906C318.755 29.1562 318.557 28.5885 318.203 28.1875C317.849 27.7812 317.37 27.5781 316.766 27.5781ZM332.805 35H331.359V27.7422H327.469V35H326.016V26.5469H332.805V35ZM334.742 30.6953C334.742 29.8672 334.904 29.1224 335.227 28.4609C335.555 27.7995 336.008 27.2891 336.586 26.9297C337.169 26.5703 337.833 26.3906 338.578 26.3906C339.729 26.3906 340.659 26.7891 341.367 27.5859C342.081 28.3828 342.438 29.4427 342.438 30.7656V30.8672C342.438 31.6901 342.279 32.4297 341.961 33.0859C341.648 33.737 341.198 34.2448 340.609 34.6094C340.026 34.974 339.354 35.1562 338.594 35.1562C337.448 35.1562 336.518 34.7578 335.805 33.9609C335.096 33.1641 334.742 32.1094 334.742 30.7969V30.6953ZM336.195 30.8672C336.195 31.8047 336.411 32.5573 336.844 33.125C337.281 33.6927 337.865 33.9766 338.594 33.9766C339.328 33.9766 339.911 33.6901 340.344 33.1172C340.776 32.5391 340.992 31.7318 340.992 30.6953C340.992 29.7682 340.771 29.0182 340.328 28.4453C339.891 27.8672 339.307 27.5781 338.578 27.5781C337.865 27.5781 337.289 27.862 336.852 28.4297C336.414 28.9974 336.195 29.8099 336.195 30.8672ZM343.617 33.8203L344.117 33.2031C344.68 32.474 345 31.3802 345.078 29.9219L345.211 26.5469H350.656V33.8203H351.742V37.4844H350.297V35H344.398V37.4844H342.953L342.961 33.8203H343.617ZM345.328 33.8203H349.211V27.8828H346.609L346.523 29.8984C346.435 31.5807 346.036 32.888 345.328 33.8203ZM354.922 26.5469V33.8203H358.016V26.5469H359.461V33.8203H362.547V26.5469H364V35H353.469V26.5469H354.922ZM371.75 26.5469H373.195V35H371.75V28.8359L367.852 35H366.406V26.5469H367.852V32.7188L371.75 26.5469ZM382.43 35H380.984V27.7422H377.094V35H375.641V26.5469H382.43V35ZM391.656 35H390.211V31.3906H386.328V35H384.875V26.5469H386.328V30.2109H390.211V26.5469H391.656V35ZM399.453 26.5469H400.898V35H399.453V28.8359L395.555 35H394.109V26.5469H395.555V32.7188L399.453 26.5469ZM405.852 31.3984H404.797V35H403.344V26.5469H404.797V30.125H405.742L408.586 26.5469H410.336L406.992 30.6094L410.617 35H408.781L405.852 31.3984ZM417.328 26.5469H418.773V35H417.328V28.8359L413.43 35H411.984V26.5469H413.43V32.7188L417.328 26.5469ZM424.68 30.6953C424.68 29.8672 424.841 29.1224 425.164 28.4609C425.492 27.7995 425.945 27.2891 426.523 26.9297C427.107 26.5703 427.771 26.3906 428.516 26.3906C429.667 26.3906 430.596 26.7891 431.305 27.5859C432.018 28.3828 432.375 29.4427 432.375 30.7656V30.8672C432.375 31.6901 432.216 32.4297 431.898 33.0859C431.586 33.737 431.135 34.2448 430.547 34.6094C429.964 34.974 429.292 35.1562 428.531 35.1562C427.385 35.1562 426.456 34.7578 425.742 33.9609C425.034 33.1641 424.68 32.1094 424.68 30.7969V30.6953ZM426.133 30.8672C426.133 31.8047 426.349 32.5573 426.781 33.125C427.219 33.6927 427.802 33.9766 428.531 33.9766C429.266 33.9766 429.849 33.6901 430.281 33.1172C430.714 32.5391 430.93 31.7318 430.93 30.6953C430.93 29.7682 430.708 29.0182 430.266 28.4453C429.828 27.8672 429.245 27.5781 428.516 27.5781C427.802 27.5781 427.227 27.862 426.789 28.4297C426.352 28.9974 426.133 29.8099 426.133 30.8672ZM441.102 35H439.656V27.7422H435.766V35H434.312V26.5469H441.102V35ZM449.703 27.7188H446.867V35H445.422V27.7188H442.641V26.5469H449.703V27.7188ZM450.398 30.6953C450.398 29.8672 450.56 29.1224 450.883 28.4609C451.211 27.7995 451.664 27.2891 452.242 26.9297C452.826 26.5703 453.49 26.3906 454.234 26.3906C455.385 26.3906 456.315 26.7891 457.023 27.5859C457.737 28.3828 458.094 29.4427 458.094 30.7656V30.8672C458.094 31.6901 457.935 32.4297 457.617 33.0859C457.305 33.737 456.854 34.2448 456.266 34.6094C455.682 34.974 455.01 35.1562 454.25 35.1562C453.104 35.1562 452.174 34.7578 451.461 33.9609C450.753 33.1641 450.398 32.1094 450.398 30.7969V30.6953ZM451.852 30.8672C451.852 31.8047 452.068 32.5573 452.5 33.125C452.938 33.6927 453.521 33.9766 454.25 33.9766C454.984 33.9766 455.568 33.6901 456 33.1172C456.432 32.5391 456.648 31.7318 456.648 30.6953C456.648 29.7682 456.427 29.0182 455.984 28.4453C455.547 27.8672 454.964 27.5781 454.234 27.5781C453.521 27.5781 452.945 27.862 452.508 28.4297C452.07 28.9974 451.852 29.8099 451.852 30.8672ZM464.773 33.0859L467.648 26.5469H469.453V35H468.008V28.8516L465.273 35H464.273L461.484 28.7188V35H460.039V26.5469H461.914L464.773 33.0859Z" fill="white"></path>
    <path opacity="0.7" d="M253.271 49.1865H255.254V50.041H253.271V52.2871H252.363V50.041H250.381V49.1865H252.363V47.1113H253.271V49.1865ZM260.854 46.3984L257.91 53H256.963L259.897 46.6328H256.05V45.8906H260.854V46.3984ZM264.419 50.1143C264.419 49.3786 264.517 48.6722 264.712 47.9951C264.91 47.318 265.205 46.7028 265.596 46.1494C265.986 45.596 266.392 45.2054 266.812 44.9775L266.997 45.5732C266.522 45.9378 266.131 46.4945 265.825 47.2432C265.522 47.9919 265.356 48.8301 265.327 49.7578L265.322 50.1729C265.322 51.4294 265.552 52.5199 266.011 53.4443C266.287 53.9977 266.616 54.4307 266.997 54.7432L266.812 55.2949C266.379 55.054 265.965 54.6504 265.571 54.084C264.803 52.9772 264.419 51.654 264.419 50.1143ZM271.24 49.875C271.051 50.0996 270.825 50.2803 270.562 50.417C270.301 50.5537 270.015 50.6221 269.702 50.6221C269.292 50.6221 268.934 50.5212 268.628 50.3193C268.325 50.1175 268.091 49.8343 267.925 49.4697C267.759 49.1019 267.676 48.6966 267.676 48.2539C267.676 47.7786 267.765 47.3506 267.944 46.9697C268.127 46.5889 268.384 46.2975 268.716 46.0957C269.048 45.8939 269.435 45.793 269.878 45.793C270.581 45.793 271.134 46.0566 271.538 46.584C271.945 47.1081 272.148 47.8242 272.148 48.7324V48.9961C272.148 50.3796 271.875 51.3903 271.328 52.0283C270.781 52.6631 269.956 52.9886 268.853 53.0049H268.677V52.2432H268.867C269.613 52.2301 270.186 52.0365 270.586 51.6621C270.986 51.2845 271.204 50.6888 271.24 49.875ZM269.849 49.875C270.151 49.875 270.43 49.7822 270.684 49.5967C270.941 49.4111 271.128 49.1816 271.245 48.9082V48.5469C271.245 47.9544 271.117 47.4727 270.859 47.1016C270.602 46.7305 270.277 46.5449 269.883 46.5449C269.486 46.5449 269.167 46.6979 268.926 47.0039C268.685 47.3066 268.564 47.707 268.564 48.2051C268.564 48.6901 268.68 49.0905 268.911 49.4062C269.146 49.7188 269.458 49.875 269.849 49.875ZM278.052 53H273.394V52.3506L275.854 49.6162C276.219 49.2028 276.47 48.8675 276.606 48.6104C276.746 48.3499 276.816 48.0814 276.816 47.8047C276.816 47.4336 276.704 47.1292 276.479 46.8916C276.255 46.654 275.955 46.5352 275.581 46.5352C275.132 46.5352 274.782 46.6637 274.531 46.9209C274.284 47.1748 274.16 47.5296 274.16 47.9854H273.257C273.257 47.3311 273.467 46.8021 273.887 46.3984C274.31 45.9948 274.875 45.793 275.581 45.793C276.242 45.793 276.764 45.9671 277.148 46.3154C277.533 46.6605 277.725 47.1211 277.725 47.6973C277.725 48.3971 277.279 49.2305 276.387 50.1973L274.482 52.2627H278.052V53ZM279.424 49.4355L279.785 45.8906H283.428V46.7256H280.552L280.337 48.6641C280.685 48.459 281.081 48.3564 281.523 48.3564C282.171 48.3564 282.686 48.5713 283.066 49.001C283.447 49.4274 283.638 50.0052 283.638 50.7344C283.638 51.4668 283.439 52.0446 283.042 52.4678C282.648 52.8877 282.096 53.0977 281.387 53.0977C280.758 53.0977 280.246 52.9235 279.849 52.5752C279.451 52.2269 279.225 51.7451 279.17 51.1299H280.024C280.08 51.5368 280.225 51.8444 280.459 52.0527C280.693 52.2578 281.003 52.3604 281.387 52.3604C281.807 52.3604 282.135 52.2171 282.373 51.9307C282.614 51.6442 282.734 51.2487 282.734 50.7441C282.734 50.2689 282.604 49.888 282.344 49.6016C282.087 49.3118 281.743 49.167 281.313 49.167C280.92 49.167 280.61 49.2533 280.386 49.4258L280.146 49.6211L279.424 49.4355ZM286.802 50.1631C286.802 50.889 286.706 51.5856 286.514 52.2529C286.325 52.917 286.034 53.5306 285.64 54.0938C285.249 54.6569 284.839 55.0573 284.409 55.2949L284.219 54.7432C284.72 54.359 285.122 53.7633 285.425 52.9561C285.731 52.1455 285.887 51.2471 285.894 50.2607V50.1045C285.894 49.4209 285.822 48.7861 285.679 48.2002C285.535 47.611 285.335 47.0837 285.078 46.6182C284.824 46.1527 284.538 45.7897 284.219 45.5293L284.409 44.9775C284.839 45.2152 285.247 45.6123 285.635 46.1689C286.025 46.7256 286.317 47.3392 286.509 48.0098C286.704 48.6803 286.802 49.3981 286.802 50.1631ZM295.171 46.3984L292.227 53H291.279L294.214 46.6328H290.366V45.8906H295.171V46.3984ZM300.654 49.9678C300.654 51.0257 300.474 51.8118 300.112 52.3262C299.751 52.8405 299.186 53.0977 298.418 53.0977C297.66 53.0977 297.098 52.847 296.733 52.3457C296.369 51.8411 296.18 51.0892 296.167 50.0898V48.8838C296.167 47.8389 296.348 47.0625 296.709 46.5547C297.07 46.0469 297.637 45.793 298.408 45.793C299.173 45.793 299.736 46.0387 300.098 46.5303C300.459 47.0186 300.645 47.7738 300.654 48.7959V49.9678ZM299.751 48.7324C299.751 47.9674 299.644 47.4108 299.429 47.0625C299.214 46.7109 298.874 46.5352 298.408 46.5352C297.946 46.5352 297.609 46.7093 297.397 47.0576C297.186 47.4059 297.077 47.9414 297.07 48.6641V50.1094C297.07 50.8776 297.181 51.4456 297.402 51.8135C297.627 52.1781 297.965 52.3604 298.418 52.3604C298.864 52.3604 299.194 52.1878 299.409 51.8428C299.627 51.4977 299.741 50.9541 299.751 50.2119V48.7324ZM306.27 49.9678C306.27 51.0257 306.089 51.8118 305.728 52.3262C305.366 52.8405 304.801 53.0977 304.033 53.0977C303.275 53.0977 302.713 52.847 302.349 52.3457C301.984 51.8411 301.795 51.0892 301.782 50.0898V48.8838C301.782 47.8389 301.963 47.0625 302.324 46.5547C302.686 46.0469 303.252 45.793 304.023 45.793C304.788 45.793 305.352 46.0387 305.713 46.5303C306.074 47.0186 306.26 47.7738 306.27 48.7959V49.9678ZM305.366 48.7324C305.366 47.9674 305.259 47.4108 305.044 47.0625C304.829 46.7109 304.489 46.5352 304.023 46.5352C303.561 46.5352 303.224 46.7093 303.013 47.0576C302.801 47.4059 302.692 47.9414 302.686 48.6641V50.1094C302.686 50.8776 302.796 51.4456 303.018 51.8135C303.242 52.1781 303.581 52.3604 304.033 52.3604C304.479 52.3604 304.81 52.1878 305.024 51.8428C305.243 51.4977 305.356 50.9541 305.366 50.2119V48.7324ZM309.399 50.3486H307.017V49.6113H309.399V50.3486ZM313.159 53H312.251V46.9795L310.43 47.6484V46.8281L313.018 45.8564H313.159V53ZM320.396 46.3984L317.451 53H316.504L319.438 46.6328H315.591V45.8906H320.396V46.3984ZM323.394 50.3486H321.011V49.6113H323.394V50.3486ZM327.729 45.8857V46.6523H327.563C326.86 46.6654 326.3 46.8737 325.884 47.2773C325.467 47.681 325.226 48.249 325.161 48.9814C325.535 48.5518 326.047 48.3369 326.694 48.3369C327.313 48.3369 327.806 48.555 328.174 48.9912C328.545 49.4274 328.73 49.9906 328.73 50.6807C328.73 51.4131 328.53 51.999 328.13 52.4385C327.733 52.8779 327.199 53.0977 326.528 53.0977C325.848 53.0977 325.296 52.8372 324.873 52.3164C324.45 51.7923 324.238 51.1185 324.238 50.2949V49.9482C324.238 48.6396 324.517 47.6403 325.073 46.9502C325.633 46.2568 326.465 45.902 327.568 45.8857H327.729ZM326.543 49.0889C326.234 49.0889 325.949 49.1816 325.688 49.3672C325.428 49.5527 325.247 49.7855 325.146 50.0654V50.3975C325.146 50.9834 325.278 51.4554 325.542 51.8135C325.806 52.1715 326.134 52.3506 326.528 52.3506C326.935 52.3506 327.254 52.2008 327.485 51.9014C327.72 51.6019 327.837 51.2096 327.837 50.7246C327.837 50.2363 327.718 49.8424 327.48 49.543C327.246 49.2402 326.934 49.0889 326.543 49.0889ZM334.458 53H329.8V52.3506L332.261 49.6162C332.625 49.2028 332.876 48.8675 333.013 48.6104C333.153 48.3499 333.223 48.0814 333.223 47.8047C333.223 47.4336 333.11 47.1292 332.886 46.8916C332.661 46.654 332.362 46.5352 331.987 46.5352C331.538 46.5352 331.188 46.6637 330.938 46.9209C330.69 47.1748 330.566 47.5296 330.566 47.9854H329.663C329.663 47.3311 329.873 46.8021 330.293 46.3984C330.716 45.9948 331.281 45.793 331.987 45.793C332.648 45.793 333.171 45.9671 333.555 46.3154C333.939 46.6605 334.131 47.1211 334.131 47.6973C334.131 48.3971 333.685 49.2305 332.793 50.1973L330.889 52.2627H334.458V53Z" fill="white" fill-opacity="0.8"></path>
    <path d="M372.665 53H371.762V47.7168H372.665V53ZM371.688 46.3154C371.688 46.1689 371.732 46.0452 371.82 45.9443C371.911 45.8434 372.045 45.793 372.221 45.793C372.396 45.793 372.53 45.8434 372.621 45.9443C372.712 46.0452 372.758 46.1689 372.758 46.3154C372.758 46.4619 372.712 46.584 372.621 46.6816C372.53 46.7793 372.396 46.8281 372.221 46.8281C372.045 46.8281 371.911 46.7793 371.82 46.6816C371.732 46.584 371.688 46.4619 371.688 46.3154ZM374.97 47.7168L374.999 48.3809C375.403 47.873 375.93 47.6191 376.581 47.6191C377.698 47.6191 378.261 48.249 378.271 49.5088V53H377.367V49.5039C377.364 49.123 377.276 48.8415 377.104 48.6592C376.934 48.4769 376.669 48.3857 376.308 48.3857C376.015 48.3857 375.757 48.4639 375.536 48.6201C375.315 48.7764 375.142 48.9814 375.019 49.2354V53H374.115V47.7168H374.97ZM380.077 53V48.415H379.242V47.7168H380.077V47.1748C380.077 46.6084 380.229 46.1706 380.531 45.8613C380.834 45.5521 381.262 45.3975 381.815 45.3975C382.024 45.3975 382.23 45.4251 382.436 45.4805L382.387 46.2129C382.234 46.1836 382.071 46.1689 381.898 46.1689C381.605 46.1689 381.379 46.2552 381.22 46.4277C381.06 46.597 380.98 46.8411 380.98 47.1602V47.7168H382.108V48.415H380.98V53H380.077ZM382.87 50.3096C382.87 49.792 382.971 49.3265 383.173 48.9131C383.378 48.4997 383.661 48.1807 384.022 47.9561C384.387 47.7314 384.802 47.6191 385.268 47.6191C385.987 47.6191 386.568 47.8682 387.011 48.3662C387.457 48.8643 387.68 49.5267 387.68 50.3535V50.417C387.68 50.9313 387.58 51.3936 387.382 51.8037C387.187 52.2106 386.905 52.528 386.537 52.7559C386.173 52.9837 385.753 53.0977 385.277 53.0977C384.561 53.0977 383.98 52.8486 383.534 52.3506C383.091 51.8525 382.87 51.1934 382.87 50.373V50.3096ZM383.778 50.417C383.778 51.0029 383.913 51.4733 384.184 51.8281C384.457 52.1829 384.822 52.3604 385.277 52.3604C385.736 52.3604 386.101 52.1813 386.371 51.8232C386.641 51.4619 386.776 50.9574 386.776 50.3096C386.776 49.7301 386.638 49.2614 386.361 48.9033C386.088 48.542 385.723 48.3613 385.268 48.3613C384.822 48.3613 384.462 48.5387 384.188 48.8936C383.915 49.2484 383.778 49.7562 383.778 50.417ZM396.615 50.5488C396.576 51.3366 396.381 51.9583 396.029 52.4141C395.678 52.8698 395.207 53.0977 394.618 53.0977C394.009 53.0977 393.619 52.8242 393.446 52.2773C393.271 52.554 393.069 52.7607 392.841 52.8975C392.616 53.0309 392.383 53.0977 392.143 53.0977C391.68 53.0977 391.33 52.9089 391.093 52.5312C390.855 52.1536 390.767 51.6312 390.829 50.9639C390.878 50.4268 391 49.9482 391.195 49.5283C391.394 49.1051 391.648 48.7731 391.957 48.5322C392.27 48.2913 392.597 48.1709 392.938 48.1709C393.202 48.1709 393.438 48.2067 393.646 48.2783C393.855 48.3467 394.089 48.4834 394.35 48.6885L394.096 51.3936C394.034 52.1455 394.242 52.5215 394.721 52.5215C395.089 52.5215 395.386 52.3392 395.614 51.9746C395.842 51.61 395.966 51.1348 395.985 50.5488C396.047 49.2826 395.811 48.3174 395.277 47.6533C394.747 46.9893 393.938 46.6572 392.851 46.6572C392.196 46.6572 391.615 46.82 391.107 47.1455C390.6 47.4678 390.199 47.9349 389.906 48.5469C389.613 49.1589 389.449 49.8652 389.413 50.666C389.374 51.4733 389.472 52.1748 389.706 52.7705C389.94 53.363 390.297 53.8154 390.775 54.1279C391.257 54.4437 391.838 54.6016 392.519 54.6016C392.812 54.6016 393.104 54.5658 393.397 54.4941C393.694 54.4225 393.939 54.3298 394.135 54.2158L394.315 54.7773C394.114 54.9043 393.845 55.0085 393.51 55.0898C393.178 55.1712 392.841 55.2119 392.499 55.2119C391.685 55.2119 390.985 55.028 390.399 54.6602C389.813 54.2956 389.374 53.7682 389.081 53.0781C388.791 52.3913 388.666 51.5872 388.705 50.666C388.744 49.7708 388.944 48.9668 389.306 48.2539C389.667 47.5378 390.157 46.986 390.775 46.5986C391.394 46.208 392.092 46.0127 392.87 46.0127C393.681 46.0127 394.376 46.195 394.955 46.5596C395.535 46.9242 395.966 47.4499 396.249 48.1367C396.532 48.8236 396.654 49.6276 396.615 50.5488ZM391.605 50.9639C391.56 51.4261 391.602 51.7809 391.732 52.0283C391.866 52.2757 392.076 52.3994 392.362 52.3994C392.558 52.3994 392.745 52.3164 392.924 52.1504C393.106 51.9844 393.256 51.7467 393.373 51.4375L393.378 51.3936L393.603 48.9375C393.42 48.8431 393.225 48.7959 393.017 48.7959C392.636 48.7959 392.32 48.9896 392.069 49.377C391.822 49.7643 391.667 50.2933 391.605 50.9639ZM402.26 50.417C402.26 51.221 402.076 51.8688 401.708 52.3604C401.34 52.8519 400.842 53.0977 400.214 53.0977C399.573 53.0977 399.068 52.8942 398.7 52.4873V55.0312H397.797V47.7168H398.622L398.666 48.3027C399.034 47.847 399.545 47.6191 400.199 47.6191C400.834 47.6191 401.335 47.8584 401.703 48.3369C402.074 48.8154 402.26 49.4811 402.26 50.334V50.417ZM401.356 50.3145C401.356 49.7188 401.229 49.2484 400.976 48.9033C400.722 48.5583 400.373 48.3857 399.931 48.3857C399.384 48.3857 398.974 48.6283 398.7 49.1133V51.6377C398.97 52.1195 399.384 52.3604 399.94 52.3604C400.373 52.3604 400.717 52.1895 400.971 51.8477C401.228 51.5026 401.356 50.9915 401.356 50.3145ZM403.173 50.3096C403.173 49.792 403.274 49.3265 403.476 48.9131C403.681 48.4997 403.964 48.1807 404.325 47.9561C404.69 47.7314 405.105 47.6191 405.57 47.6191C406.29 47.6191 406.871 47.8682 407.313 48.3662C407.759 48.8643 407.982 49.5267 407.982 50.3535V50.417C407.982 50.9313 407.883 51.3936 407.685 51.8037C407.489 52.2106 407.208 52.528 406.84 52.7559C406.475 52.9837 406.055 53.0977 405.58 53.0977C404.864 53.0977 404.283 52.8486 403.837 52.3506C403.394 51.8525 403.173 51.1934 403.173 50.373V50.3096ZM404.081 50.417C404.081 51.0029 404.216 51.4733 404.486 51.8281C404.76 52.1829 405.124 52.3604 405.58 52.3604C406.039 52.3604 406.404 52.1813 406.674 51.8232C406.944 51.4619 407.079 50.9574 407.079 50.3096C407.079 49.7301 406.941 49.2614 406.664 48.9033C406.391 48.542 406.026 48.3613 405.57 48.3613C405.124 48.3613 404.765 48.5387 404.491 48.8936C404.218 49.2484 404.081 49.7562 404.081 50.417ZM408.896 50.3145C408.896 49.5039 409.088 48.8529 409.472 48.3613C409.856 47.8665 410.359 47.6191 410.98 47.6191C411.599 47.6191 412.089 47.8307 412.45 48.2539V45.5H413.354V53H412.523L412.479 52.4336C412.118 52.8763 411.615 53.0977 410.971 53.0977C410.359 53.0977 409.859 52.847 409.472 52.3457C409.088 51.8444 408.896 51.1901 408.896 50.3828V50.3145ZM409.799 50.417C409.799 51.016 409.923 51.4847 410.17 51.8232C410.417 52.1618 410.759 52.3311 411.195 52.3311C411.768 52.3311 412.187 52.0739 412.45 51.5596V49.1328C412.18 48.6348 411.765 48.3857 411.205 48.3857C410.762 48.3857 410.417 48.5566 410.17 48.8984C409.923 49.2402 409.799 49.7464 409.799 50.417ZM417.836 51.5986C417.836 51.3545 417.743 51.1657 417.558 51.0322C417.375 50.8955 417.055 50.7783 416.596 50.6807C416.14 50.583 415.777 50.4658 415.507 50.3291C415.24 50.1924 415.041 50.0296 414.911 49.8408C414.784 49.652 414.721 49.4274 414.721 49.167C414.721 48.734 414.903 48.3678 415.268 48.0684C415.635 47.7689 416.104 47.6191 416.674 47.6191C417.273 47.6191 417.758 47.7738 418.129 48.083C418.503 48.3923 418.69 48.7878 418.69 49.2695H417.782C417.782 49.0221 417.676 48.8089 417.465 48.6299C417.257 48.4508 416.993 48.3613 416.674 48.3613C416.345 48.3613 416.088 48.4329 415.902 48.5762C415.717 48.7194 415.624 48.9066 415.624 49.1377C415.624 49.3558 415.71 49.5202 415.883 49.6309C416.055 49.7415 416.366 49.8473 416.815 49.9482C417.268 50.0492 417.634 50.1696 417.914 50.3096C418.194 50.4495 418.401 50.6188 418.534 50.8174C418.671 51.0127 418.739 51.252 418.739 51.5352C418.739 52.0072 418.55 52.3864 418.173 52.6729C417.795 52.9561 417.305 53.0977 416.703 53.0977C416.28 53.0977 415.906 53.0228 415.58 52.873C415.255 52.7233 414.999 52.515 414.813 52.248C414.631 51.9779 414.54 51.6865 414.54 51.374H415.443C415.46 51.6768 415.58 51.9176 415.805 52.0967C416.033 52.2725 416.332 52.3604 416.703 52.3604C417.045 52.3604 417.318 52.292 417.523 52.1553C417.732 52.0153 417.836 51.8298 417.836 51.5986ZM420.819 48.3564C421.22 47.8649 421.741 47.6191 422.382 47.6191C423.498 47.6191 424.062 48.249 424.071 49.5088V53H423.168V49.5039C423.165 49.123 423.077 48.8415 422.904 48.6592C422.735 48.4769 422.47 48.3857 422.108 48.3857C421.815 48.3857 421.558 48.4639 421.337 48.6201C421.116 48.7764 420.943 48.9814 420.819 49.2354V53H419.916V45.5H420.819V48.3564ZM426.405 53H425.502V47.7168H426.405V53ZM425.429 46.3154C425.429 46.1689 425.473 46.0452 425.561 45.9443C425.652 45.8434 425.785 45.793 425.961 45.793C426.137 45.793 426.27 45.8434 426.361 45.9443C426.452 46.0452 426.498 46.1689 426.498 46.3154C426.498 46.4619 426.452 46.584 426.361 46.6816C426.27 46.7793 426.137 46.8281 425.961 46.8281C425.785 46.8281 425.652 46.7793 425.561 46.6816C425.473 46.584 425.429 46.4619 425.429 46.3154ZM432.318 50.417C432.318 51.221 432.134 51.8688 431.767 52.3604C431.399 52.8519 430.901 53.0977 430.272 53.0977C429.631 53.0977 429.127 52.8942 428.759 52.4873V55.0312H427.855V47.7168H428.681L428.725 48.3027C429.092 47.847 429.604 47.6191 430.258 47.6191C430.893 47.6191 431.394 47.8584 431.762 48.3369C432.133 48.8154 432.318 49.4811 432.318 50.334V50.417ZM431.415 50.3145C431.415 49.7188 431.288 49.2484 431.034 48.9033C430.78 48.5583 430.432 48.3857 429.989 48.3857C429.442 48.3857 429.032 48.6283 428.759 49.1133V51.6377C429.029 52.1195 429.442 52.3604 429.999 52.3604C430.432 52.3604 430.775 52.1895 431.029 51.8477C431.286 51.5026 431.415 50.9915 431.415 50.3145ZM434.325 47.7168L434.354 48.3809C434.758 47.873 435.285 47.6191 435.937 47.6191C437.053 47.6191 437.616 48.249 437.626 49.5088V53H436.723V49.5039C436.719 49.123 436.632 48.8415 436.459 48.6592C436.29 48.4769 436.024 48.3857 435.663 48.3857C435.37 48.3857 435.113 48.4639 434.892 48.6201C434.67 48.7764 434.498 48.9814 434.374 49.2354V53H433.471V47.7168H434.325ZM439.97 53H439.066V47.7168H439.97V53ZM438.993 46.3154C438.993 46.1689 439.037 46.0452 439.125 45.9443C439.216 45.8434 439.35 45.793 439.525 45.793C439.701 45.793 439.835 45.8434 439.926 45.9443C440.017 46.0452 440.062 46.1689 440.062 46.3154C440.062 46.4619 440.017 46.584 439.926 46.6816C439.835 46.7793 439.701 46.8281 439.525 46.8281C439.35 46.8281 439.216 46.7793 439.125 46.6816C439.037 46.584 438.993 46.4619 438.993 46.3154ZM442.895 50.5537L442.328 51.1445V53H441.425V45.5H442.328V50.0361L442.812 49.4551L444.457 47.7168H445.556L443.5 49.9238L445.795 53H444.735L442.895 50.5537ZM446.249 50.3096C446.249 49.792 446.35 49.3265 446.552 48.9131C446.757 48.4997 447.04 48.1807 447.401 47.9561C447.766 47.7314 448.181 47.6191 448.646 47.6191C449.366 47.6191 449.947 47.8682 450.39 48.3662C450.836 48.8643 451.059 49.5267 451.059 50.3535V50.417C451.059 50.9313 450.959 51.3936 450.761 51.8037C450.565 52.2106 450.284 52.528 449.916 52.7559C449.551 52.9837 449.132 53.0977 448.656 53.0977C447.94 53.0977 447.359 52.8486 446.913 52.3506C446.47 51.8525 446.249 51.1934 446.249 50.373V50.3096ZM447.157 50.417C447.157 51.0029 447.292 51.4733 447.562 51.8281C447.836 52.1829 448.201 52.3604 448.656 52.3604C449.115 52.3604 449.48 52.1813 449.75 51.8232C450.02 51.4619 450.155 50.9574 450.155 50.3096C450.155 49.7301 450.017 49.2614 449.74 48.9033C449.467 48.542 449.102 48.3613 448.646 48.3613C448.201 48.3613 447.841 48.5387 447.567 48.8936C447.294 49.2484 447.157 49.7562 447.157 50.417ZM456.654 50.417C456.654 51.221 456.47 51.8688 456.103 52.3604C455.735 52.8519 455.237 53.0977 454.608 53.0977C453.967 53.0977 453.463 52.8942 453.095 52.4873V55.0312H452.191V47.7168H453.017L453.061 48.3027C453.428 47.847 453.939 47.6191 454.594 47.6191C455.229 47.6191 455.73 47.8584 456.098 48.3369C456.469 48.8154 456.654 49.4811 456.654 50.334V50.417ZM455.751 50.3145C455.751 49.7188 455.624 49.2484 455.37 48.9033C455.116 48.5583 454.768 48.3857 454.325 48.3857C453.778 48.3857 453.368 48.6283 453.095 49.1133V51.6377C453.365 52.1195 453.778 52.3604 454.335 52.3604C454.768 52.3604 455.111 52.1895 455.365 51.8477C455.622 51.5026 455.751 50.9915 455.751 50.3145ZM459.032 46.4375V47.7168H460.019V48.415H459.032V51.6914C459.032 51.903 459.076 52.0625 459.164 52.1699C459.252 52.2741 459.402 52.3262 459.613 52.3262C459.717 52.3262 459.861 52.3066 460.043 52.2676V53C459.805 53.0651 459.574 53.0977 459.35 53.0977C458.946 53.0977 458.642 52.9756 458.437 52.7314C458.231 52.4873 458.129 52.1406 458.129 51.6914V48.415H457.167V47.7168H458.129V46.4375H459.032ZM461.098 52.5264C461.098 52.3701 461.143 52.2399 461.234 52.1357C461.329 52.0316 461.469 51.9795 461.654 51.9795C461.84 51.9795 461.98 52.0316 462.074 52.1357C462.172 52.2399 462.221 52.3701 462.221 52.5264C462.221 52.6761 462.172 52.8014 462.074 52.9023C461.98 53.0033 461.84 53.0537 461.654 53.0537C461.469 53.0537 461.329 53.0033 461.234 52.9023C461.143 52.8014 461.098 52.6761 461.098 52.5264ZM466.269 48.5273C466.132 48.5046 465.984 48.4932 465.824 48.4932C465.232 48.4932 464.83 48.7454 464.618 49.25V53H463.715V47.7168H464.594L464.608 48.3271C464.905 47.8551 465.325 47.6191 465.868 47.6191C466.044 47.6191 466.177 47.6419 466.269 47.6875V48.5273ZM470.365 52.4775C470.014 52.891 469.498 53.0977 468.817 53.0977C468.254 53.0977 467.825 52.9349 467.528 52.6094C467.235 52.2806 467.087 51.7956 467.084 51.1543V47.7168H467.987V51.1299C467.987 51.9307 468.313 52.3311 468.964 52.3311C469.654 52.3311 470.113 52.0739 470.341 51.5596V47.7168H471.244V53H470.385L470.365 52.4775Z" fill="white" fill-opacity="0.7"></path>
    <path d="M364.944 47H355L359.972 50.7478L365 47.0105C364.982 47.0056 364.963 47.0021 364.944 47Z" fill="white" fill-opacity="0.7"></path>
    <path d="M360.225 51.4716C360.094 51.5772 359.904 51.5772 359.773 51.4716L355 47.6181V53.65C355 53.8433 355.16 54 355.357 54H364.643C364.84 54 365 53.8433 365 53.65V47.6699L360.225 51.4716Z" fill="white" fill-opacity="0.7"></path>
    <rect x="518.5" y="15.5" width="179" height="39" rx="7.5" stroke="white"></rect>
    <path d="M568.553 35.0098C568.553 35.8457 568.412 36.5762 568.131 37.2012C567.85 37.8223 567.451 38.2969 566.936 38.625C566.42 38.9531 565.818 39.1172 565.131 39.1172C564.459 39.1172 563.863 38.9531 563.344 38.625C562.824 38.293 562.42 37.8223 562.131 37.2129C561.846 36.5996 561.699 35.8906 561.691 35.0859V34.4707C561.691 33.6504 561.834 32.9258 562.119 32.2969C562.404 31.668 562.807 31.1875 563.326 30.8555C563.85 30.5195 564.447 30.3516 565.119 30.3516C565.803 30.3516 566.404 30.5176 566.924 30.8496C567.447 31.1777 567.85 31.6562 568.131 32.2852C568.412 32.9102 568.553 33.6387 568.553 34.4707V35.0098ZM567.434 34.459C567.434 33.4473 567.23 32.6719 566.824 32.1328C566.418 31.5898 565.85 31.3184 565.119 31.3184C564.408 31.3184 563.848 31.5898 563.438 32.1328C563.031 32.6719 562.822 33.4219 562.811 34.3828V35.0098C562.811 35.9902 563.016 36.7617 563.426 37.3242C563.84 37.8828 564.408 38.1621 565.131 38.1621C565.857 38.1621 566.42 37.8984 566.818 37.3711C567.217 36.8398 567.422 36.0801 567.434 35.0918V34.459ZM572.613 38.2324C573 38.2324 573.338 38.1152 573.627 37.8809C573.916 37.6465 574.076 37.3535 574.107 37.002H575.133C575.113 37.3652 574.988 37.7109 574.758 38.0391C574.527 38.3672 574.219 38.6289 573.832 38.8242C573.449 39.0195 573.043 39.1172 572.613 39.1172C571.75 39.1172 571.062 38.8301 570.551 38.2559C570.043 37.6777 569.789 36.8887 569.789 35.8887V35.707C569.789 35.0898 569.902 34.541 570.129 34.0605C570.355 33.5801 570.68 33.207 571.102 32.9414C571.527 32.6758 572.029 32.543 572.607 32.543C573.318 32.543 573.908 32.7559 574.377 33.1816C574.85 33.6074 575.102 34.1602 575.133 34.8398H574.107C574.076 34.4297 573.92 34.0938 573.639 33.832C573.361 33.5664 573.018 33.4336 572.607 33.4336C572.057 33.4336 571.629 33.6328 571.324 34.0312C571.023 34.4258 570.873 34.998 570.873 35.748V35.9531C570.873 36.6836 571.023 37.2461 571.324 37.6406C571.625 38.0352 572.055 38.2324 572.613 38.2324ZM581.062 33.5391H578.936V39H577.852V33.5391H575.766V32.6602H581.062V33.5391ZM585.938 39C585.875 38.875 585.824 38.6523 585.785 38.332C585.281 38.8555 584.68 39.1172 583.98 39.1172C583.355 39.1172 582.842 38.9414 582.439 38.5898C582.041 38.2344 581.842 37.7852 581.842 37.2422C581.842 36.582 582.092 36.0703 582.592 35.707C583.096 35.3398 583.803 35.1562 584.713 35.1562H585.768V34.6582C585.768 34.2793 585.654 33.9785 585.428 33.7559C585.201 33.5293 584.867 33.416 584.426 33.416C584.039 33.416 583.715 33.5137 583.453 33.709C583.191 33.9043 583.061 34.1406 583.061 34.418H581.971C581.971 34.1016 582.082 33.7969 582.305 33.5039C582.531 33.207 582.836 32.9727 583.219 32.8008C583.605 32.6289 584.029 32.543 584.49 32.543C585.221 32.543 585.793 32.7266 586.207 33.0938C586.621 33.457 586.836 33.959 586.852 34.5996V37.5176C586.852 38.0996 586.926 38.5625 587.074 38.9062V39H585.938ZM584.139 38.1738C584.479 38.1738 584.801 38.0859 585.105 37.9102C585.41 37.7344 585.631 37.5059 585.768 37.2246V35.9238H584.918C583.59 35.9238 582.926 36.3125 582.926 37.0898C582.926 37.4297 583.039 37.6953 583.266 37.8867C583.492 38.0781 583.783 38.1738 584.139 38.1738ZM588.65 39V32.6602H591.123C591.967 32.6602 592.613 32.8086 593.062 33.1055C593.516 33.3984 593.742 33.8301 593.742 34.4004C593.742 34.6934 593.654 34.959 593.479 35.1973C593.303 35.4316 593.043 35.6113 592.699 35.7363C593.082 35.8262 593.389 36.002 593.619 36.2637C593.854 36.5254 593.971 36.8379 593.971 37.2012C593.971 37.7832 593.756 38.2285 593.326 38.5371C592.9 38.8457 592.297 39 591.516 39H588.65ZM589.734 36.2168V38.127H591.527C591.98 38.127 592.318 38.043 592.541 37.875C592.768 37.707 592.881 37.4707 592.881 37.166C592.881 36.5332 592.416 36.2168 591.486 36.2168H589.734ZM589.734 35.3496H591.135C592.15 35.3496 592.658 35.0527 592.658 34.459C592.658 33.8652 592.178 33.5586 591.217 33.5391H589.734V35.3496ZM599.508 32.6602H600.592V39H599.508V34.377L596.584 39H595.5V32.6602H596.584V37.2891L599.508 32.6602ZM607.043 33.5391H604.916V39H603.832V33.5391H601.746V32.6602H607.043V33.5391ZM609.281 34.8457H610.928C611.646 34.8535 612.215 35.041 612.633 35.4082C613.051 35.7754 613.26 36.2734 613.26 36.9023C613.26 37.5352 613.045 38.043 612.615 38.4258C612.186 38.8086 611.607 39 610.881 39H608.197V32.6602H609.281V34.8457ZM609.281 35.7305V38.1152H610.893C611.299 38.1152 611.613 38.0117 611.836 37.8047C612.059 37.5938 612.17 37.3066 612.17 36.9434C612.17 36.5918 612.061 36.3047 611.842 36.082C611.627 35.8555 611.324 35.7383 610.934 35.7305H609.281ZM621.076 34.3945C621.076 34.0977 620.963 33.8633 620.736 33.6914C620.51 33.5156 620.199 33.4277 619.805 33.4277C619.422 33.4277 619.102 33.5273 618.844 33.7266C618.59 33.9258 618.463 34.1602 618.463 34.4297H617.385C617.385 33.8789 617.615 33.4277 618.076 33.0762C618.537 32.7246 619.113 32.5488 619.805 32.5488C620.547 32.5488 621.125 32.709 621.539 33.0293C621.953 33.3457 622.16 33.7988 622.16 34.3887C622.16 34.6738 622.074 34.9355 621.902 35.1738C621.73 35.4121 621.486 35.6016 621.17 35.7422C621.908 35.9922 622.277 36.4844 622.277 37.2188C622.277 37.8008 622.053 38.2617 621.604 38.6016C621.154 38.9414 620.555 39.1113 619.805 39.1113C619.074 39.1113 618.471 38.9336 617.994 38.5781C617.521 38.2188 617.285 37.7344 617.285 37.125H618.363C618.363 37.4336 618.5 37.6992 618.773 37.9219C619.051 38.1406 619.395 38.25 619.805 38.25C620.219 38.25 620.553 38.1543 620.807 37.9629C621.061 37.7715 621.188 37.5234 621.188 37.2188C621.188 36.8633 621.08 36.6094 620.865 36.457C620.654 36.3008 620.324 36.2227 619.875 36.2227H618.791V35.3086H619.969C620.707 35.2891 621.076 34.9844 621.076 34.3945ZM627.598 39C627.535 38.875 627.484 38.6523 627.445 38.332C626.941 38.8555 626.34 39.1172 625.641 39.1172C625.016 39.1172 624.502 38.9414 624.1 38.5898C623.701 38.2344 623.502 37.7852 623.502 37.2422C623.502 36.582 623.752 36.0703 624.252 35.707C624.756 35.3398 625.463 35.1562 626.373 35.1562H627.428V34.6582C627.428 34.2793 627.314 33.9785 627.088 33.7559C626.861 33.5293 626.527 33.416 626.086 33.416C625.699 33.416 625.375 33.5137 625.113 33.709C624.852 33.9043 624.721 34.1406 624.721 34.418H623.631C623.631 34.1016 623.742 33.7969 623.965 33.5039C624.191 33.207 624.496 32.9727 624.879 32.8008C625.266 32.6289 625.689 32.543 626.15 32.543C626.881 32.543 627.453 32.7266 627.867 33.0938C628.281 33.457 628.496 33.959 628.512 34.5996V37.5176C628.512 38.0996 628.586 38.5625 628.734 38.9062V39H627.598ZM625.799 38.1738C626.139 38.1738 626.461 38.0859 626.766 37.9102C627.07 37.7344 627.291 37.5059 627.428 37.2246V35.9238H626.578C625.25 35.9238 624.586 36.3125 624.586 37.0898C624.586 37.4297 624.699 37.6953 624.926 37.8867C625.152 38.0781 625.443 38.1738 625.799 38.1738ZM635.057 32.6602V39H633.967V36.5332H632.332L630.838 39H629.666L631.26 36.3691C630.854 36.2207 630.541 35.9922 630.322 35.6836C630.107 35.3711 630 35.0078 630 34.5938C630 34.0156 630.217 33.5508 630.65 33.1992C631.084 32.8438 631.664 32.6641 632.391 32.6602H635.057ZM631.09 34.6055C631.09 34.9141 631.195 35.1641 631.406 35.3555C631.617 35.543 631.896 35.6387 632.244 35.6426H633.967V33.5391H632.408C632.006 33.5391 631.686 33.6387 631.447 33.8379C631.209 34.0332 631.09 34.2891 631.09 34.6055ZM636.896 39V32.6602H639.369C640.213 32.6602 640.859 32.8086 641.309 33.1055C641.762 33.3984 641.988 33.8301 641.988 34.4004C641.988 34.6934 641.9 34.959 641.725 35.1973C641.549 35.4316 641.289 35.6113 640.945 35.7363C641.328 35.8262 641.635 36.002 641.865 36.2637C642.1 36.5254 642.217 36.8379 642.217 37.2012C642.217 37.7832 642.002 38.2285 641.572 38.5371C641.146 38.8457 640.543 39 639.762 39H636.896ZM637.98 36.2168V38.127H639.773C640.227 38.127 640.564 38.043 640.787 37.875C641.014 37.707 641.127 37.4707 641.127 37.166C641.127 36.5332 640.662 36.2168 639.732 36.2168H637.98ZM637.98 35.3496H639.381C640.396 35.3496 640.904 35.0527 640.904 34.459C640.904 33.8652 640.424 33.5586 639.463 33.5391H637.98V35.3496ZM645.627 36.2988H644.836V39H643.746V32.6602H644.836V35.3438H645.545L647.678 32.6602H648.99L646.482 35.707L649.201 39H647.824L645.627 36.2988ZM652.207 37.4121L653.684 32.6602H654.844L652.295 39.9785C651.9 41.0332 651.273 41.5605 650.414 41.5605L650.209 41.543L649.805 41.4668V40.5879L650.098 40.6113C650.465 40.6113 650.75 40.5371 650.953 40.3887C651.16 40.2402 651.33 39.9688 651.463 39.5742L651.703 38.9297L649.441 32.6602H650.625L652.207 37.4121Z" fill="white"></path>
    <path d="M242.738 52.339L241.339 50.9435C240.84 50.4451 239.991 50.6444 239.791 51.2923C239.641 51.7409 239.142 51.9901 238.692 51.8904C237.693 51.6412 236.345 50.3454 236.095 49.2987C235.945 48.8501 236.245 48.3517 236.694 48.2022C237.344 48.0029 237.543 47.1556 237.044 46.6572L235.646 45.2617C235.246 44.9128 234.647 44.9128 234.297 45.2617L233.348 46.2086C232.399 47.2054 233.448 49.847 235.795 52.1895C238.143 54.532 240.79 55.6285 241.789 54.6316L242.738 53.6847C243.087 53.2859 243.087 52.6879 242.738 52.339Z" fill="white" fill-opacity="0.7"></path>
</svg>