<svg class="img-responsive mx-auto banner d-none d-sm-none d-xs-block d-md-block d-lg-block" fill="none" xmlns="http://www.w3.org/2000/svg" viewBox="0 0 728 90"><rect width="728" height="90" rx="8" fill="#091E42"/><path d="M0 70h728v12a8 8 0 0 1-8 8H8a8 8 0 0 1-8-8V70Z" fill="#003795"/><path d="M238.045 81.732c0-.3-.107-.535-.322-.703-.211-.168-.584-.341-1.119-.521-.536-.18-.973-.354-1.313-.522-1.105-.543-1.658-1.289-1.658-2.238 0-.473.137-.889.41-1.248.277-.363.668-.644 1.172-.844.504-.203 1.07-.304 1.699-.304.613 0 1.162.109 1.647.328.488.218.867.53 1.136.937.27.402.405.864.405 1.383h-2.051c0-.348-.108-.617-.322-.809-.211-.191-.499-.287-.862-.287-.367 0-.658.082-.873.246a.74.74 0 0 0-.316.616c0 .218.117.418.351.597.235.176.647.36 1.237.551.589.188 1.074.39 1.453.61.922.53 1.383 1.263 1.383 2.197 0 .746-.282 1.332-.844 1.757-.563.426-1.334.64-2.315.64a4.648 4.648 0 0 1-1.881-.37c-.558-.25-.98-.59-1.265-1.02a2.686 2.686 0 0 1-.422-1.494h2.063c0 .457.117.795.351 1.014.238.215.623.322 1.154.322.34 0 .608-.072.803-.216a.731.731 0 0 0 .299-.622Zm6.012-.908-.844.926V84h-2.057v-8.531h2.057v3.762l.715-1.084 1.84-2.678h2.543l-2.883 3.773L248.311 84h-2.438l-1.816-3.176Zm10.148-.222h-3.316V84h-2.057v-8.531h5.707v1.588h-3.65v1.962h3.316v1.583ZM305.018 80.602h-3.317V84h-2.056v-8.531h5.707v1.588h-3.651v1.962h3.317v1.583Zm4.91 1.804h-2.819L306.617 84h-2.197l3.129-8.531h1.933L312.635 84h-2.209l-.498-1.594Zm-2.326-1.588h1.834l-.92-2.959-.914 2.96Zm12.515 2.127c-.316.352-.779.635-1.388.85a5.994 5.994 0 0 1-2.004.322c-1.118 0-2.01-.342-2.678-1.025-.668-.684-1.026-1.635-1.072-2.854l-.006-.738c0-.84.148-1.572.445-2.197.297-.63.721-1.112 1.272-1.447.554-.34 1.195-.51 1.921-.51 1.063 0 1.887.244 2.473.732.59.484.934 1.21 1.031 2.174h-1.98c-.07-.477-.223-.816-.457-1.02-.235-.203-.567-.304-.996-.304-.516 0-.914.219-1.196.656-.281.438-.423 1.063-.427 1.875v.516c0 .851.144 1.492.433 1.922.293.425.752.638 1.377.638.535 0 .934-.119 1.196-.357v-1.325h-1.43v-1.412h3.486v3.504ZM456.77 84h-2.045l-3.024-5.309V84h-2.056v-8.531h2.056l3.018 5.308V75.47h2.051V84Zm5.701-2.268c0-.3-.108-.535-.323-.703-.21-.168-.584-.341-1.119-.521a10.77 10.77 0 0 1-1.312-.522c-1.106-.543-1.658-1.289-1.658-2.238a2 2 0 0 1 .41-1.248c.277-.363.668-.644 1.172-.844.504-.203 1.07-.304 1.699-.304.613 0 1.162.109 1.646.328.489.218.868.53 1.137.937.27.402.404.864.404 1.383h-2.05c0-.348-.108-.617-.323-.809-.211-.191-.498-.287-.861-.287-.367 0-.658.082-.873.246a.74.74 0 0 0-.316.616c0 .218.117.418.351.597.234.176.647.36 1.236.551.59.188 1.075.39 1.454.61.921.53 1.382 1.263 1.382 2.197 0 .746-.281 1.332-.843 1.757-.563.426-1.334.64-2.315.64a4.648 4.648 0 0 1-1.881-.37c-.558-.25-.98-.59-1.265-1.02a2.678 2.678 0 0 1-.422-1.494h2.062c0 .457.117.795.352 1.014.238.215.623.322 1.154.322.34 0 .608-.072.803-.216a.731.731 0 0 0 .299-.622Zm6.011-.908-.843.926V84h-2.057v-8.531h2.057v3.762l.715-1.084 1.839-2.678h2.543l-2.882 3.773L472.736 84h-2.437l-1.817-3.176ZM372.342 77.057h-2.561V84h-2.056v-6.943h-2.514v-1.588h7.131v1.588ZM375.207 84h-1.98v-6.34h1.98V84Zm-2.098-7.975c0-.28.102-.511.305-.691.203-.18.467-.27.791-.27s.588.09.791.27c.203.18.305.41.305.691a.882.882 0 0 1-.305.692c-.203.18-.467.27-.791.27s-.588-.09-.791-.27a.882.882 0 0 1-.305-.692Zm5.186 1.635.064.744c.45-.574 1.053-.861 1.811-.861.801 0 1.342.318 1.623.955.43-.637 1.051-.955 1.863-.955 1.285 0 1.946.777 1.981 2.332V84h-1.981v-4.002c0-.324-.054-.56-.164-.709-.109-.148-.308-.223-.597-.223-.391 0-.682.174-.874.522l.006.082V84h-1.98v-3.99c0-.332-.053-.573-.158-.72-.106-.15-.307-.224-.604-.224-.379 0-.668.174-.867.522V84h-1.975v-6.34h1.852Zm11.016 3.979-.557.556V84h-1.975v-9.006h1.975v4.781l.199-.263 1.488-1.852h2.368l-2.221 2.608L392.955 84h-2.262l-1.382-2.361Zm6.966 2.478c-.972 0-1.759-.289-2.361-.867-.602-.582-.902-1.338-.902-2.268v-.164c0-.648.119-1.22.357-1.716a2.636 2.636 0 0 1 1.055-1.149c.461-.273 1.008-.41 1.64-.41.891 0 1.594.277 2.11.832.515.55.773 1.32.773 2.309v.767h-3.926c.071.356.225.635.463.838.239.203.547.305.926.305.625 0 1.113-.219 1.465-.656l.902 1.066c-.246.34-.595.611-1.049.814-.449.2-.933.3-1.453.3Zm-.222-5.05c-.578 0-.922.382-1.032 1.148h1.993v-.153c.007-.316-.073-.56-.241-.732-.168-.176-.408-.264-.72-.264Zm5.507-1.407.065.744c.437-.574 1.041-.861 1.811-.861.66 0 1.152.197 1.476.592.328.394.498.988.51 1.781V84h-1.981v-4.002c0-.32-.064-.555-.193-.703-.129-.152-.363-.229-.703-.229-.387 0-.674.153-.861.457V84h-1.975v-6.34h1.851ZM38.355 27.642h-6.402V45h-5.142V27.642h-6.284v-3.97h17.828v3.97Zm15.41 8.32h-8.086v5.083h9.55V45H40.538V23.672H55.26v3.97h-9.58v4.497h8.086v3.823Zm20.815 1.816c-.068 1.485-.469 2.798-1.201 3.94-.733 1.134-1.763 2.012-3.09 2.637-1.32.626-2.828.938-4.527.938-2.803 0-5.01-.913-6.621-2.74-1.612-1.825-2.417-4.404-2.417-7.734v-1.054c0-2.09.361-3.916 1.084-5.479.732-1.572 1.782-2.783 3.149-3.633 1.367-.86 2.95-1.289 4.746-1.289 2.588 0 4.668.684 6.24 2.051 1.573 1.358 2.466 3.233 2.681 5.625h-5.127c-.039-1.299-.366-2.231-.981-2.798-.616-.566-1.553-.85-2.813-.85-1.28 0-2.217.48-2.812 1.436-.596.957-.909 2.486-.938 4.585v1.509c0 2.275.283 3.901.85 4.878.576.976 1.562 1.465 2.959 1.465 1.181 0 2.085-.279 2.71-.835.625-.557.957-1.44.996-2.652h5.112ZM94.84 45h-5.112v-8.906h-7.574V45h-5.141V23.672h5.141v8.467h7.574v-8.467h5.112V45Zm8.745 0h-5.127V23.672h5.127V45Zm21.387 0h-5.113L112.3 31.729V45h-5.142V23.672h5.142l7.544 13.271V23.672h5.127V45Zm19.555-17.358h-6.401V45h-5.142V27.642h-6.284v-3.97h17.827v3.97Zm19.834 7.133c0 2.08-.385 3.921-1.157 5.523-.771 1.601-1.87 2.837-3.296 3.706-1.416.86-3.032 1.289-4.848 1.289-1.817 0-3.428-.415-4.834-1.245-1.407-.84-2.505-2.036-3.296-3.589-.782-1.553-1.192-3.335-1.231-5.347v-1.2c0-2.09.381-3.931 1.143-5.523.771-1.602 1.87-2.837 3.296-3.706 1.435-.87 3.066-1.304 4.892-1.304 1.807 0 3.418.43 4.834 1.289 1.416.86 2.515 2.085 3.296 3.677.791 1.582 1.192 3.398 1.201 5.449v.981Zm-5.229-.893c0-2.12-.357-3.726-1.069-4.82-.704-1.103-1.714-1.655-3.033-1.655-2.578 0-3.94 1.934-4.087 5.801l-.014 1.567c0 2.09.346 3.697 1.04 4.82.693 1.123 1.723 1.684 3.091 1.684 1.298 0 2.299-.552 3.003-1.655.703-1.104 1.059-2.69 1.069-4.76v-.982Zm15.806 3.589h-2.784V45h-5.141V23.672h8.393c2.53 0 4.507.561 5.933 1.684 1.426 1.123 2.139 2.71 2.139 4.761 0 1.485-.303 2.715-.909 3.692-.595.976-1.533 1.767-2.812 2.373l4.453 8.598V45h-5.508l-3.764-7.53Zm-2.784-3.97h3.252c.977 0 1.709-.254 2.198-.762.498-.517.747-1.235.747-2.153 0-.918-.249-1.636-.747-2.153-.499-.528-1.231-.791-2.198-.791h-3.252V33.5Zm31.89 8.862c-.791.88-1.948 1.587-3.472 2.124-1.523.537-3.193.806-5.009.806-2.793 0-5.025-.855-6.695-2.563-1.67-1.71-2.563-4.087-2.68-7.134l-.015-1.846c0-2.1.371-3.93 1.113-5.493.742-1.572 1.802-2.779 3.179-3.618 1.387-.85 2.988-1.275 4.805-1.275 2.656 0 4.716.61 6.181 1.831 1.475 1.211 2.334 3.023 2.578 5.435h-4.951c-.176-1.191-.556-2.041-1.142-2.549-.586-.508-1.416-.762-2.491-.762-1.289 0-2.285.547-2.988 1.641-.703 1.094-1.06 2.656-1.069 4.688v1.288c0 2.13.361 3.731 1.084 4.805.732 1.065 1.88 1.597 3.442 1.597 1.338 0 2.334-.298 2.988-.894v-3.31h-3.574v-3.53h8.716v8.76ZM241.492 23.625h1.5V35h-1.5v-8.766L235.891 35h-1.508V23.625h1.508v8.766l5.601-8.766Zm8.875 9.46 2.875-6.538h1.805V35h-1.445v-6.148L250.867 35h-1l-2.789-6.281V35h-1.445v-8.453h1.875l2.859 6.539ZM264.289 35h-1.445v-7.258h-3.891V35H257.5v-8.453h6.789V35Zm1.938-4.305c0-.828.161-1.573.484-2.234.328-.662.781-1.172 1.359-1.531.584-.36 1.248-.54 1.992-.54 1.152 0 2.081.4 2.79 1.196.713.797 1.07 1.857 1.07 3.18v.101c0 .823-.159 1.563-.477 2.219a3.559 3.559 0 0 1-1.351 1.523c-.584.365-1.255.547-2.016.547-1.146 0-2.075-.398-2.789-1.195-.708-.797-1.062-1.852-1.062-3.164v-.102Zm1.453.172c0 .938.216 1.69.648 2.258.438.568 1.021.852 1.75.852.734 0 1.318-.287 1.75-.86.432-.578.649-1.385.649-2.422 0-.927-.222-1.677-.665-2.25-.437-.578-1.02-.867-1.75-.867-.713 0-1.289.284-1.726.852-.438.567-.656 1.38-.656 2.437Zm15.195 0c0 1.287-.294 2.323-.883 3.11-.588.786-1.385 1.18-2.39 1.18-1.026 0-1.834-.326-2.422-.977v4.07h-1.446V26.547h1.321l.07.937c.589-.729 1.406-1.093 2.453-1.093 1.016 0 1.818.382 2.406 1.148.594.766.891 1.83.891 3.195v.133Zm-1.445-.164c0-.953-.203-1.706-.61-2.258-.406-.552-.963-.828-1.672-.828-.875 0-1.531.388-1.968 1.164v4.04c.432.77 1.093 1.156 1.984 1.156.693 0 1.242-.274 1.648-.82.412-.553.618-1.37.618-2.454Zm8.945-2.984h-2.836V35h-1.445v-7.281h-2.782v-1.172h7.063v1.172ZM298.688 35h-1.446v-3.61h-3.883V35h-1.453v-8.453h1.453v3.664h3.883v-3.664h1.446V35Zm3.906-5.54h2.195c.958.011 1.716.261 2.273.75.558.49.836 1.155.836 1.993 0 .844-.286 1.521-.859 2.031-.573.51-1.344.766-2.312.766h-3.579v-8.453h1.446v2.914Zm8.32 5.54h-1.453v-8.453h1.453V35Zm-8.32-4.36v3.18h2.148c.542 0 .961-.138 1.258-.414.297-.281.445-.664.445-1.148 0-.469-.146-.852-.437-1.149-.287-.302-.69-.458-1.211-.468h-2.203Zm14.351 4.516c-1.146 0-2.078-.375-2.797-1.125-.718-.755-1.078-1.763-1.078-3.023v-.266c0-.838.159-1.586.477-2.242.323-.662.771-1.177 1.344-1.547a3.38 3.38 0 0 1 1.875-.562c1.099 0 1.953.362 2.562 1.086.61.724.914 1.76.914 3.109v.602h-5.726c.02.833.263 1.507.726 2.023.469.51 1.063.766 1.781.766.511 0 .943-.105 1.297-.313.354-.208.664-.484.93-.828l.883.687c-.709 1.089-1.771 1.633-3.188 1.633Zm-.179-7.578c-.584 0-1.073.214-1.469.64-.396.423-.641 1.016-.735 1.782h4.235v-.11c-.042-.734-.24-1.302-.594-1.703-.354-.406-.833-.609-1.437-.609ZM332.805 35h-1.446v-7.258h-3.89V35h-1.453v-8.453h6.789V35Zm1.937-4.305c0-.828.162-1.573.485-2.234.328-.662.781-1.172 1.359-1.531.583-.36 1.247-.54 1.992-.54 1.151 0 2.081.4 2.789 1.196.714.797 1.071 1.857 1.071 3.18v.101c0 .823-.159 1.563-.477 2.219a3.561 3.561 0 0 1-1.352 1.523c-.583.365-1.255.547-2.015.547-1.146 0-2.076-.398-2.789-1.195-.709-.797-1.063-1.852-1.063-3.164v-.102Zm1.453.172c0 .938.216 1.69.649 2.258.437.568 1.021.852 1.75.852.734 0 1.317-.287 1.75-.86.432-.578.648-1.385.648-2.422 0-.927-.221-1.677-.664-2.25-.437-.578-1.021-.867-1.75-.867-.713 0-1.289.284-1.726.852-.438.567-.657 1.38-.657 2.437Zm7.422 2.953.5-.617c.563-.729.883-1.823.961-3.281l.133-3.375h5.445v7.273h1.086v3.664h-1.445V35h-5.899v2.484h-1.445l.008-3.664h.656Zm1.711 0h3.883v-5.937h-2.602l-.086 2.015c-.088 1.683-.487 2.99-1.195 3.922Zm9.594-7.273v7.273h3.094v-7.273h1.445v7.273h3.086v-7.273H364V35h-10.531v-8.453h1.453Zm16.828 0h1.445V35h-1.445v-6.164L367.852 35h-1.446v-8.453h1.446v6.172l3.898-6.172ZM382.43 35h-1.446v-7.258h-3.89V35h-1.453v-8.453h6.789V35Zm9.226 0h-1.445v-3.61h-3.883V35h-1.453v-8.453h1.453v3.664h3.883v-3.664h1.445V35Zm7.797-8.453h1.445V35h-1.445v-6.164L395.555 35h-1.446v-8.453h1.446v6.172l3.898-6.172Zm6.399 4.851h-1.055V35h-1.453v-8.453h1.453v3.578h.945l2.844-3.578h1.75l-3.344 4.062L410.617 35h-1.836l-2.929-3.602Zm11.476-4.851h1.445V35h-1.445v-6.164L413.43 35h-1.446v-8.453h1.446v6.172l3.898-6.172Zm7.352 4.148c0-.828.161-1.573.484-2.234.328-.662.781-1.172 1.359-1.531.584-.36 1.248-.54 1.993-.54 1.151 0 2.08.4 2.789 1.196.713.797 1.07 1.857 1.07 3.18v.101c0 .823-.159 1.563-.477 2.219a3.559 3.559 0 0 1-1.351 1.523c-.583.365-1.255.547-2.016.547-1.146 0-2.075-.398-2.789-1.195-.708-.797-1.062-1.852-1.062-3.164v-.102Zm1.453.172c0 .938.216 1.69.648 2.258.438.568 1.021.852 1.75.852.735 0 1.318-.287 1.75-.86.433-.578.649-1.385.649-2.422 0-.927-.222-1.677-.664-2.25-.438-.578-1.021-.867-1.75-.867-.714 0-1.289.284-1.727.852-.437.567-.656 1.38-.656 2.437ZM441.102 35h-1.446v-7.258h-3.89V35h-1.454v-8.453h6.79V35Zm8.601-7.281h-2.836V35h-1.445v-7.281h-2.781v-1.172h7.062v1.172Zm.695 2.976c0-.828.162-1.573.485-2.234.328-.662.781-1.172 1.359-1.531.584-.36 1.248-.54 1.992-.54 1.151 0 2.081.4 2.789 1.196.714.797 1.071 1.857 1.071 3.18v.101c0 .823-.159 1.563-.477 2.219a3.559 3.559 0 0 1-1.351 1.523c-.584.365-1.256.547-2.016.547-1.146 0-2.076-.398-2.789-1.195-.708-.797-1.063-1.852-1.063-3.164v-.102Zm1.454.172c0 .938.216 1.69.648 2.258.438.568 1.021.852 1.75.852.734 0 1.318-.287 1.75-.86.432-.578.648-1.385.648-2.422 0-.927-.221-1.677-.664-2.25-.437-.578-1.02-.867-1.75-.867-.713 0-1.289.284-1.726.852-.438.567-.656 1.38-.656 2.437Zm12.921 2.219 2.875-6.54h1.805V35h-1.445v-6.148L465.273 35h-1l-2.789-6.281V35h-1.445v-8.453h1.875l2.859 6.539Z" fill="#fff"/><path opacity=".7" d="M253.271 49.187h1.983v.854h-1.983v2.246h-.908v-2.246h-1.982v-.854h1.982V47.11h.908v2.076Zm7.583-2.789L257.91 53h-.947l2.934-6.367h-3.847v-.742h4.804v.507Zm3.565 3.716c0-.735.098-1.442.293-2.119a6.178 6.178 0 0 1 .884-1.846c.39-.553.796-.944 1.216-1.172l.185.596c-.475.365-.866.922-1.172 1.67-.303.749-.469 1.587-.498 2.515l-.005.415c0 1.256.23 2.347.689 3.271.276.554.605.987.986 1.3l-.185.55c-.433-.24-.847-.644-1.241-1.21-.768-1.107-1.152-2.43-1.152-3.97Zm6.821-.239a2.208 2.208 0 0 1-.678.542 1.823 1.823 0 0 1-.86.205c-.41 0-.768-.1-1.074-.303a1.974 1.974 0 0 1-.703-.85 2.922 2.922 0 0 1-.249-1.215c0-.475.089-.903.268-1.284.183-.381.44-.672.772-.874a2.192 2.192 0 0 1 1.162-.303c.703 0 1.256.264 1.66.791.407.524.61 1.24.61 2.148v.264c0 1.384-.273 2.394-.82 3.032-.547.635-1.372.96-2.475.977h-.176v-.762h.19c.746-.013 1.319-.207 1.719-.58.4-.378.618-.974.654-1.788Zm-1.391 0c.302 0 .581-.093.835-.278.257-.186.444-.415.561-.689v-.361c0-.593-.128-1.074-.386-1.445-.257-.371-.582-.557-.976-.557-.397 0-.716.153-.957.459-.241.303-.362.703-.362 1.201 0 .485.116.886.347 1.201.235.313.547.469.938.469ZM278.052 53h-4.658v-.65l2.46-2.734c.365-.413.616-.748.752-1.006.14-.26.21-.529.21-.805 0-.371-.112-.676-.337-.913-.224-.238-.524-.357-.898-.357-.449 0-.799.129-1.05.386-.247.254-.371.609-.371 1.064h-.903c0-.654.21-1.183.63-1.587.423-.403.988-.605 1.694-.605.661 0 1.183.174 1.567.522.385.346.577.806.577 1.382 0 .7-.446 1.533-1.338 2.5l-1.905 2.066h3.57V53Zm1.372-3.565.361-3.544h3.643v.835h-2.876l-.215 1.938a2.293 2.293 0 0 1 1.186-.308c.648 0 1.163.215 1.543.645.381.426.572 1.004.572 1.733 0 .733-.199 1.31-.596 1.734-.394.42-.946.63-1.655.63-.629 0-1.141-.175-1.538-.523-.398-.348-.624-.83-.679-1.445h.854c.056.407.201.714.435.923.234.205.544.307.928.307.42 0 .748-.143.986-.43.241-.286.361-.681.361-1.186 0-.475-.13-.856-.39-1.142-.257-.29-.601-.435-1.031-.435-.393 0-.703.086-.927.259l-.24.195-.722-.186Zm7.378.728a7.52 7.52 0 0 1-.288 2.09 6.102 6.102 0 0 1-.874 1.84c-.391.564-.801.964-1.231 1.202l-.19-.552c.501-.384.903-.98 1.206-1.787.306-.81.462-1.709.469-2.695v-.157c0-.683-.072-1.318-.215-1.904a6.404 6.404 0 0 0-.601-1.582c-.254-.465-.54-.828-.859-1.089l.19-.552c.43.238.838.635 1.226 1.192.39.557.682 1.17.874 1.84.195.671.293 1.39.293 2.154Zm8.369-3.765L292.227 53h-.948l2.935-6.367h-3.848v-.742h4.805v.507Zm5.483 3.57c0 1.058-.18 1.844-.542 2.358-.361.514-.926.772-1.694.772-.758 0-1.32-.251-1.685-.752-.364-.505-.553-1.257-.566-2.256v-1.206c0-1.045.181-1.822.542-2.33.361-.507.928-.761 1.699-.761.765 0 1.328.246 1.69.737.361.489.547 1.244.556 2.266v1.172Zm-.903-1.236c0-.765-.107-1.321-.322-1.67-.215-.351-.555-.527-1.021-.527-.462 0-.799.174-1.011.523-.211.348-.32.883-.327 1.606v1.445c0 .769.111 1.337.332 1.704.225.365.563.547 1.016.547.446 0 .776-.172.991-.517.218-.345.332-.889.342-1.631v-1.48Zm6.519 1.236c0 1.058-.181 1.844-.542 2.358-.362.514-.927.772-1.695.772-.758 0-1.32-.251-1.684-.752-.365-.505-.554-1.257-.567-2.256v-1.206c0-1.045.181-1.822.542-2.33.362-.507.928-.761 1.699-.761.765 0 1.329.246 1.69.737.361.489.547 1.244.557 2.266v1.172Zm-.904-1.236c0-.765-.107-1.321-.322-1.67-.215-.351-.555-.527-1.021-.527-.462 0-.799.174-1.01.523-.212.348-.321.883-.327 1.606v1.445c0 .769.11 1.337.332 1.704.224.365.563.547 1.015.547.446 0 .777-.172.991-.517.219-.345.332-.889.342-1.631v-1.48Zm4.033 1.617h-2.382v-.738h2.382v.738Zm3.76 2.651h-.908v-6.02l-1.821.668v-.82l2.588-.972h.141V53Zm7.237-6.602L317.451 53h-.947l2.934-6.367h-3.847v-.742h4.805v.507Zm2.998 3.95h-2.383v-.737h2.383v.738Zm4.335-4.462v.766h-.166c-.703.013-1.263.222-1.679.625-.417.404-.658.972-.723 1.704.374-.43.886-.644 1.533-.644.619 0 1.112.218 1.48.654.371.436.556 1 .556 1.69 0 .732-.2 1.318-.6 1.758-.397.439-.931.659-1.602.659-.68 0-1.232-.26-1.655-.782-.423-.524-.635-1.198-.635-2.021v-.347c0-1.308.279-2.308.835-2.998.56-.693 1.392-1.048 2.495-1.064h.161Zm-1.186 3.203c-.309 0-.594.093-.855.278-.26.186-.441.419-.542.698v.333c0 .585.132 1.057.396 1.415.264.358.592.538.986.538.407 0 .726-.15.957-.45.235-.3.352-.691.352-1.176 0-.489-.119-.883-.357-1.182a1.124 1.124 0 0 0-.937-.454ZM334.458 53H329.8v-.65l2.461-2.734c.364-.413.615-.748.752-1.006.14-.26.21-.529.21-.805 0-.371-.113-.676-.337-.913-.225-.238-.524-.357-.899-.357-.449 0-.799.129-1.049.386-.248.254-.372.609-.372 1.064h-.903c0-.654.21-1.183.63-1.587.423-.403.988-.605 1.694-.605.661 0 1.184.174 1.568.522.384.346.576.806.576 1.382 0 .7-.446 1.533-1.338 2.5l-1.904 2.066h3.569V53Z" fill="#fff" fill-opacity=".8"/><path d="M372.665 53h-.903v-5.283h.903V53Zm-.977-6.685c0-.146.044-.27.132-.37.091-.102.225-.152.401-.152.175 0 .309.05.4.151.091.101.137.225.137.371a.517.517 0 0 1-.137.367c-.091.097-.225.146-.4.146-.176 0-.31-.049-.401-.146a.526.526 0 0 1-.132-.367Zm3.282 1.402.029.664a1.926 1.926 0 0 1 1.582-.762c1.117 0 1.68.63 1.69 1.89V53h-.904v-3.496c-.003-.381-.091-.662-.263-.845-.17-.182-.435-.273-.796-.273-.293 0-.551.078-.772.234a1.587 1.587 0 0 0-.517.615V53h-.904v-5.283h.855ZM380.077 53v-4.585h-.835v-.698h.835v-.542c0-.567.152-1.004.454-1.314.303-.309.731-.463 1.284-.463.209 0 .415.027.621.082l-.049.733a2.598 2.598 0 0 0-.489-.044c-.293 0-.519.086-.678.259-.16.169-.24.413-.24.732v.557h1.128v.698h-1.128V53h-.903Zm2.793-2.69c0-.518.101-.983.303-1.397.205-.413.488-.732.849-.957.365-.225.78-.337 1.246-.337.719 0 1.3.25 1.743.747.446.498.669 1.16.669 1.987v.064c0 .514-.1.977-.298 1.387a2.223 2.223 0 0 1-.845.952 2.325 2.325 0 0 1-1.26.342c-.716 0-1.297-.25-1.743-.747-.443-.498-.664-1.158-.664-1.978v-.063Zm.908.107c0 .586.135 1.056.406 1.411a1.31 1.31 0 0 0 1.093.532 1.3 1.3 0 0 0 1.094-.537c.27-.361.405-.866.405-1.513 0-.58-.138-1.049-.415-1.407a1.302 1.302 0 0 0-1.093-.542 1.3 1.3 0 0 0-1.08.533c-.273.354-.41.862-.41 1.523Zm12.837.132c-.039.788-.234 1.41-.586 1.865-.351.456-.822.684-1.411.684-.609 0-.999-.274-1.172-.82a1.865 1.865 0 0 1-.605.62c-.225.133-.458.2-.698.2-.463 0-.813-.19-1.05-.567-.238-.377-.326-.9-.264-1.567a4.318 4.318 0 0 1 .366-1.436c.199-.423.453-.755.762-.996.313-.24.64-.361.981-.361.264 0 .5.036.708.107.209.069.443.205.704.41l-.254 2.706c-.062.752.146 1.128.625 1.128.368 0 .665-.183.893-.547.228-.365.352-.84.371-1.426.062-1.266-.174-2.232-.708-2.896-.53-.664-1.339-.996-2.426-.996-.655 0-1.236.163-1.744.489-.507.322-.908.789-1.201 1.4-.293.613-.457 1.32-.493 2.12-.039.807.059 1.509.293 2.105.234.592.591 1.044 1.069 1.357.482.316 1.063.474 1.744.474.293 0 .585-.036.878-.108.297-.072.542-.164.738-.278l.18.561c-.201.127-.47.231-.805.313a4.23 4.23 0 0 1-1.011.122c-.814 0-1.514-.184-2.1-.552-.586-.364-1.025-.892-1.318-1.582-.29-.687-.415-1.49-.376-2.412.039-.895.239-1.7.601-2.412.361-.716.851-1.268 1.469-1.655.619-.391 1.317-.586 2.095-.586.811 0 1.506.182 2.085.547.58.364 1.011.89 1.294 1.577.283.687.405 1.49.366 2.412Zm-5.01.415c-.045.462-.003.817.127 1.064a.668.668 0 0 0 .63.371c.196 0 .383-.083.562-.249.182-.166.332-.403.449-.712l.005-.044.225-2.456a1.26 1.26 0 0 0-.586-.142c-.381 0-.697.194-.948.581-.247.387-.402.916-.464 1.587Zm10.655-.547c0 .804-.184 1.452-.552 1.943-.368.492-.866.738-1.494.738-.641 0-1.146-.204-1.514-.61v2.543h-.903v-7.314h.825l.044.586c.368-.456.879-.684 1.533-.684.635 0 1.136.24 1.504.718.371.478.557 1.144.557 1.997v.083Zm-.904-.102c0-.596-.127-1.067-.38-1.412-.254-.345-.603-.517-1.045-.517-.547 0-.957.242-1.231.727v2.525c.27.482.684.722 1.24.722.433 0 .777-.17 1.031-.512.257-.345.385-.856.385-1.533Zm1.817-.005c0-.518.101-.983.303-1.397.205-.413.488-.732.849-.957.365-.225.78-.337 1.245-.337.72 0 1.301.25 1.743.747.446.498.669 1.16.669 1.987v.064c0 .514-.099.977-.297 1.387a2.23 2.23 0 0 1-.845.952 2.33 2.33 0 0 1-1.26.342c-.716 0-1.297-.25-1.743-.747-.443-.498-.664-1.158-.664-1.978v-.063Zm.908.107c0 .586.135 1.056.405 1.411.274.355.638.532 1.094.532a1.3 1.3 0 0 0 1.094-.537c.27-.361.405-.866.405-1.513 0-.58-.138-1.049-.415-1.407a1.303 1.303 0 0 0-1.094-.542c-.446 0-.805.178-1.079.533-.273.354-.41.862-.41 1.523Zm4.815-.102c0-.811.192-1.462.576-1.954.384-.494.887-.742 1.508-.742.619 0 1.109.212 1.47.635V45.5h.904V53h-.831l-.044-.566c-.361.442-.864.664-1.508.664-.612 0-1.112-.251-1.499-.752-.384-.502-.576-1.156-.576-1.963v-.069Zm.903.102c0 .599.124 1.068.371 1.406.247.339.589.508 1.025.508.573 0 .992-.257 1.255-.771v-2.427c-.27-.498-.685-.747-1.245-.747-.443 0-.788.17-1.035.512-.247.342-.371.848-.371 1.519Zm8.037 1.182a.658.658 0 0 0-.278-.567c-.183-.136-.503-.254-.962-.351-.456-.098-.819-.215-1.089-.352-.267-.137-.466-.3-.596-.488a1.178 1.178 0 0 1-.19-.674c0-.433.182-.8.547-1.099.367-.3.836-.449 1.406-.449.599 0 1.084.155 1.455.464.374.31.561.705.561 1.187h-.908c0-.248-.106-.461-.317-.64-.208-.18-.472-.269-.791-.269-.329 0-.586.072-.772.215a.677.677 0 0 0-.278.562c0 .218.086.382.259.493.172.11.483.216.932.317.453.101.819.222 1.099.362.28.14.487.309.62.507.137.196.205.435.205.718 0 .472-.189.851-.566 1.138-.378.283-.868.425-1.47.425-.423 0-.797-.075-1.123-.225a1.858 1.858 0 0 1-.767-.625 1.534 1.534 0 0 1-.273-.874h.903a.947.947 0 0 0 .362.723c.228.175.527.263.898.263.342 0 .615-.068.82-.205.209-.14.313-.325.313-.556Zm2.983-3.243c.401-.491.922-.737 1.563-.737 1.116 0 1.68.63 1.689 1.89V53h-.903v-3.496c-.003-.381-.091-.662-.264-.845-.169-.182-.434-.273-.796-.273-.293 0-.55.078-.771.234a1.598 1.598 0 0 0-.518.615V53h-.903v-7.5h.903v2.856ZM426.405 53h-.903v-5.283h.903V53Zm-.976-6.685c0-.146.044-.27.132-.37.091-.102.224-.152.4-.152.176 0 .309.05.4.151.091.101.137.225.137.371a.517.517 0 0 1-.137.367c-.091.097-.224.146-.4.146-.176 0-.309-.049-.4-.146a.526.526 0 0 1-.132-.367Zm6.889 4.102c0 .804-.184 1.452-.551 1.943-.368.492-.866.738-1.495.738-.641 0-1.145-.204-1.513-.61v2.543h-.904v-7.314h.826l.044.586c.367-.456.879-.684 1.533-.684.635 0 1.136.24 1.504.718.371.478.556 1.144.556 1.997v.083Zm-.903-.102c0-.596-.127-1.067-.381-1.412s-.602-.517-1.045-.517c-.547 0-.957.242-1.23.727v2.525c.27.482.683.722 1.24.722.433 0 .776-.17 1.03-.512.257-.345.386-.856.386-1.533Zm2.91-2.598.029.664a1.926 1.926 0 0 1 1.583-.762c1.116 0 1.679.63 1.689 1.89V53h-.903v-3.496c-.004-.381-.091-.662-.264-.845-.169-.182-.435-.273-.796-.273-.293 0-.55.078-.771.234a1.59 1.59 0 0 0-.518.615V53h-.903v-5.283h.854ZM439.97 53h-.904v-5.283h.904V53Zm-.977-6.685c0-.146.044-.27.132-.37.091-.102.225-.152.4-.152.176 0 .31.05.401.151.091.101.136.225.136.371a.516.516 0 0 1-.136.367c-.091.097-.225.146-.401.146-.175 0-.309-.049-.4-.146a.526.526 0 0 1-.132-.367Zm3.902 4.239-.567.59V53h-.903v-7.5h.903v4.536l.484-.58 1.645-1.74h1.099l-2.056 2.208L445.795 53h-1.06l-1.84-2.446Zm3.354-.244c0-.518.101-.983.303-1.397.205-.413.488-.732.849-.957.365-.225.78-.337 1.245-.337.72 0 1.301.25 1.744.747.446.498.669 1.16.669 1.987v.064c0 .514-.1.977-.298 1.387a2.23 2.23 0 0 1-.845.952 2.328 2.328 0 0 1-1.26.342c-.716 0-1.297-.25-1.743-.747-.443-.498-.664-1.158-.664-1.978v-.063Zm.908.107c0 .586.135 1.056.405 1.411.274.355.639.532 1.094.532a1.3 1.3 0 0 0 1.094-.537c.27-.361.405-.866.405-1.513 0-.58-.138-1.049-.415-1.407a1.303 1.303 0 0 0-1.094-.542c-.445 0-.805.178-1.079.533-.273.354-.41.862-.41 1.523Zm9.497 0c0 .804-.184 1.452-.551 1.943-.368.492-.866.738-1.495.738-.641 0-1.145-.204-1.513-.61v2.543h-.904v-7.314h.826l.044.586c.367-.456.878-.684 1.533-.684.635 0 1.136.24 1.504.718.371.478.556 1.144.556 1.997v.083Zm-.903-.102c0-.596-.127-1.067-.381-1.412s-.602-.517-1.045-.517c-.547 0-.957.242-1.23.727v2.525c.27.482.683.722 1.24.722.433 0 .776-.17 1.03-.512.257-.345.386-.856.386-1.533Zm3.281-3.877v1.279h.987v.698h-.987v3.276c0 .212.044.371.132.479.088.104.238.156.449.156.104 0 .248-.02.43-.058V53a2.622 2.622 0 0 1-.693.098c-.404 0-.708-.122-.913-.367-.206-.244-.308-.59-.308-1.04v-3.276h-.962v-.698h.962v-1.28h.903Zm2.066 6.088c0-.156.045-.286.136-.39.095-.104.235-.157.42-.157.186 0 .326.053.42.157a.548.548 0 0 1 .147.39c0 .15-.049.275-.147.376-.094.101-.234.152-.42.152-.185 0-.325-.05-.42-.152a.54.54 0 0 1-.136-.376Zm5.171-3.999a2.723 2.723 0 0 0-.445-.034c-.592 0-.994.252-1.206.757V53h-.903v-5.283h.879l.014.61c.297-.472.717-.708 1.26-.708.176 0 .309.023.401.069v.84Zm4.096 3.95c-.351.414-.867.62-1.548.62-.563 0-.992-.162-1.289-.488-.293-.328-.441-.813-.444-1.455v-3.437h.903v3.413c0 .8.326 1.201.977 1.201.69 0 1.149-.257 1.377-.771v-3.843h.903V53h-.859l-.02-.523ZM364.944 47H355l4.972 3.748L365 47.01a.37.37 0 0 0-.056-.011Z" fill="#fff" fill-opacity=".7"/><path d="M360.225 51.472a.362.362 0 0 1-.452 0L355 47.618v6.032c0 .193.16.35.357.35h9.286a.354.354 0 0 0 .357-.35v-5.98l-4.775 3.802Z" fill="#fff" fill-opacity=".7"/><rect x="518.5" y="15.5" width="179" height="39" rx="7.5" stroke="#fff"/><path d="M568.553 35.01c0 .836-.141 1.566-.422 2.191-.281.621-.68 1.096-1.195 1.424-.516.328-1.118.492-1.805.492-.672 0-1.268-.164-1.787-.492-.52-.332-.924-.803-1.213-1.412-.285-.613-.432-1.322-.44-2.127v-.615c0-.82.143-1.545.428-2.174.285-.629.688-1.11 1.207-1.441.524-.337 1.121-.504 1.793-.504.684 0 1.285.166 1.805.498.523.328.926.806 1.207 1.435.281.625.422 1.354.422 2.186v.539Zm-1.119-.551c0-1.012-.204-1.787-.61-2.326-.406-.543-.974-.815-1.705-.815-.711 0-1.271.272-1.681.815-.407.539-.616 1.289-.627 2.25v.627c0 .98.205 1.752.615 2.314.414.559.982.838 1.705.838.726 0 1.289-.264 1.687-.79.399-.532.604-1.292.616-2.28v-.633Zm5.179 3.773c.387 0 .725-.117 1.014-.351.289-.234.449-.528.48-.879h1.026c-.02.363-.145.709-.375 1.037-.231.328-.539.59-.926.785a2.646 2.646 0 0 1-1.219.293c-.863 0-1.551-.287-2.062-.861-.508-.578-.762-1.367-.762-2.367v-.182c0-.617.113-1.166.34-1.647.226-.48.551-.853.973-1.119.425-.265.927-.398 1.505-.398.711 0 1.301.213 1.77.639.473.425.725.978.756 1.658h-1.026a1.477 1.477 0 0 0-.468-1.008 1.435 1.435 0 0 0-1.032-.398c-.55 0-.978.199-1.283.597-.301.395-.451.967-.451 1.717v.205c0 .73.15 1.293.451 1.688.301.394.731.591 1.289.591Zm8.449-4.693h-2.126V39h-1.084v-5.46h-2.086v-.88h5.296v.88ZM585.938 39c-.063-.125-.114-.348-.153-.668-.504.523-1.105.785-1.805.785-.625 0-1.138-.176-1.541-.527a1.729 1.729 0 0 1-.597-1.348c0-.66.25-1.172.75-1.535.504-.367 1.211-.55 2.121-.55h1.055v-.499c0-.379-.114-.68-.34-.902-.227-.227-.561-.34-1.002-.34-.387 0-.711.098-.973.293-.262.195-.392.432-.392.709h-1.09c0-.316.111-.621.334-.914a2.31 2.31 0 0 1 .914-.703 3.09 3.09 0 0 1 1.271-.258c.731 0 1.303.184 1.717.55.414.364.629.866.645 1.507v2.918c0 .582.074 1.044.222 1.388V39h-1.136Zm-1.799-.826a1.9 1.9 0 0 0 .966-.264c.305-.176.526-.404.663-.685v-1.301h-.85c-1.328 0-1.992.389-1.992 1.166 0 .34.113.605.34.797.226.191.517.287.873.287Zm4.511.826v-6.34h2.473c.844 0 1.49.149 1.939.446.454.292.68.724.68 1.294 0 .293-.088.559-.263.797-.176.235-.436.414-.78.54.383.09.69.265.92.527.235.261.352.574.352.937 0 .582-.215 1.027-.645 1.336-.426.309-1.029.463-1.81.463h-2.866Zm1.084-2.783v1.91h1.793c.453 0 .791-.084 1.014-.252.227-.168.34-.404.34-.709 0-.633-.465-.95-1.395-.95h-1.752Zm0-.867h1.401c1.015 0 1.523-.297 1.523-.891 0-.594-.48-.9-1.441-.92h-1.483v1.81Zm9.774-2.69h1.084V39h-1.084v-4.623L596.584 39H595.5v-6.34h1.084v4.63l2.924-4.63Zm7.535.88h-2.127V39h-1.084v-5.46h-2.086v-.88h5.297v.88Zm2.238 1.306h1.647c.718.008 1.287.195 1.705.562.418.367.627.865.627 1.494 0 .633-.215 1.141-.645 1.524-.429.383-1.008.574-1.734.574h-2.684v-6.34h1.084v2.186Zm0 .885v2.384h1.612c.406 0 .72-.103.943-.31.223-.211.334-.498.334-.862 0-.351-.109-.638-.328-.861-.215-.227-.518-.344-.908-.352h-1.653Zm11.795-1.337a.834.834 0 0 0-.34-.703c-.226-.175-.537-.263-.931-.263-.383 0-.703.1-.961.299-.254.199-.381.433-.381.703h-1.078c0-.551.23-1.002.691-1.354.461-.351 1.037-.527 1.729-.527.742 0 1.32.16 1.734.48.414.317.621.77.621 1.36 0 .285-.086.546-.258.785a1.758 1.758 0 0 1-.732.568c.738.25 1.107.742 1.107 1.477 0 .582-.224 1.043-.673 1.383-.45.34-1.049.51-1.799.51-.731 0-1.334-.178-1.811-.534-.473-.36-.709-.844-.709-1.453h1.078c0 .309.137.574.41.797.278.219.622.328 1.032.328.414 0 .748-.096 1.002-.287a.89.89 0 0 0 .381-.744c0-.356-.108-.61-.323-.762-.211-.156-.541-.234-.99-.234h-1.084v-.914h1.178c.738-.02 1.107-.325 1.107-.914ZM627.598 39c-.063-.125-.114-.348-.153-.668-.504.523-1.105.785-1.804.785-.625 0-1.139-.176-1.541-.527a1.726 1.726 0 0 1-.598-1.348c0-.66.25-1.172.75-1.535.504-.367 1.211-.55 2.121-.55h1.055v-.499c0-.379-.114-.68-.34-.902-.227-.227-.561-.34-1.002-.34-.387 0-.711.098-.973.293-.261.195-.392.432-.392.709h-1.09c0-.316.111-.621.334-.914a2.31 2.31 0 0 1 .914-.703c.387-.172.81-.258 1.271-.258.731 0 1.303.184 1.717.55.414.364.629.866.645 1.507v2.918c0 .582.074 1.044.222 1.388V39h-1.136Zm-1.799-.826c.34 0 .662-.088.967-.264a1.6 1.6 0 0 0 .662-.685v-1.301h-.85c-1.328 0-1.992.389-1.992 1.166 0 .34.113.605.34.797.226.191.517.287.873.287Zm9.258-5.514V39h-1.09v-2.467h-1.635L630.838 39h-1.172l1.594-2.63c-.406-.15-.719-.378-.938-.686a1.875 1.875 0 0 1-.322-1.09c0-.578.217-1.043.65-1.395.434-.355 1.014-.535 1.741-.539h2.666Zm-3.967 1.946c0 .308.105.558.316.75.211.187.49.283.838.287h1.723v-2.104h-1.559c-.402 0-.722.1-.961.299a.945.945 0 0 0-.357.767ZM636.896 39v-6.34h2.473c.844 0 1.49.149 1.94.446.453.292.679.724.679 1.294 0 .293-.088.559-.263.797-.176.235-.436.414-.78.54.383.09.69.265.92.527.235.261.352.574.352.937 0 .582-.215 1.027-.645 1.336-.426.309-1.029.463-1.81.463h-2.866Zm1.084-2.783v1.91h1.793c.454 0 .791-.084 1.014-.252.227-.168.34-.404.34-.709 0-.633-.465-.95-1.395-.95h-1.752Zm0-.867h1.401c1.015 0 1.523-.297 1.523-.891 0-.594-.48-.9-1.441-.92h-1.483v1.81Zm7.647.949h-.791V39h-1.09v-6.34h1.09v2.684h.709l2.133-2.684h1.312l-2.508 3.047L649.201 39h-1.377l-2.197-2.701Zm6.58 1.113 1.477-4.752h1.16l-2.549 7.319c-.395 1.054-1.022 1.581-1.881 1.581l-.205-.017-.404-.076v-.88l.293.024c.367 0 .652-.074.855-.222.207-.149.377-.42.51-.815l.24-.644-2.262-6.27h1.184l1.582 4.752Z" fill="#fff"/><path d="m242.738 52.339-1.399-1.395c-.499-.499-1.348-.3-1.548.348-.15.449-.649.698-1.099.598-.999-.249-2.347-1.545-2.597-2.591-.15-.449.15-.947.599-1.097.65-.2.849-1.046.35-1.545l-1.398-1.395c-.4-.35-.999-.35-1.349 0l-.949.947c-.949.996.1 3.638 2.447 5.98 2.348 2.343 4.995 3.44 5.994 2.443l.949-.947c.349-.4.349-.997 0-1.346Z" fill="#fff" fill-opacity=".7"/></svg>