<svg width="111" height="129"  fill="none" xmlns="http://www.w3.org/2000/svg" viewBox="0 0 111 129"><circle cx="55.5" cy="72.697" r="48.074" stroke="#F3F5FF" stroke-width="14.852"/><circle cx="55.109" cy="72.306" r="23.841" fill="#C7CBDE"/><path opacity=".4" d="M30.495 37.796c1.552-.986 1.8-2.802.875-4.22-.96-1.472-2.74-1.818-4.045-.966a2.644 2.644 0 0 0-1.215 2.234l-.06.04c-1.207-1.86-1.186-3.405-.007-4.175.804-.524 1.617-.333 2.235.24l.908-.592c-.958-1.062-2.397-1.3-3.677-.466-1.715 1.119-1.777 3.323-.02 6.016 1.836 2.817 3.746 2.69 5.006 1.889Zm-.534-.819c-.956.624-2.186.265-2.777-.648-.59-.914-.39-2.207.556-2.823.933-.61 2.121-.292 2.738.653.63.967.417 2.21-.517 2.818ZM35.151 30.094l-3.577 1.743.428.878 3.577-1.743-.428-.878ZM41.356 32.525c1.674-.553 2.572-2.013 2.106-3.426-.362-1.097-1.275-1.68-2.423-1.502l-.022-.068c.785-.553 1.093-1.45.771-2.424-.403-1.223-1.728-1.993-3.327-1.465-1.493.492-2.43 1.821-2.032 3.196l1.012-.334c-.246-.873.406-1.65 1.304-1.946.953-.314 1.76.06 2.048.933.3.912-.218 1.737-1.242 2.075l-.692.229.306.928.692-.229c1.312-.433 2.261-.007 2.576.946.302.916-.29 1.799-1.4 2.165-1 .33-1.962.077-2.301-.738l-1.063.351c.511 1.337 2.013 1.861 3.687 1.309ZM48.371 30.73c1.977-.346 2.822-2.22 2.31-5.147-.508-2.905-1.96-4.4-3.92-4.058-1.96.343-2.818 2.243-2.31 5.148.512 2.927 1.943 4.403 3.92 4.057Zm-.168-.962c-1.304.228-2.294-.947-2.702-3.279-.407-2.327.13-3.792 1.425-4.019 1.295-.226 2.298.97 2.705 3.297.408 2.332-.125 3.773-1.428 4ZM55.213 30.019c1.816-.055 3.049-1.154 3.013-2.633-.043-1.15-.84-2.103-1.827-2.255l-.002-.053c.846-.248 1.38-1.1 1.36-2.068-.05-1.384-1.244-2.38-2.825-2.332-1.598.048-2.73 1.113-2.68 2.498.02.968.605 1.786 1.482 1.982l.001.053c-.993.212-1.732 1.212-1.688 2.361.035 1.479 1.332 2.502 3.166 2.447Zm-.03-.977c-1.247.037-2.034-.579-2.055-1.556-.04-1.025.786-1.783 1.954-1.818 1.15-.034 2.02.672 2.06 1.698.02.977-.729 1.639-1.959 1.676Zm-.13-4.315c-.994.03-1.714-.57-1.733-1.512-.037-.923.62-1.547 1.64-1.578 1.004-.03 1.697.553 1.734 1.476.02.942-.664 1.585-1.64 1.614Z" fill="#505364"/><path d="M61.897 30.296c1.377.154 2.46-.422 2.892-1.41l-.974-.395c-.344.677-.997.96-1.814.87-1.222-.137-1.977-1.022-1.863-2.48l4.921.551.05-.44c.282-2.526-1.122-3.559-2.534-3.717-1.836-.205-3.217 1.106-3.45 3.19-.233 2.083.812 3.612 2.772 3.831Zm-1.658-4.315c.188-1.047 1.04-1.903 2.231-1.77 1.13.126 1.76 1.055 1.63 2.203l-3.861-.433ZM67.522 23.94l-1.899 6.552 7.969 2.309 1.898-6.553-1.006-.291-1.627 5.614-2.474-.717 1.626-5.614-1.006-.292-1.627 5.614-2.474-.717 1.626-5.614-1.007-.291ZM74.721 33.306l5.174 2.483.423-.881-3.812-1.83.03-.063 2.788-1.087c2.133-.833 2.888-1.338 3.324-2.247.607-1.265.066-2.766-1.375-3.458-1.438-.69-3-.237-3.691 1.204l.945.454c.447-.933 1.35-1.264 2.299-.808.889.426 1.308 1.297.893 2.162-.363.757-1.076 1.105-2.523 1.686l-4.129 1.665-.346.72Z" fill="#505364"/><circle cx="88.897" cy="71.916" r="4.123" fill="#F3F5FF"/><circle cx="22.102" cy="71.916" r="4.123" fill="#F3F5FF"/><circle cx="87.263" cy="61.594" r="4.123" transform="rotate(-18 87.263 61.594)" fill="#F3F5FF"/><circle cx="23.737" cy="82.235" r="4.123" transform="rotate(-18 23.737 82.235)" fill="#F3F5FF"/><circle cx="82.519" cy="52.285" r="4.123" transform="rotate(-36 82.519 52.285)" fill="#F3F5FF"/><circle cx="28.48" cy="91.547" r="4.123" transform="rotate(-36 28.48 91.547)" fill="#F3F5FF"/><circle cx="75.13" cy="44.896" r="4.123" transform="rotate(-54 75.13 44.896)" fill="#F3F5FF"/><circle cx="35.868" cy="98.936" r="4.123" transform="rotate(-54 35.868 98.936)" fill="#F3F5FF"/><circle cx="65.82" cy="40.152" r="4.123" transform="rotate(-72 65.82 40.152)" fill="#F3F5FF"/><circle cx="45.179" cy="103.679" r="4.123" transform="rotate(-72 45.18 103.679)" fill="#F3F5FF"/><circle cx="55.499" cy="38.519" r="4.123" transform="rotate(-90 55.499 38.52)" fill="#F3F5FF"/><circle cx="55.499" cy="105.314" r="4.123" transform="rotate(-90 55.499 105.314)" fill="#F3F5FF"/><circle cx="45.178" cy="40.152" r="4.123" transform="rotate(-108 45.178 40.152)" fill="#F3F5FF"/><circle cx="65.818" cy="103.679" r="4.123" transform="rotate(-108 65.818 103.679)" fill="#F3F5FF"/><circle cx="35.868" cy="44.897" r="4.123" transform="rotate(-126 35.868 44.897)" fill="#F3F5FF"/><circle cx="75.129" cy="98.936" r="4.123" transform="rotate(-126 75.13 98.936)" fill="#F3F5FF"/><circle cx="28.479" cy="52.286" r="4.123" transform="rotate(-144 28.48 52.286)" fill="#F3F5FF"/><circle cx="82.518" cy="91.547" r="4.123" transform="rotate(-144 82.518 91.547)" fill="#F3F5FF"/><circle cx="23.736" cy="61.596" r="4.123" transform="rotate(-162 23.736 61.596)" fill="#F3F5FF"/><circle cx="87.262" cy="82.236" r="4.123" transform="rotate(-162 87.262 82.236)" fill="#F3F5FF"/></svg>
