<svg fill="none" xmlns="http://www.w3.org/2000/svg" viewBox="0 0 40 40"><rect width="40" height="40" rx="8" fill="#B1C3FF"/><mask id="a" fill="#fff"><path d="m31 26.15-.326-2.393-1.68.234-1.908-9.615a1.209 1.209 0 0 0-.502-.763 1.198 1.198 0 0 0-.89-.19l-3.229.584-.677-3.779a1.206 1.206 0 0 0-.928-.968 1.191 1.191 0 0 0-.47-.006l-5.64 1.02c-.141-.514-.205-2.671-1.776-2.21L8.849 9.297a1.214 1.214 0 0 0-.224 2.215c.278.153.605.19.91.102l2.857-.854c1.75 8.91 2.625 13.356 2.608 13.275a3.615 3.615 0 0 0-1.861 1.797 3.64 3.64 0 0 0-.19 2.588c.257.856.82 1.587 1.58 2.052.76.465 1.665.63 2.54.466l.012-.002a3.614 3.614 0 0 0 1.985-1.14c.522-.587.84-1.326.908-2.11L31 26.15Zm-4.394-1.832-7.224 1a3.6 3.6 0 0 0-1.947-1.427L16.19 17.6l8.768-1.59 1.647 8.308Zm-6.972-12.472.464 2.588-4.375.795-.508-2.583 4.42-.8ZM16.63 28.562c-.314.064-.64 0-.908-.178a1.215 1.215 0 0 1-.338-1.683 1.209 1.209 0 0 1 1.675-.34 1.21 1.21 0 0 1 .516.77 1.22 1.22 0 0 1-.51 1.248c-.131.09-.28.152-.435.183Z"/></mask><path d="m31 26.15-.326-2.393-1.68.234-1.908-9.615a1.209 1.209 0 0 0-.502-.763 1.198 1.198 0 0 0-.89-.19l-3.229.584-.677-3.779a1.206 1.206 0 0 0-.928-.968 1.191 1.191 0 0 0-.47-.006l-5.64 1.02c-.141-.514-.205-2.671-1.776-2.21L8.849 9.297a1.214 1.214 0 0 0-.224 2.215c.278.153.605.19.91.102l2.857-.854c1.75 8.91 2.625 13.356 2.608 13.275a3.615 3.615 0 0 0-1.861 1.797 3.64 3.64 0 0 0-.19 2.588c.257.856.82 1.587 1.58 2.052.76.465 1.665.63 2.54.466l.012-.002a3.614 3.614 0 0 0 1.985-1.14c.522-.587.84-1.326.908-2.11L31 26.15Zm-4.394-1.832-7.224 1a3.6 3.6 0 0 0-1.947-1.427L16.19 17.6l8.768-1.59 1.647 8.308Zm-6.972-12.472.464 2.588-4.375.795-.508-2.583 4.42-.8ZM16.63 28.562c-.314.064-.64 0-.908-.178a1.215 1.215 0 0 1-.338-1.683 1.209 1.209 0 0 1 1.675-.34 1.21 1.21 0 0 1 .516.77 1.22 1.22 0 0 1-.51 1.248c-.131.09-.28.152-.435.183Z" fill="#fff"/><path d="m31 26.15.041.296.297-.041-.04-.296-.298.04Zm-.326-2.393.297-.04-.04-.299-.299.042.042.297Zm-1.68.234-.295.058.055.278.28-.039-.04-.297Zm-1.908-9.615-.294.058.294-.058Zm-1.391-.954-.054-.295.054.295Zm-3.23.585-.295.053.053.296.296-.054-.054-.295Zm-.677-3.779-.296.052v.001l.296-.053Zm-1.398-.974.054.295h.002l-.056-.295Zm-5.64 1.02-.29.08.072.265.27-.05-.053-.295Zm-1.776-2.21-.085-.288h-.001l.086.288ZM8.849 9.297l-.086-.288-.002.001.088.287Zm.686 2.317.083.288h.003l-.086-.288Zm2.857-.854.294-.058-.064-.324-.316.094.086.288ZM15 24.035l.294-.06-.072-.36-.339.144.117.276Zm2.07 6.903.055.295-.056-.295Zm.011-.002.056.294h.003l-.059-.294Zm2.893-3.25-.041-.297-.237.034-.021.238.299.026Zm6.632-3.368.04.297.316-.043-.062-.312-.294.058Zm-7.224 1-.248.168.104.154.185-.025-.041-.298Zm-1.947-1.427-.294.058.035.178.173.051.086-.287ZM16.19 17.6l-.054-.296-.3.055.06.299.294-.058Zm8.768-1.59.294-.059-.057-.289-.29.053.053.295Zm-5.325-4.164.296-.053-.053-.296-.296.054.053.295Zm.464 2.588.054.295.294-.054-.053-.294-.295.053Zm-4.375.795-.295.057.057.29.291-.052-.053-.295Zm-.508-2.583-.053-.295-.3.054.059.299.294-.058Zm1.414 15.916.06.294-.06-.294Zm-.479-2.38-.06-.294.06.294Zm15.147-.073-.326-2.393-.595.081.327 2.393.594-.081Zm-.665-2.65-1.68.235.082.594 1.681-.234-.083-.594Zm-1.345.474-1.906-9.616-.589.117 1.907 9.615.588-.116Zm-1.906-9.616a1.509 1.509 0 0 0-.627-.951l-.34.495c.196.134.332.34.378.573l.588-.117Zm-.627-.951a1.498 1.498 0 0 0-1.113-.239l.107.59a.898.898 0 0 1 .667.144l.339-.495Zm-1.113-.239-3.23.585.108.59 3.23-.584-.108-.59Zm-2.88.827-.678-3.779-.59.106.677 3.779.59-.106Zm-.678-3.777a1.506 1.506 0 0 0-.212-.55l-.507.322c.064.1.108.213.128.33l.591-.102Zm-.212-.55a1.5 1.5 0 0 0-.408-.425l-.343.492c.097.068.18.155.244.255l.506-.322Zm-.408-.425a1.493 1.493 0 0 0-.54-.235l-.126.586a.893.893 0 0 1 .323.141l.343-.492Zm-.54-.235a1.491 1.491 0 0 0-.588-.008l.11.59a.89.89 0 0 1 .352.004l.127-.586Zm-.586-.009L14.696 9.98l.107.59 5.64-1.02-.106-.59Zm-5.298 1.237a2.827 2.827 0 0 1-.046-.232c-.018-.105-.039-.234-.065-.371a4.513 4.513 0 0 0-.254-.905c-.126-.3-.317-.606-.62-.798-.314-.2-.705-.248-1.165-.113l.17.576c.325-.096.531-.047.675.044.155.099.284.278.387.524.103.243.169.522.218.783.024.13.044.25.062.36.018.105.037.21.059.29l.579-.158Zm-2.151-2.418L8.763 9.009l.172.575 4.124-1.232-.171-.575ZM8.76 9.01c-.38.117-.696.38-.883.73l.53.282a.904.904 0 0 1 .53-.439L8.76 9.01Zm-.883.73c-.187.35-.228.76-.116 1.141l.576-.17a.914.914 0 0 1 .07-.689l-.53-.282Zm-.116 1.141c.113.381.37.702.718.894l.29-.526a.907.907 0 0 1-.432-.538l-.576.17Zm.718.894c.348.191.756.237 1.138.127l-.166-.576a.898.898 0 0 1-.682-.077l-.29.526Zm1.14.126 2.857-.854-.171-.575-2.857.854.172.575Zm2.477-1.083 1.968 10.01.487 2.478.119.605.028.144.006.032v.004-.002l-.002-.013c.22-.33.583-.133.59-.11l.001.01-.588.118v.002l.001.002a.3.3 0 0 0 .002.007c.006.023.37.22.589-.109l-.002-.013v-.003l-.002-.008-.007-.033-.028-.143-.119-.606-.487-2.478-1.967-10.01-.589.116Zm2.786 12.94a3.916 3.916 0 0 0-2.016 1.947l.543.255a3.316 3.316 0 0 1 1.708-1.649l-.235-.552Zm-2.016 1.947a3.941 3.941 0 0 0-.205 2.801l.574-.172a3.34 3.34 0 0 1 .174-2.374l-.543-.255Zm-.205 2.801a3.923 3.923 0 0 0 1.71 2.222l.313-.512a3.323 3.323 0 0 1-1.449-1.882l-.574.172Zm1.71 2.222a3.894 3.894 0 0 0 2.753.505l-.111-.59a3.295 3.295 0 0 1-2.329-.427l-.312.512Zm2.753.505.012-.003-.112-.59-.012.003.112.59Zm.015-.003c.831-.168 1.585-.601 2.15-1.235l-.448-.4a3.314 3.314 0 0 1-1.82 1.047l.119.588Zm2.15-1.235c.565-.635.91-1.435.983-2.283l-.598-.051a3.343 3.343 0 0 1-.833 1.935l.448.399Zm.725-2.011 11.026-1.538-.082-.594-11.026 1.537.082.595Zm6.55-3.963-7.224 1 .082.594 7.224-1-.082-.594Zm-6.935 1.128a3.9 3.9 0 0 0-2.11-1.546l-.171.575a3.3 3.3 0 0 1 1.785 1.308l.496-.337Zm-1.9-1.316-1.245-6.291-.588.116 1.243 6.291.59-.116Zm-1.486-5.938 8.768-1.59-.107-.59-8.768 1.59.107.59Zm8.42-1.827 1.648 8.308.588-.116-1.647-8.309-.588.117ZM19.34 11.9l.464 2.588.59-.106-.463-2.588-.591.106Zm.705 2.24-4.375.794.107.59 4.376-.794-.108-.59Zm-4.027 1.032-.508-2.583-.588.116.507 2.582.589-.115Zm-.749-2.23 4.42-.8-.107-.59-4.42.8.107.59Zm1.302 15.327a.903.903 0 0 1-.682-.134l-.333.5c.334.222.742.302 1.134.222l-.12-.588Zm-.682-.134a.914.914 0 0 1-.389-.58l-.588.118c.08.393.31.74.644.962l.333-.5Zm-.389-.58a.919.919 0 0 1 .134-.688l-.5-.33c-.221.334-.301.743-.222 1.136l.588-.118Zm.134-.688a.908.908 0 0 1 .577-.39l-.12-.588c-.392.08-.737.313-.958.648l.501.33Zm.577-.39a.903.903 0 0 1 .354-.001l.115-.589a1.503 1.503 0 0 0-.589.002l.12.588Zm.354-.001a.903.903 0 0 1 .327.135l.333-.5a1.506 1.506 0 0 0-.545-.224l-.115.589Zm.327.135c.1.066.185.152.252.251l.498-.334a1.512 1.512 0 0 0-.417-.416l-.333.5Zm.252.251c.067.1.113.212.137.33l.588-.119a1.517 1.517 0 0 0-.226-.545l-.499.334Zm.137.33a.92.92 0 0 1 .001.357l.59.115a1.521 1.521 0 0 0-.003-.59l-.588.118Zm.001.357a.915.915 0 0 1-.135.33l.5.33c.11-.165.186-.35.224-.545l-.589-.115Zm-.135.33a.91.91 0 0 1-.25.253l.336.497c.165-.111.306-.254.415-.42l-.5-.33Zm-.25.253a.905.905 0 0 1-.326.137l.119.588c.194-.04.379-.117.543-.228l-.336-.497Z" fill="#B1C3FF" mask="url(#a)"/></svg>