<svg width="40" height="40" fill="none" xmlns="http://www.w3.org/2000/svg" viewBox="0 0 45 45"><rect x=".224" y=".129" width="44.471" height="44.471" rx="8.894" fill="#B1C3FF"/><g clip-path="url(#a)"><path d="M25.795 13.47v7.783H14.866l-.656.656-.645.645V13.47h12.23Zm1.111-2.223H12.455c-.612 0-1.112.5-1.112 1.112v15.565l4.447-4.447h11.118c.611 0 1.111-.5 1.111-1.112V12.359c0-.612-.5-1.112-1.111-1.112Zm5.56 4.447h-2.224V25.7H15.789v2.224c0 .611.5 1.111 1.112 1.111H29.13l4.447 4.447V16.806c0-.612-.5-1.112-1.112-1.112Z" fill="#fff"/></g><defs><clipPath id="a"><path fill="#fff" transform="translate(9.118 9.023)" d="M0 0h26.682v26.682H0z"/></clipPath></defs></svg>