<svg width="14" height="15" fill="none" xmlns="http://www.w3.org/2000/svg" viewBox="0 0 14 15"><path d="M6.333 11.5h1.334v-1.333H6.334V11.5ZM7 .833A6.67 6.67 0 0 0 .333 7.5 6.67 6.67 0 0 0 7 14.167 6.67 6.67 0 0 0 13.667 7.5 6.67 6.67 0 0 0 7 .833Zm0 12A5.34 5.34 0 0 1 1.667 7.5 5.34 5.34 0 0 1 7 2.167 5.34 5.34 0 0 1 12.334 7.5 5.34 5.34 0 0 1 7 12.833ZM7 3.5a2.666 2.666 0 0 0-2.667 2.667h1.334c0-.734.6-1.334 1.333-1.334.734 0 1.334.6 1.334 1.334 0 1.333-2 1.166-2 3.333h1.333c0-1.5 2-1.667 2-3.333A2.666 2.666 0 0 0 7 3.5Z" fill="#4A53F5"/></svg>