<svg width="111" height="129" fill="none" xmlns="http://www.w3.org/2000/svg" viewBox="0 0 111 129"><circle cx="55.5" cy="72.697" r="48.074" stroke="#F3F5FF" stroke-width="14.852"/><circle cx="55.109" cy="72.306" r="23.841" fill="#C7CBDE"/><path d="M30.495 37.795c1.553-.986 1.8-2.801.876-4.219-.961-1.473-2.74-1.819-4.046-.967a2.644 2.644 0 0 0-1.215 2.235l-.06.039c-1.206-1.86-1.186-3.405-.007-4.174.804-.524 1.617-.334 2.235.24l.908-.593c-.958-1.061-2.397-1.3-3.676-.466-1.715 1.119-1.778 3.324-.022 6.017 1.837 2.816 3.748 2.689 5.007 1.888Zm-.533-.818c-.956.623-2.187.265-2.778-.649-.59-.914-.39-2.207.556-2.823.934-.609 2.122-.291 2.738.654.63.967.417 2.209-.516 2.818ZM42.019 26.748l-11.244 5.478.428.878 11.244-5.477-.428-.879Z" fill="#505364"/><path d="M41.356 32.524c1.675-.552 2.572-2.013 2.106-3.426-.362-1.097-1.274-1.68-2.422-1.502l-.023-.067c.786-.554 1.093-1.45.772-2.425-.404-1.223-1.729-1.992-3.327-1.465-1.493.493-2.43 1.821-2.032 3.196l1.012-.334c-.246-.873.405-1.649 1.303-1.945.954-.315 1.76.06 2.048.933.3.91-.217 1.736-1.242 2.075l-.692.228.307.928.691-.228c1.312-.433 2.262-.008 2.576.946.302.915-.29 1.798-1.4 2.164-1 .33-1.962.077-2.3-.737l-1.064.35c.512 1.338 2.013 1.862 3.687 1.31ZM48.371 30.729c1.977-.346 2.822-2.22 2.31-5.148-.508-2.904-1.96-4.4-3.92-4.057-1.96.343-2.818 2.242-2.31 5.147.512 2.927 1.943 4.404 3.92 4.058Zm-.168-.963c-1.304.229-2.294-.946-2.702-3.278-.407-2.328.13-3.793 1.425-4.019 1.295-.227 2.298.969 2.705 3.296.408 2.332-.125 3.773-1.428 4.001ZM55.213 30.018c1.816-.055 3.049-1.154 3.013-2.632-.043-1.15-.84-2.103-1.827-2.256l-.002-.053c.846-.248 1.38-1.1 1.36-2.067-.05-1.385-1.244-2.38-2.825-2.333-1.598.048-2.73 1.113-2.68 2.498.02.968.605 1.786 1.482 1.982l.001.053c-.993.212-1.732 1.212-1.688 2.361.035 1.48 1.332 2.502 3.166 2.447Zm-.03-.977c-1.247.038-2.034-.578-2.055-1.555-.04-1.026.786-1.784 1.954-1.819 1.15-.034 2.02.673 2.06 1.698.02.977-.729 1.64-1.959 1.676Zm-.13-4.315c-.994.03-1.714-.57-1.733-1.512-.037-.923.62-1.547 1.64-1.578 1.004-.03 1.697.554 1.734 1.477.02.941-.664 1.584-1.64 1.613ZM61.897 30.295c1.377.154 2.46-.422 2.893-1.41l-.975-.396c-.344.677-.997.962-1.813.87-1.223-.137-1.978-1.021-1.864-2.479l4.922.551.049-.441c.282-2.525-1.121-3.558-2.534-3.716-1.836-.206-3.216 1.106-3.45 3.189-.233 2.083.812 3.613 2.772 3.832Zm-1.658-4.315c.189-1.047 1.04-1.904 2.232-1.77 1.13.126 1.759 1.054 1.63 2.202l-3.862-.432ZM67.522 23.94l-1.899 6.553 7.969 2.308 1.898-6.552-1.006-.292-1.627 5.614-2.474-.717 1.626-5.614-1.006-.291-1.627 5.614-2.474-.717 1.626-5.614-1.007-.292ZM74.721 33.307l5.174 2.482.423-.88-3.812-1.83.03-.064 2.788-1.086c2.133-.834 2.888-1.339 3.324-2.248.607-1.265.066-2.766-1.375-3.458-1.438-.69-3-.237-3.691 1.205l.945.453c.447-.933 1.35-1.263 2.299-.808.889.426 1.308 1.298.893 2.163-.363.756-1.076 1.104-2.523 1.686l-4.129 1.664-.346.72Z" fill="#505364"/><circle cx="88.898" cy="71.915" r="4.123" fill="#F3F5FF"/><circle cx="22.102" cy="71.915" r="4.123" fill="#F3F5FF"/><circle cx="87.263" cy="61.594" r="4.123" transform="rotate(-18 87.263 61.594)" fill="#F3F5FF"/><circle cx="23.737" cy="82.235" r="4.123" transform="rotate(-18 23.737 82.235)" fill="#F3F5FF"/><circle cx="82.519" cy="52.284" r="4.123" transform="rotate(-36 82.52 52.284)" fill="#F3F5FF"/><circle cx="28.48" cy="91.546" r="4.123" transform="rotate(-36 28.48 91.546)" fill="#F3F5FF"/><circle cx="75.13" cy="44.896" r="4.123" transform="rotate(-54 75.13 44.896)" fill="#F3F5FF"/><circle cx="35.869" cy="98.934" r="4.123" transform="rotate(-54 35.869 98.934)" fill="#F3F5FF"/><circle cx="65.82" cy="40.151" r="4.123" transform="rotate(-72 65.82 40.151)" fill="#F3F5FF"/><circle cx="45.179" cy="103.678" r="4.123" transform="rotate(-72 45.179 103.678)" fill="#F3F5FF"/><circle cx="55.499" cy="38.517" r="4.123" transform="rotate(-90 55.5 38.517)" fill="#F3F5FF"/><circle cx="55.499" cy="105.313" r="4.123" transform="rotate(-90 55.5 105.313)" fill="#F3F5FF"/><circle cx="45.178" cy="40.151" r="4.123" transform="rotate(-108 45.178 40.151)" fill="#F3F5FF"/><circle cx="65.818" cy="103.678" r="4.123" transform="rotate(-108 65.818 103.678)" fill="#F3F5FF"/><circle cx="35.867" cy="44.896" r="4.123" transform="rotate(-126 35.867 44.896)" fill="#F3F5FF"/><circle cx="75.129" cy="98.935" r="4.123" transform="rotate(-126 75.129 98.935)" fill="#F3F5FF"/><circle cx="28.479" cy="52.284" r="4.123" transform="rotate(-144 28.48 52.284)" fill="#F3F5FF"/><circle cx="82.519" cy="91.546" r="4.123" transform="rotate(-144 82.519 91.546)" fill="#F3F5FF"/><circle cx="23.736" cy="61.594" r="4.123" transform="rotate(-162 23.736 61.594)" fill="#F3F5FF"/><circle cx="87.262" cy="82.235" r="4.123" transform="rotate(-162 87.262 82.235)" fill="#F3F5FF"/></svg>
