<svg width="40" height="40" fill="none" xmlns="http://www.w3.org/2000/svg" viewBox="0 0 46 45"><rect x=".718" y=".129" width="44.471" height="44.471" rx="8.894" fill="#B1C3FF"/><g clip-path="url(#a)"><path d="M24.066 17.918a4.446 4.446 0 0 0-4.447-4.447 4.446 4.446 0 0 0-4.447 4.447 4.446 4.446 0 0 0 4.447 4.447 4.446 4.446 0 0 0 4.447-4.447Zm-2.224 0c0 1.223-1 2.223-2.223 2.223a2.23 2.23 0 0 1-2.224-2.223c0-1.223 1-2.224 2.224-2.224 1.223 0 2.223 1 2.223 2.224ZM10.725 29.035v2.224h17.788v-2.224c0-2.957-5.926-4.447-8.894-4.447-2.969 0-8.894 1.49-8.894 4.447Zm2.223 0c.223-.789 3.669-2.223 6.67-2.223 2.991 0 6.427 1.423 6.671 2.223H12.95Zm18.9-3.335v-3.335h3.335V20.14h-3.335v-3.335h-2.223v3.335h-3.336v2.224h3.336V25.7h2.223Z" fill="#fff"/></g><defs><clipPath id="a"><path fill="#fff" transform="translate(9.612 9.023)" d="M0 0h26.682v26.682H
0z"/></clipPath></defs></svg>