<svg fill="none" xmlns="http://www.w3.org/2000/svg" viewBox="0 0 32 32"><rect width="32" height="32" rx="8" fill="#424245"/><g clip-path="url(#a)"><path d="M14.033 22.5c6.037 0 9.34-5.002 9.34-9.339 0-.14-.004-.284-.01-.425a6.666 6.666 0 0 0 1.637-1.7 6.473 6.473 0 0 1-1.884.517 3.3 3.3 0 0 0 1.443-1.816 6.599 6.599 0 0 1-2.083.797 3.287 3.287 0 0 0-5.596 2.993 9.324 9.324 0 0 1-6.765-3.427 3.286 3.286 0 0 0 1.016 4.38 3.288 3.288 0 0 1-1.487-.41v.041a3.282 3.282 0 0 0 2.633 3.219c-.482.132-.989.151-1.48.056a3.29 3.29 0 0 0 3.065 2.282A6.584 6.584 0 0 1 9 21.026a9.312 9.312 0 0 0 5.033 1.474Z" fill="#CDCDCD"/></g><defs><clipPath id="a"><path fill="#fff" transform="translate(9 8)" d="M0 0h16v16H0z"/></clipPath></defs></svg>