<svg fill="none" xmlns="http://www.w3.org/2000/svg" viewBox="0 0 32 32"><rect width="32" height="32" rx="8" fill="#424245"/><path fill-rule="evenodd" clip-rule="evenodd" d="M23.6 12.694c.126-.392 0-.676-.558-.676h-1.855c-.468 0-.684.249-.81.516 0 0-.954 2.277-2.286 3.754-.433.427-.63.57-.864.57-.127 0-.289-.143-.289-.534v-3.648c0-.463-.144-.676-.54-.676h-2.916c-.288 0-.468.213-.468.427 0 .445.666.552.738 1.797v2.705c0 .587-.108.694-.343.694-.63 0-2.16-2.296-3.078-4.911-.18-.516-.36-.712-.828-.712H7.63c-.54 0-.63.25-.63.516 0 .48.63 2.9 2.935 6.103 1.53 2.189 3.709 3.363 5.671 3.363 1.188 0 1.332-.267 1.332-.712v-1.654c0-.534.108-.623.486-.623.27 0 .757.142 1.855 1.192C20.539 21.431 20.755 22 21.457 22h1.855c.54 0 .792-.267.648-.783-.162-.516-.774-1.263-1.566-2.153-.432-.498-1.08-1.05-1.279-1.317-.27-.355-.198-.498 0-.818-.018 0 2.25-3.167 2.485-4.235Z" fill="#CDCDCD"/></svg>