<svg width="78" height="37" viewBox="0 0 78 37" fill="none" xmlns="http://www.w3.org/2000/svg">
<path d="M0.642046 36H9.07955V25.1591H14.8068C22.8011 25.1591 27.7955 20.4205 27.7955 13.1761C27.7955 6 22.9034 1.09091 15.0625 1.09091H0.642046V36ZM9.07955 18.5114V7.89205H13.2386C17.0227 7.89205 19.0511 9.9375 19.0511 13.1761C19.0511 16.3977 17.0227 18.5114 13.2386 18.5114H9.07955ZM40.392 1.09091H31.9545V36H40.392V1.09091ZM77.3764 13.7386C76.5241 5.38636 70.3026 0.613635 61.8651 0.613635C52.5582 0.613635 45.3139 7.00568 45.3139 18.5455C45.3139 30.0341 52.3878 36.4773 61.8651 36.4773C71.4446 36.4773 76.7457 29.9659 77.3764 23.7784L68.8537 23.7273C68.2571 27.0852 65.7344 29.0795 62.0355 29.0795C57.0582 29.0795 53.9219 25.483 53.9219 18.5455C53.9219 11.8807 56.9901 8.01136 62.0866 8.01136C65.9219 8.01136 68.4276 10.2443 68.8537 13.7386H77.3764Z" fill="white"/>
</svg>
